<ttFont>
<head>
    <!-- Most of this table will be recalculated by the compiler -->
    <tableVersion value="1.0"/>
    <fontRevision value="1.301"/>
    <checkSumAdjustment value="0x7283299"/>
    <magicNumber value="0x5f0f3cf5"/>
    <flags value="00000000 00001011"/>
    <unitsPerEm value="1000"/>
    <created value="Tue Oct  2 22:58:00 2007"/>
    <modified value="Thu Mar  6 18:39:15 2014"/>
    <xMin value="-61"/>
    <yMin value="-330"/>
    <xMax value="1008"/>
    <yMax value="1141"/>
    <macStyle value="00000000 00000000"/>
    <lowestRecPPEM value="9"/>
    <fontDirectionHint value="2"/>
    <indexToLocFormat value="0"/>
    <glyphDataFormat value="0"/>
  </head>
    <TTGlyph name="A" xMin="-3" yMin="0" xMax="559" yMax="737">
      <contour>
        <pt x="406" y="0" on="1"/>
        <pt x="367" y="127" on="1"/>
        <pt x="186" y="127" on="1"/>
        <pt x="147" y="0" on="1"/>
        <pt x="-3" y="0" on="1"/>
        <pt x="243" y="737" on="1"/>
        <pt x="314" y="737" on="1"/>
        <pt x="559" y="0" on="1"/>
      </contour>
      <contour>
        <pt x="277" y="450" on="1"/>
        <pt x="224" y="252" on="1"/>
        <pt x="329" y="252" on="1"/>
      </contour>
    </TTGlyph>
    <TTGlyph name="AE" xMin="-4" yMin="0" xMax="763" yMax="733">
      <contour>
        <pt x="383" y="0" on="1"/>
        <pt x="383" y="123" on="1"/>
        <pt x="212" y="123" on="1"/>
        <pt x="155" y="0" on="1"/>
        <pt x="-4" y="0" on="1"/>
        <pt x="356" y="733" on="1"/>
        <pt x="763" y="733" on="1"/>
        <pt x="763" y="593" on="1"/>
        <pt x="535" y="593" on="1"/>
        <pt x="535" y="442" on="1"/>
        <pt x="737" y="442" on="1"/>
        <pt x="737" y="308" on="1"/>
        <pt x="535" y="308" on="1"/>
        <pt x="535" y="140" on="1"/>
        <pt x="763" y="140" on="1"/>
        <pt x="763" y="0" on="1"/>
      </contour>
      <contour>
        <pt x="384" y="500" on="1"/>
        <pt x="272" y="252" on="1"/>
        <pt x="384" y="252" on="1"/>
      </contour>
    </TTGlyph>
    <TTGlyph name="AEacute" xMin="-4" yMin="0" xMax="763" yMax="988">
      <component glyphName="acute" x="354" y="290" flags="0x4"/>
      <component glyphName="AE" x="0" y="0" flags="0x4"/>
    </TTGlyph>
    <TTGlyph name="Aacute" xMin="-3" yMin="0" xMax="559" yMax="988">
      <component glyphName="A" x="0" y="0" flags="0x204"/>
      <component glyphName="acute" x="118" y="290" flags="0x4"/>
    </TTGlyph>
    <TTGlyph name="Abreve" xMin="-3" yMin="0" xMax="559" yMax="946">
      <component glyphName="A" x="0" y="0" flags="0x204"/>
      <component glyphName="breve" x="56" y="290" flags="0x4"/>
    </TTGlyph>
    <TTGlyph name="Acircumflex" xMin="-3" yMin="0" xMax="559" yMax="965">
      <component glyphName="A" x="0" y="0" flags="0x204"/>
      <component glyphName="circumflex" x="54" y="290" flags="0x4"/>
    </TTGlyph>
    <TTGlyph name="Adieresis" xMin="-3" yMin="0" xMax="559" yMax="932">
      <component glyphName="A" x="0" y="0" flags="0x204"/>
      <component glyphName="dieresis" x="56" y="290" flags="0x4"/>
    </TTGlyph>
    <TTGlyph name="Agrave" xMin="-3" yMin="0" xMax="559" yMax="990">
      <component glyphName="A" x="0" y="0" flags="0x204"/>
      <component glyphName="grave" x="-18" y="290" flags="0x4"/>
    </TTGlyph>
    <TTGlyph name="Amacron" xMin="-3" yMin="0" xMax="559" yMax="895">
      <component glyphName="A" x="0" y="0" flags="0x204"/>
      <component glyphName="macron" x="56" y="290" flags="0x4"/>
    </TTGlyph>
    <TTGlyph name="Aogonek" xMin="-3" yMin="-209" xMax="559" yMax="737">
      <contour>
        <pt x="559" y="-166" on="1"/>
        <pt x="543" y="-183" on="0"/>
        <pt x="490" y="-209" on="0"/>
        <pt x="454" y="-209" on="1"/>
        <pt x="413" y="-209" on="0"/>
        <pt x="369" y="-162" on="0"/>
        <pt x="369" y="-125" on="1"/>
        <pt x="369" y="-93" on="0"/>
        <pt x="400" y="-35" on="0"/>
        <pt x="429" y="0" on="1"/>
        <pt x="406" y="0" on="1"/>
        <pt x="367" y="127" on="1"/>
        <pt x="186" y="127" on="1"/>
        <pt x="147" y="0" on="1"/>
        <pt x="-3" y="0" on="1"/>
        <pt x="243" y="737" on="1"/>
        <pt x="314" y="737" on="1"/>
        <pt x="559" y="0" on="1"/>
        <pt x="505" y="0" on="1"/>
        <pt x="481" y="-34" on="0"/>
        <pt x="459" y="-78" on="0"/>
        <pt x="459" y="-98" on="1"/>
        <pt x="459" y="-132" on="0"/>
        <pt x="493" y="-132" on="1"/>
        <pt x="504" y="-132" on="0"/>
        <pt x="525" y="-123" on="0"/>
        <pt x="534" y="-117" on="1"/>
      </contour>
      <contour>
        <pt x="277" y="450" on="1"/>
        <pt x="224" y="252" on="1"/>
        <pt x="329" y="252" on="1"/>
      </contour>
    </TTGlyph>
    <TTGlyph name="Aring" xMin="-3" yMin="0" xMax="559" yMax="910">
      <contour>
        <pt x="394" y="798" on="1"/>
        <pt x="394" y="765" on="0"/>
        <pt x="359" y="710" on="0"/>
        <pt x="327" y="697" on="1"/>
        <pt x="559" y="0" on="1"/>
        <pt x="406" y="0" on="1"/>
        <pt x="367" y="127" on="1"/>
        <pt x="186" y="127" on="1"/>
        <pt x="147" y="0" on="1"/>
        <pt x="-3" y="0" on="1"/>
        <pt x="228" y="697" on="1"/>
        <pt x="197" y="710" on="0"/>
        <pt x="161" y="765" on="0"/>
        <pt x="161" y="798" on="1"/>
        <pt x="161" y="820" on="0"/>
        <pt x="178" y="861" on="0"/>
        <pt x="208" y="892" on="0"/>
        <pt x="251" y="910" on="0"/>
        <pt x="278" y="910" on="1"/>
        <pt x="305" y="910" on="0"/>
        <pt x="348" y="892" on="0"/>
        <pt x="378" y="861" on="0"/>
        <pt x="394" y="820" on="0"/>
      </contour>
      <contour>
        <pt x="277" y="450" on="1"/>
        <pt x="224" y="252" on="1"/>
        <pt x="329" y="252" on="1"/>
      </contour>
      <contour>
        <pt x="323" y="798" on="1"/>
        <pt x="323" y="820" on="0"/>
        <pt x="297" y="848" on="0"/>
        <pt x="278" y="848" on="1"/>
        <pt x="259" y="848" on="0"/>
        <pt x="234" y="821" on="0"/>
        <pt x="234" y="798" on="1"/>
        <pt x="234" y="775" on="0"/>
        <pt x="259" y="747" on="0"/>
        <pt x="278" y="747" on="1"/>
        <pt x="297" y="747" on="0"/>
        <pt x="323" y="775" on="0"/>
      </contour>
    </TTGlyph>
    <TTGlyph name="Aringacute" xMin="-3" yMin="0" xMax="559" yMax="1141">
      <component glyphName="acute" x="116" y="443" flags="0x4"/>
      <component glyphName="Aring" x="0" y="0" flags="0x4"/>
    </TTGlyph>
    <TTGlyph name="Atilde" xMin="-3" yMin="0" xMax="559" yMax="931">
      <component glyphName="A" x="0" y="0" flags="0x204"/>
      <component glyphName="tilde" x="56" y="290" flags="0x4"/>
    </TTGlyph>
    <TTGlyph name="B" xMin="59" yMin="-6" xMax="507" yMax="739">
      <contour>
        <pt x="507" y="206" on="1"/>
        <pt x="507" y="160" on="0"/>
        <pt x="473" y="82" on="0"/>
        <pt x="404" y="26" on="0"/>
        <pt x="299" y="-6" on="0"/>
        <pt x="229" y="-6" on="1"/>
        <pt x="196" y="-6" on="0"/>
        <pt x="101" y="-1" on="0"/>
        <pt x="59" y="5" on="1"/>
        <pt x="59" y="727" on="1"/>
        <pt x="75" y="730" on="0"/>
        <pt x="118" y="734" on="0"/>
        <pt x="164" y="737" on="0"/>
        <pt x="207" y="739" on="0"/>
        <pt x="222" y="739" on="1"/>
        <pt x="291" y="739" on="0"/>
        <pt x="393" y="706" on="0"/>
        <pt x="459" y="652" on="0"/>
        <pt x="491" y="582" on="0"/>
        <pt x="491" y="544" on="1"/>
        <pt x="491" y="486" on="0"/>
        <pt x="437" y="405" on="0"/>
        <pt x="390" y="379" on="1"/>
        <pt x="447" y="357" on="0"/>
        <pt x="507" y="269" on="0"/>
      </contour>
      <contour>
        <pt x="338" y="517" on="1"/>
        <pt x="338" y="559" on="0"/>
        <pt x="291" y="605" on="0"/>
        <pt x="248" y="605" on="1"/>
        <pt x="226" y="605" on="0"/>
        <pt x="206" y="600" on="1"/>
        <pt x="206" y="427" on="1"/>
        <pt x="214" y="426" on="0"/>
        <pt x="231" y="425" on="0"/>
        <pt x="242" y="425" on="1"/>
        <pt x="289" y="425" on="0"/>
        <pt x="338" y="469" on="0"/>
      </contour>
      <contour>
        <pt x="348" y="223" on="1"/>
        <pt x="348" y="267" on="0"/>
        <pt x="295" y="320" on="0"/>
        <pt x="247" y="320" on="1"/>
        <pt x="236" y="320" on="0"/>
        <pt x="213" y="319" on="0"/>
        <pt x="206" y="317" on="1"/>
        <pt x="206" y="128" on="1"/>
        <pt x="216" y="126" on="0"/>
        <pt x="233" y="125" on="0"/>
        <pt x="249" y="125" on="1"/>
        <pt x="295" y="125" on="0"/>
        <pt x="348" y="172" on="0"/>
      </contour>
    </TTGlyph>
    <TTGlyph name="C" xMin="37" yMin="-11" xMax="521" yMax="744">
      <contour>
        <pt x="521" y="42" on="1"/>
        <pt x="481" y="14" on="0"/>
        <pt x="394" y="-11" on="0"/>
        <pt x="346" y="-11" on="1"/>
        <pt x="280" y="-11" on="0"/>
        <pt x="166" y="43" on="0"/>
        <pt x="84" y="142" on="0"/>
        <pt x="37" y="280" on="0"/>
        <pt x="37" y="364" on="1"/>
        <pt x="37" y="448" on="0"/>
        <pt x="83" y="587" on="0"/>
        <pt x="165" y="688" on="0"/>
        <pt x="280" y="744" on="0"/>
        <pt x="349" y="744" on="1"/>
        <pt x="442" y="744" on="0"/>
        <pt x="518" y="693" on="1"/>
        <pt x="465" y="565" on="1"/>
        <pt x="439" y="582" on="0"/>
        <pt x="383" y="602" on="0"/>
        <pt x="353" y="602" on="1"/>
        <pt x="319" y="602" on="0"/>
        <pt x="261" y="571" on="0"/>
        <pt x="219" y="513" on="0"/>
        <pt x="196" y="426" on="0"/>
        <pt x="196" y="371" on="1"/>
        <pt x="196" y="257" on="0"/>
        <pt x="283" y="131" on="0"/>
        <pt x="355" y="131" on="1"/>
        <pt x="416" y="131" on="0"/>
        <pt x="472" y="169" on="1"/>
      </contour>
    </TTGlyph>
    <TTGlyph name="Cacute" xMin="37" yMin="-11" xMax="521" yMax="988">
      <component glyphName="acute" x="165" y="290" flags="0x4"/>
      <component glyphName="C" x="0" y="0" flags="0x4"/>
    </TTGlyph>
    <TTGlyph name="Ccaron" xMin="37" yMin="-11" xMax="521" yMax="961">
      <component glyphName="caron" x="104" y="290" flags="0x4"/>
      <component glyphName="C" x="0" y="0" flags="0x4"/>
    </TTGlyph>
    <TTGlyph name="Ccedilla" xMin="37" yMin="-226" xMax="521" yMax="744">
      <contour>
        <pt x="445" y="-128" on="1"/>
        <pt x="445" y="-167" on="0"/>
        <pt x="388" y="-226" on="0"/>
        <pt x="332" y="-226" on="1"/>
        <pt x="304" y="-226" on="0"/>
        <pt x="248" y="-207" on="0"/>
        <pt x="219" y="-190" on="1"/>
        <pt x="247" y="-122" on="1"/>
        <pt x="298" y="-156" on="0"/>
        <pt x="338" y="-156" on="1"/>
        <pt x="351" y="-156" on="0"/>
        <pt x="366" y="-144" on="0"/>
        <pt x="366" y="-129" on="1"/>
        <pt x="366" y="-118" on="0"/>
        <pt x="331" y="-98" on="0"/>
        <pt x="281" y="-98" on="1"/>
        <pt x="278" y="-89" on="1"/>
        <pt x="299" y="-7" on="1"/>
        <pt x="242" y="2" on="0"/>
        <pt x="145" y="62" on="0"/>
        <pt x="76" y="159" on="0"/>
        <pt x="37" y="287" on="0"/>
        <pt x="37" y="364" on="1"/>
        <pt x="37" y="448" on="0"/>
        <pt x="83" y="587" on="0"/>
        <pt x="165" y="688" on="0"/>
        <pt x="280" y="744" on="0"/>
        <pt x="349" y="744" on="1"/>
        <pt x="442" y="744" on="0"/>
        <pt x="518" y="693" on="1"/>
        <pt x="465" y="565" on="1"/>
        <pt x="439" y="582" on="0"/>
        <pt x="383" y="602" on="0"/>
        <pt x="353" y="602" on="1"/>
        <pt x="319" y="602" on="0"/>
        <pt x="261" y="571" on="0"/>
        <pt x="219" y="513" on="0"/>
        <pt x="196" y="426" on="0"/>
        <pt x="196" y="371" on="1"/>
        <pt x="196" y="257" on="0"/>
        <pt x="283" y="131" on="0"/>
        <pt x="355" y="131" on="1"/>
        <pt x="416" y="131" on="0"/>
        <pt x="472" y="169" on="1"/>
        <pt x="521" y="42" on="1"/>
        <pt x="482" y="15" on="0"/>
        <pt x="396" y="-10" on="0"/>
        <pt x="350" y="-11" on="1"/>
        <pt x="344" y="-37" on="1"/>
        <pt x="399" y="-49" on="0"/>
        <pt x="445" y="-96" on="0"/>
      </contour>
    </TTGlyph>
    <TTGlyph name="Cdotaccent" xMin="37" yMin="-11" xMax="521" yMax="932">
      <component glyphName="C" x="0" y="0" flags="0x204"/>
      <component glyphName="dotaccent" x="115" y="290" flags="0x4"/>
    </TTGlyph>
    <TTGlyph name="D" xMin="59" yMin="-6" xMax="577" yMax="739">
      <contour>
        <pt x="577" y="372" on="1"/>
        <pt x="577" y="286" on="0"/>
        <pt x="533" y="146" on="0"/>
        <pt x="444" y="47" on="0"/>
        <pt x="310" y="-6" on="0"/>
        <pt x="220" y="-6" on="1"/>
        <pt x="175" y="-6" on="0"/>
        <pt x="103" y="0" on="0"/>
        <pt x="59" y="5" on="1"/>
        <pt x="59" y="728" on="1"/>
        <pt x="100" y="733" on="0"/>
        <pt x="173" y="739" on="0"/>
        <pt x="217" y="739" on="1"/>
        <pt x="307" y="739" on="0"/>
        <pt x="442" y="688" on="0"/>
        <pt x="532" y="593" on="0"/>
        <pt x="577" y="457" on="0"/>
      </contour>
      <contour>
        <pt x="418" y="371" on="1"/>
        <pt x="418" y="479" on="0"/>
        <pt x="330" y="601" on="0"/>
        <pt x="249" y="601" on="1"/>
        <pt x="238" y="601" on="0"/>
        <pt x="222" y="600" on="0"/>
        <pt x="211" y="599" on="1"/>
        <pt x="211" y="134" on="1"/>
        <pt x="222" y="132" on="0"/>
        <pt x="239" y="131" on="0"/>
        <pt x="254" y="131" on="1"/>
        <pt x="294" y="131" on="0"/>
        <pt x="356" y="165" on="0"/>
        <pt x="397" y="228" on="0"/>
        <pt x="418" y="316" on="0"/>
      </contour>
    </TTGlyph>
    <TTGlyph name="Dcaron" xMin="59" yMin="-6" xMax="577" yMax="961">
      <component glyphName="caron" x="69" y="290" flags="0x4"/>
      <component glyphName="D" x="0" y="0" flags="0x4"/>
    </TTGlyph>
    <TTGlyph name="Dcroat" xMin="14" yMin="-6" xMax="597" yMax="739">
      <component glyphName="Eth" x="0" y="0" flags="0x204"/>
    </TTGlyph>
    <TTGlyph name="E" xMin="59" yMin="0" xMax="439" yMax="733">
      <contour>
        <pt x="59" y="0" on="1"/>
        <pt x="59" y="733" on="1"/>
        <pt x="439" y="733" on="1"/>
        <pt x="439" y="593" on="1"/>
        <pt x="211" y="593" on="1"/>
        <pt x="211" y="442" on="1"/>
        <pt x="413" y="442" on="1"/>
        <pt x="413" y="308" on="1"/>
        <pt x="211" y="308" on="1"/>
        <pt x="211" y="140" on="1"/>
        <pt x="439" y="140" on="1"/>
        <pt x="439" y="0" on="1"/>
      </contour>
    </TTGlyph>
    <TTGlyph name="Eacute" xMin="59" yMin="0" xMax="439" yMax="988">
      <component glyphName="acute" x="89" y="290" flags="0x4"/>
      <component glyphName="E" x="0" y="0" flags="0x4"/>
    </TTGlyph>
    <TTGlyph name="Ebreve" xMin="59" yMin="0" xMax="439" yMax="946">
      <component glyphName="E" x="0" y="0" flags="0x204"/>
      <component glyphName="breve" x="27" y="290" flags="0x4"/>
    </TTGlyph>
    <TTGlyph name="Ecaron" xMin="59" yMin="0" xMax="439" yMax="961">
      <component glyphName="caron" x="28" y="290" flags="0x4"/>
      <component glyphName="E" x="0" y="0" flags="0x4"/>
    </TTGlyph>
    <TTGlyph name="Ecircumflex" xMin="59" yMin="0" xMax="439" yMax="965">
      <component glyphName="circumflex" x="25" y="290" flags="0x4"/>
      <component glyphName="E" x="0" y="0" flags="0x4"/>
    </TTGlyph>
    <TTGlyph name="Edieresis" xMin="59" yMin="0" xMax="439" yMax="932">
      <component glyphName="dieresis" x="27" y="290" flags="0x4"/>
      <component glyphName="E" x="0" y="0" flags="0x4"/>
    </TTGlyph>
    <TTGlyph name="Edotaccent" xMin="59" yMin="0" xMax="439" yMax="932">
      <component glyphName="E" x="0" y="0" flags="0x204"/>
      <component glyphName="dotaccent" x="40" y="290" flags="0x4"/>
    </TTGlyph>
    <TTGlyph name="Egrave" xMin="59" yMin="0" xMax="439" yMax="990">
      <component glyphName="E" x="0" y="0" flags="0x204"/>
      <component glyphName="grave" x="-47" y="290" flags="0x4"/>
    </TTGlyph>
    <TTGlyph name="Emacron" xMin="59" yMin="0" xMax="439" yMax="895">
      <component glyphName="E" x="0" y="0" flags="0x204"/>
      <component glyphName="macron" x="27" y="290" flags="0x4"/>
    </TTGlyph>
    <TTGlyph name="Eogonek" xMin="59" yMin="-209" xMax="442" yMax="733">
      <contour>
        <pt x="388" y="0" on="1"/>
        <pt x="364" y="-34" on="0"/>
        <pt x="342" y="-78" on="0"/>
        <pt x="342" y="-98" on="1"/>
        <pt x="342" y="-132" on="0"/>
        <pt x="376" y="-132" on="1"/>
        <pt x="387" y="-132" on="0"/>
        <pt x="408" y="-123" on="0"/>
        <pt x="417" y="-117" on="1"/>
        <pt x="442" y="-166" on="1"/>
        <pt x="426" y="-183" on="0"/>
        <pt x="373" y="-209" on="0"/>
        <pt x="337" y="-209" on="1"/>
        <pt x="296" y="-209" on="0"/>
        <pt x="252" y="-162" on="0"/>
        <pt x="252" y="-125" on="1"/>
        <pt x="252" y="-93" on="0"/>
        <pt x="283" y="-35" on="0"/>
        <pt x="312" y="0" on="1"/>
        <pt x="59" y="0" on="1"/>
        <pt x="59" y="733" on="1"/>
        <pt x="439" y="733" on="1"/>
        <pt x="439" y="593" on="1"/>
        <pt x="211" y="593" on="1"/>
        <pt x="211" y="442" on="1"/>
        <pt x="413" y="442" on="1"/>
        <pt x="413" y="308" on="1"/>
        <pt x="211" y="308" on="1"/>
        <pt x="211" y="140" on="1"/>
        <pt x="439" y="140" on="1"/>
        <pt x="439" y="0" on="1"/>
      </contour>
    </TTGlyph>
    <TTGlyph name="Eth" xMin="14" yMin="-6" xMax="597" yMax="739">
      <contour>
        <pt x="597" y="372" on="1"/>
        <pt x="597" y="286" on="0"/>
        <pt x="553" y="146" on="0"/>
        <pt x="464" y="47" on="0"/>
        <pt x="330" y="-6" on="0"/>
        <pt x="240" y="-6" on="1"/>
        <pt x="195" y="-6" on="0"/>
        <pt x="123" y="0" on="0"/>
        <pt x="79" y="5" on="1"/>
        <pt x="79" y="312" on="1"/>
        <pt x="14" y="312" on="1"/>
        <pt x="14" y="429" on="1"/>
        <pt x="79" y="429" on="1"/>
        <pt x="79" y="728" on="1"/>
        <pt x="120" y="733" on="0"/>
        <pt x="193" y="739" on="0"/>
        <pt x="237" y="739" on="1"/>
        <pt x="327" y="739" on="0"/>
        <pt x="462" y="688" on="0"/>
        <pt x="552" y="593" on="0"/>
        <pt x="597" y="457" on="0"/>
      </contour>
      <contour>
        <pt x="438" y="371" on="1"/>
        <pt x="438" y="479" on="0"/>
        <pt x="350" y="601" on="0"/>
        <pt x="269" y="601" on="1"/>
        <pt x="258" y="601" on="0"/>
        <pt x="242" y="600" on="0"/>
        <pt x="231" y="599" on="1"/>
        <pt x="231" y="429" on="1"/>
        <pt x="315" y="429" on="1"/>
        <pt x="315" y="312" on="1"/>
        <pt x="231" y="312" on="1"/>
        <pt x="231" y="134" on="1"/>
        <pt x="242" y="132" on="0"/>
        <pt x="259" y="131" on="0"/>
        <pt x="274" y="131" on="1"/>
        <pt x="314" y="131" on="0"/>
        <pt x="376" y="165" on="0"/>
        <pt x="417" y="228" on="0"/>
        <pt x="438" y="316" on="0"/>
      </contour>
    </TTGlyph>
    <TTGlyph name="Euro" xMin="25" yMin="-11" xMax="503" yMax="676">
      <contour>
        <pt x="25" y="366" on="1"/>
        <pt x="25" y="453" on="1"/>
        <pt x="90" y="453" on="1"/>
        <pt x="104" y="504" on="0"/>
        <pt x="153" y="586" on="0"/>
        <pt x="220" y="645" on="0"/>
        <pt x="303" y="676" on="0"/>
        <pt x="351" y="676" on="1"/>
        <pt x="434" y="676" on="0"/>
        <pt x="502" y="629" on="1"/>
        <pt x="451" y="515" on="1"/>
        <pt x="428" y="529" on="0"/>
        <pt x="382" y="547" on="0"/>
        <pt x="355" y="547" on="1"/>
        <pt x="314" y="547" on="0"/>
        <pt x="254" y="500" on="0"/>
        <pt x="237" y="453" on="1"/>
        <pt x="413" y="453" on="1"/>
        <pt x="413" y="366" on="1"/>
        <pt x="219" y="366" on="1"/>
        <pt x="218" y="359" on="0"/>
        <pt x="218" y="345" on="0"/>
        <pt x="218" y="337" on="1"/>
        <pt x="218" y="326" on="0"/>
        <pt x="218" y="309" on="0"/>
        <pt x="219" y="301" on="1"/>
        <pt x="413" y="301" on="1"/>
        <pt x="413" y="214" on="1"/>
        <pt x="238" y="214" on="1"/>
        <pt x="255" y="167" on="0"/>
        <pt x="316" y="118" on="0"/>
        <pt x="359" y="118" on="1"/>
        <pt x="410" y="118" on="0"/>
        <pt x="457" y="150" on="1"/>
        <pt x="503" y="37" on="1"/>
        <pt x="468" y="12" on="0"/>
        <pt x="391" y="-11" on="0"/>
        <pt x="349" y="-11" on="1"/>
        <pt x="302" y="-11" on="0"/>
        <pt x="219" y="20" on="0"/>
        <pt x="151" y="79" on="0"/>
        <pt x="102" y="162" on="0"/>
        <pt x="89" y="214" on="1"/>
        <pt x="25" y="214" on="1"/>
        <pt x="25" y="301" on="1"/>
        <pt x="76" y="301" on="1"/>
        <pt x="75" y="308" on="0"/>
        <pt x="75" y="321" on="0"/>
        <pt x="75" y="329" on="1"/>
        <pt x="75" y="339" on="0"/>
        <pt x="75" y="358" on="0"/>
        <pt x="76" y="366" on="1"/>
      </contour>
    </TTGlyph>
    <TTGlyph name="Euro.lin" xMin="27" yMin="-11" xMax="563" yMax="738">
      <contour>
        <pt x="27" y="401" on="1"/>
        <pt x="27" y="491" on="1"/>
        <pt x="100" y="491" on="1"/>
        <pt x="115" y="547" on="0"/>
        <pt x="169" y="638" on="0"/>
        <pt x="244" y="703" on="0"/>
        <pt x="338" y="738" on="0"/>
        <pt x="392" y="738" on="1"/>
        <pt x="441" y="738" on="0"/>
        <pt x="524" y="712" on="0"/>
        <pt x="561" y="686" on="1"/>
        <pt x="503" y="566" on="1"/>
        <pt x="477" y="583" on="0"/>
        <pt x="427" y="602" on="0"/>
        <pt x="395" y="602" on="1"/>
        <pt x="345" y="602" on="0"/>
        <pt x="273" y="545" on="0"/>
        <pt x="253" y="491" on="1"/>
        <pt x="462" y="491" on="1"/>
        <pt x="462" y="401" on="1"/>
        <pt x="235" y="401" on="1"/>
        <pt x="233" y="393" on="0"/>
        <pt x="233" y="376" on="0"/>
        <pt x="233" y="368" on="1"/>
        <pt x="233" y="357" on="0"/>
        <pt x="233" y="336" on="0"/>
        <pt x="234" y="325" on="1"/>
        <pt x="462" y="325" on="1"/>
        <pt x="462" y="235" on="1"/>
        <pt x="255" y="235" on="1"/>
        <pt x="273" y="183" on="0"/>
        <pt x="346" y="125" on="0"/>
        <pt x="401" y="125" on="1"/>
        <pt x="430" y="125" on="0"/>
        <pt x="482" y="144" on="0"/>
        <pt x="509" y="161" on="1"/>
        <pt x="563" y="42" on="1"/>
        <pt x="488" y="-11" on="0"/>
        <pt x="386" y="-11" on="1"/>
        <pt x="335" y="-11" on="0"/>
        <pt x="244" y="23" on="0"/>
        <pt x="169" y="87" on="0"/>
        <pt x="115" y="178" on="0"/>
        <pt x="100" y="235" on="1"/>
        <pt x="27" y="235" on="1"/>
        <pt x="27" y="325" on="1"/>
        <pt x="86" y="325" on="1"/>
        <pt x="84" y="333" on="0"/>
        <pt x="85" y="352" on="0"/>
        <pt x="85" y="360" on="1"/>
        <pt x="85" y="371" on="0"/>
        <pt x="84" y="391" on="0"/>
        <pt x="86" y="401" on="1"/>
      </contour>
    </TTGlyph>
    <TTGlyph name="F" xMin="59" yMin="0" xMax="436" yMax="733">
      <contour>
        <pt x="211" y="593" on="1"/>
        <pt x="211" y="420" on="1"/>
        <pt x="403" y="420" on="1"/>
        <pt x="403" y="285" on="1"/>
        <pt x="211" y="285" on="1"/>
        <pt x="211" y="0" on="1"/>
        <pt x="59" y="0" on="1"/>
        <pt x="59" y="733" on="1"/>
        <pt x="436" y="733" on="1"/>
        <pt x="436" y="593" on="1"/>
      </contour>
    </TTGlyph>
    <TTGlyph name="G" xMin="37" yMin="-11" xMax="546" yMax="744">
      <contour>
        <pt x="546" y="421" on="1"/>
        <pt x="546" y="49" on="1"/>
        <pt x="457" y="-11" on="0"/>
        <pt x="339" y="-11" on="1"/>
        <pt x="274" y="-11" on="0"/>
        <pt x="164" y="39" on="0"/>
        <pt x="83" y="135" on="0"/>
        <pt x="37" y="275" on="0"/>
        <pt x="37" y="364" on="1"/>
        <pt x="37" y="449" on="0"/>
        <pt x="83" y="589" on="0"/>
        <pt x="165" y="689" on="0"/>
        <pt x="279" y="744" on="0"/>
        <pt x="347" y="744" on="1"/>
        <pt x="401" y="744" on="0"/>
        <pt x="496" y="711" on="0"/>
        <pt x="534" y="685" on="1"/>
        <pt x="474" y="560" on="1"/>
        <pt x="445" y="579" on="0"/>
        <pt x="385" y="602" on="0"/>
        <pt x="352" y="602" on="1"/>
        <pt x="277" y="602" on="0"/>
        <pt x="196" y="473" on="0"/>
        <pt x="196" y="365" on="1"/>
        <pt x="196" y="306" on="0"/>
        <pt x="219" y="215" on="0"/>
        <pt x="259" y="153" on="0"/>
        <pt x="315" y="122" on="0"/>
        <pt x="347" y="122" on="1"/>
        <pt x="385" y="122" on="0"/>
        <pt x="405" y="132" on="1"/>
        <pt x="405" y="288" on="1"/>
        <pt x="307" y="288" on="1"/>
        <pt x="307" y="421" on="1"/>
      </contour>
    </TTGlyph>
    <TTGlyph name="G.alt" xMin="37" yMin="-12" xMax="605" yMax="744">
      <contour>
        <pt x="597" y="421" on="1"/>
        <pt x="605" y="310" on="0"/>
        <pt x="569" y="146" on="0"/>
        <pt x="495" y="40" on="0"/>
        <pt x="390" y="-12" on="0"/>
        <pt x="329" y="-12" on="1"/>
        <pt x="265" y="-12" on="0"/>
        <pt x="158" y="39" on="0"/>
        <pt x="80" y="135" on="0"/>
        <pt x="37" y="275" on="0"/>
        <pt x="37" y="364" on="1"/>
        <pt x="37" y="449" on="0"/>
        <pt x="82" y="589" on="0"/>
        <pt x="162" y="689" on="0"/>
        <pt x="274" y="744" on="0"/>
        <pt x="341" y="744" on="1"/>
        <pt x="404" y="744" on="0"/>
        <pt x="506" y="697" on="0"/>
        <pt x="545" y="663" on="1"/>
        <pt x="469" y="545" on="1"/>
        <pt x="440" y="571" on="0"/>
        <pt x="380" y="602" on="0"/>
        <pt x="345" y="602" on="1"/>
        <pt x="271" y="602" on="0"/>
        <pt x="196" y="473" on="0"/>
        <pt x="196" y="365" on="1"/>
        <pt x="196" y="306" on="0"/>
        <pt x="217" y="217" on="0"/>
        <pt x="253" y="158" on="0"/>
        <pt x="301" y="128" on="0"/>
        <pt x="328" y="128" on="1"/>
        <pt x="382" y="128" on="0"/>
        <pt x="441" y="203" on="0"/>
        <pt x="446" y="288" on="1"/>
        <pt x="307" y="288" on="1"/>
        <pt x="307" y="421" on="1"/>
      </contour>
    </TTGlyph>
    <TTGlyph name="Gbreve" xMin="37" yMin="-11" xMax="546" yMax="946">
      <component glyphName="G" x="0" y="0" flags="0x204"/>
      <component glyphName="breve" x="105" y="290" flags="0x4"/>
    </TTGlyph>
    <TTGlyph name="Gbreve.alt" xMin="37" yMin="-12" xMax="605" yMax="946">
      <component glyphName="G.alt" x="0" y="0" flags="0x204"/>
      <component glyphName="breve" x="115" y="290" flags="0x4"/>
    </TTGlyph>
    <TTGlyph name="Gcommaaccent" xMin="37" yMin="-330" xMax="546" yMax="744">
      <component glyphName="commaaccent" x="230" y="0" flags="0x4"/>
      <component glyphName="G" x="0" y="0" flags="0x4"/>
    </TTGlyph>
    <TTGlyph name="Gcommaaccent.alt" xMin="37" yMin="-330" xMax="605" yMax="744">
      <component glyphName="commaaccent" x="240" y="0" flags="0x4"/>
      <component glyphName="G.alt" x="0" y="0" flags="0x4"/>
    </TTGlyph>
    <TTGlyph name="Gdotaccent" xMin="37" yMin="-11" xMax="546" yMax="932">
      <component glyphName="G" x="0" y="0" flags="0x204"/>
      <component glyphName="dotaccent" x="117" y="290" flags="0x4"/>
    </TTGlyph>
    <TTGlyph name="Gdotaccent.alt" xMin="37" yMin="-12" xMax="605" yMax="932">
      <component glyphName="G.alt" x="0" y="0" flags="0x204"/>
      <component glyphName="dotaccent" x="127" y="290" flags="0x4"/>
    </TTGlyph>
    <TTGlyph name="H" xMin="59" yMin="0" xMax="551" yMax="733">
      <contour>
        <pt x="399" y="0" on="1"/>
        <pt x="399" y="301" on="1"/>
        <pt x="211" y="301" on="1"/>
        <pt x="211" y="0" on="1"/>
        <pt x="59" y="0" on="1"/>
        <pt x="59" y="733" on="1"/>
        <pt x="211" y="733" on="1"/>
        <pt x="211" y="440" on="1"/>
        <pt x="399" y="440" on="1"/>
        <pt x="399" y="733" on="1"/>
        <pt x="551" y="733" on="1"/>
        <pt x="551" y="0" on="1"/>
      </contour>
    </TTGlyph>
    <TTGlyph name="Hbar" xMin="2" yMin="0" xMax="607" yMax="733">
      <contour>
        <pt x="399" y="0" on="1"/>
        <pt x="399" y="281" on="1"/>
        <pt x="211" y="281" on="1"/>
        <pt x="211" y="0" on="1"/>
        <pt x="59" y="0" on="1"/>
        <pt x="59" y="530" on="1"/>
        <pt x="2" y="530" on="1"/>
        <pt x="2" y="624" on="1"/>
        <pt x="59" y="624" on="1"/>
        <pt x="59" y="733" on="1"/>
        <pt x="211" y="733" on="1"/>
        <pt x="211" y="624" on="1"/>
        <pt x="399" y="624" on="1"/>
        <pt x="399" y="733" on="1"/>
        <pt x="551" y="733" on="1"/>
        <pt x="551" y="624" on="1"/>
        <pt x="607" y="624" on="1"/>
        <pt x="607" y="530" on="1"/>
        <pt x="551" y="530" on="1"/>
        <pt x="551" y="0" on="1"/>
      </contour>
      <contour>
        <pt x="399" y="420" on="1"/>
        <pt x="399" y="530" on="1"/>
        <pt x="211" y="530" on="1"/>
        <pt x="211" y="420" on="1"/>
      </contour>
    </TTGlyph>
    <TTGlyph name="I" xMin="61" yMin="0" xMax="213" yMax="733">
      <contour>
        <pt x="61" y="0" on="1"/>
        <pt x="61" y="733" on="1"/>
        <pt x="213" y="733" on="1"/>
        <pt x="213" y="0" on="1"/>
      </contour>
    </TTGlyph>
    <TTGlyph name="Iacute" xMin="61" yMin="0" xMax="304" yMax="995">
      <component glyphName="I" x="0" y="0" flags="0x204"/>
      <component glyphName="acute" x="-21" y="297" flags="0x4"/>
    </TTGlyph>
    <TTGlyph name="Ibreve" xMin="-10" yMin="0" xMax="287" yMax="946">
      <component glyphName="I" x="0" y="0" flags="0x204"/>
      <component glyphName="breve" x="-83" y="290" flags="0x4"/>
    </TTGlyph>
    <TTGlyph name="Icircumflex" xMin="-23" yMin="0" xMax="301" yMax="965">
      <component glyphName="I" x="0" y="0" flags="0x204"/>
      <component glyphName="circumflex" x="-84" y="290" flags="0x4"/>
    </TTGlyph>
    <TTGlyph name="Idieresis" xMin="-17" yMin="0" xMax="294" yMax="932">
      <component glyphName="I" x="0" y="0" flags="0x204"/>
      <component glyphName="dieresis" x="-83" y="290" flags="0x4"/>
    </TTGlyph>
    <TTGlyph name="Idotaccent" xMin="61" yMin="0" xMax="213" yMax="932">
      <component glyphName="I" x="0" y="0" flags="0x204"/>
      <component glyphName="dotaccent" x="-70" y="290" flags="0x4"/>
    </TTGlyph>
    <TTGlyph name="Igrave" xMin="-38" yMin="0" xMax="213" yMax="990">
      <component glyphName="I" x="0" y="0" flags="0x204"/>
      <component glyphName="grave" x="-159" y="290" flags="0x4"/>
    </TTGlyph>
    <TTGlyph name="Imacron" xMin="10" yMin="0" xMax="268" yMax="895">
      <component glyphName="I" x="0" y="0" flags="0x204"/>
      <component glyphName="macron" x="-82" y="290" flags="0x4"/>
    </TTGlyph>
    <TTGlyph name="Iogonek" xMin="42" yMin="-209" xMax="232" yMax="733">
      <contour>
        <pt x="232" y="-166" on="1"/>
        <pt x="215" y="-183" on="0"/>
        <pt x="162" y="-209" on="0"/>
        <pt x="127" y="-209" on="1"/>
        <pt x="85" y="-209" on="0"/>
        <pt x="42" y="-162" on="0"/>
        <pt x="42" y="-125" on="1"/>
        <pt x="42" y="-93" on="0"/>
        <pt x="73" y="-35" on="0"/>
        <pt x="101" y="0" on="1"/>
        <pt x="61" y="0" on="1"/>
        <pt x="61" y="733" on="1"/>
        <pt x="213" y="733" on="1"/>
        <pt x="213" y="0" on="1"/>
        <pt x="178" y="0" on="1"/>
        <pt x="153" y="-34" on="0"/>
        <pt x="131" y="-78" on="0"/>
        <pt x="131" y="-98" on="1"/>
        <pt x="131" y="-114" on="0"/>
        <pt x="150" y="-132" on="0"/>
        <pt x="165" y="-132" on="1"/>
        <pt x="177" y="-132" on="0"/>
        <pt x="198" y="-123" on="0"/>
        <pt x="206" y="-117" on="1"/>
      </contour>
    </TTGlyph>
    <TTGlyph name="J" xMin="4" yMin="-11" xMax="377" yMax="733">
      <contour>
        <pt x="377" y="205" on="1"/>
        <pt x="377" y="155" on="0"/>
        <pt x="355" y="75" on="0"/>
        <pt x="305" y="19" on="0"/>
        <pt x="227" y="-11" on="0"/>
        <pt x="170" y="-11" on="1"/>
        <pt x="83" y="-11" on="0"/>
        <pt x="4" y="37" on="1"/>
        <pt x="57" y="163" on="1"/>
        <pt x="83" y="147" on="0"/>
        <pt x="136" y="129" on="0"/>
        <pt x="161" y="129" on="1"/>
        <pt x="225" y="129" on="0"/>
        <pt x="225" y="206" on="1"/>
        <pt x="225" y="733" on="1"/>
        <pt x="377" y="733" on="1"/>
      </contour>
    </TTGlyph>
    <TTGlyph name="K" xMin="59" yMin="0" xMax="570" yMax="733">
      <contour>
        <pt x="397" y="0" on="1"/>
        <pt x="211" y="346" on="1"/>
        <pt x="211" y="0" on="1"/>
        <pt x="59" y="0" on="1"/>
        <pt x="59" y="733" on="1"/>
        <pt x="211" y="733" on="1"/>
        <pt x="211" y="409" on="1"/>
        <pt x="387" y="733" on="1"/>
        <pt x="557" y="733" on="1"/>
        <pt x="348" y="383" on="1"/>
        <pt x="570" y="0" on="1"/>
      </contour>
    </TTGlyph>
    <TTGlyph name="Kcommaaccent" xMin="59" yMin="-326" xMax="570" yMax="733">
      <component glyphName="commaaccent" x="200" y="4" flags="0x4"/>
      <component glyphName="K" x="0" y="0" flags="0x4"/>
    </TTGlyph>
    <TTGlyph name="L" xMin="59" yMin="0" xMax="426" yMax="733">
      <contour>
        <pt x="59" y="0" on="1"/>
        <pt x="59" y="733" on="1"/>
        <pt x="211" y="733" on="1"/>
        <pt x="211" y="139" on="1"/>
        <pt x="426" y="139" on="1"/>
        <pt x="426" y="0" on="1"/>
      </contour>
    </TTGlyph>
    <TTGlyph name="Lacute" xMin="59" yMin="0" xMax="426" yMax="995">
      <component glyphName="acute" x="1" y="297" flags="0x4"/>
      <component glyphName="L" x="0" y="0" flags="0x4"/>
    </TTGlyph>
    <TTGlyph name="Lcaron" xMin="59" yMin="0" xMax="426" yMax="733">
      <component glyphName="caron.alt" x="209" y="-7" flags="0x4"/>
      <component glyphName="L" x="0" y="0" flags="0x4"/>
    </TTGlyph>
    <TTGlyph name="Lcommaaccent" xMin="59" yMin="-330" xMax="426" yMax="733">
      <component glyphName="commaaccent" x="146" y="0" flags="0x4"/>
      <component glyphName="L" x="0" y="0" flags="0x4"/>
    </TTGlyph>
    <TTGlyph name="Ldot" xMin="59" yMin="0" xMax="426" yMax="733">
      <component glyphName="L" x="0" y="0" flags="0x204"/>
      <component glyphName="dotaccent" x="147" y="-193" flags="0x4"/>
    </TTGlyph>
    <TTGlyph name="Lslash" xMin="12" yMin="0" xMax="437" yMax="733">
      <contour>
        <pt x="70" y="0" on="1"/>
        <pt x="70" y="244" on="1"/>
        <pt x="12" y="217" on="1"/>
        <pt x="12" y="346" on="1"/>
        <pt x="70" y="373" on="1"/>
        <pt x="70" y="733" on="1"/>
        <pt x="222" y="733" on="1"/>
        <pt x="222" y="443" on="1"/>
        <pt x="323" y="489" on="1"/>
        <pt x="323" y="360" on="1"/>
        <pt x="222" y="313" on="1"/>
        <pt x="222" y="139" on="1"/>
        <pt x="437" y="139" on="1"/>
        <pt x="437" y="0" on="1"/>
      </contour>
    </TTGlyph>
    <TTGlyph name="M" xMin="52" yMin="0" xMax="665" yMax="737">
      <contour>
        <pt x="518" y="0" on="1"/>
        <pt x="510" y="360" on="1"/>
        <pt x="371" y="118" on="1"/>
        <pt x="347" y="118" on="1"/>
        <pt x="204" y="360" on="1"/>
        <pt x="198" y="0" on="1"/>
        <pt x="52" y="0" on="1"/>
        <pt x="76" y="735" on="1"/>
        <pt x="128" y="737" on="1"/>
        <pt x="362" y="352" on="1"/>
        <pt x="588" y="737" on="1"/>
        <pt x="640" y="735" on="1"/>
        <pt x="665" y="0" on="1"/>
      </contour>
    </TTGlyph>
    <TTGlyph name="M.alt" xMin="52" yMin="0" xMax="665" yMax="737">
      <contour>
        <pt x="518" y="0" on="1"/>
        <pt x="510" y="360" on="1"/>
        <pt x="371" y="118" on="1"/>
        <pt x="347" y="118" on="1"/>
        <pt x="204" y="360" on="1"/>
        <pt x="198" y="0" on="1"/>
        <pt x="52" y="0" on="1"/>
        <pt x="76" y="735" on="1"/>
        <pt x="128" y="737" on="1"/>
        <pt x="362" y="352" on="1"/>
        <pt x="588" y="737" on="1"/>
        <pt x="640" y="735" on="1"/>
        <pt x="665" y="0" on="1"/>
      </contour>
    </TTGlyph>
    <TTGlyph name="N" xMin="59" yMin="-7" xMax="554" yMax="740">
      <contour>
        <pt x="507" y="-7" on="1"/>
        <pt x="208" y="376" on="1"/>
        <pt x="208" y="0" on="1"/>
        <pt x="59" y="0" on="1"/>
        <pt x="59" y="737" on="1"/>
        <pt x="108" y="740" on="1"/>
        <pt x="404" y="366" on="1"/>
        <pt x="404" y="733" on="1"/>
        <pt x="554" y="733" on="1"/>
        <pt x="554" y="-4" on="1"/>
      </contour>
    </TTGlyph>
    <TTGlyph name="Nacute" xMin="59" yMin="-7" xMax="554" yMax="988">
      <component glyphName="acute" x="147" y="290" flags="0x4"/>
      <component glyphName="N" x="0" y="0" flags="0x4"/>
    </TTGlyph>
    <TTGlyph name="Ncaron" xMin="59" yMin="-7" xMax="554" yMax="961">
      <component glyphName="caron" x="86" y="290" flags="0x4"/>
      <component glyphName="N" x="0" y="0" flags="0x4"/>
    </TTGlyph>
    <TTGlyph name="Ncommaaccent" xMin="59" yMin="-326" xMax="554" yMax="740">
      <component glyphName="commaaccent" x="209" y="4" flags="0x4"/>
      <component glyphName="N" x="0" y="0" flags="0x4"/>
    </TTGlyph>
    <TTGlyph name="Ntilde" xMin="59" yMin="-7" xMax="554" yMax="931">
      <component glyphName="N" x="0" y="0" flags="0x204"/>
      <component glyphName="tilde" x="84" y="290" flags="0x4"/>
    </TTGlyph>
    <TTGlyph name="O" xMin="37" yMin="-11" xMax="606" yMax="744">
      <contour>
        <pt x="606" y="368" on="1"/>
        <pt x="606" y="283" on="0"/>
        <pt x="565" y="143" on="0"/>
        <pt x="490" y="44" on="0"/>
        <pt x="384" y="-11" on="0"/>
        <pt x="318" y="-11" on="1"/>
        <pt x="253" y="-11" on="0"/>
        <pt x="149" y="43" on="0"/>
        <pt x="76" y="142" on="0"/>
        <pt x="37" y="281" on="0"/>
        <pt x="37" y="366" on="1"/>
        <pt x="37" y="451" on="0"/>
        <pt x="77" y="591" on="0"/>
        <pt x="152" y="690" on="0"/>
        <pt x="259" y="744" on="0"/>
        <pt x="325" y="744" on="1"/>
        <pt x="390" y="744" on="0"/>
        <pt x="494" y="691" on="0"/>
        <pt x="567" y="592" on="0"/>
        <pt x="606" y="453" on="0"/>
      </contour>
      <contour>
        <pt x="447" y="367" on="1"/>
        <pt x="447" y="482" on="0"/>
        <pt x="381" y="610" on="0"/>
        <pt x="321" y="610" on="1"/>
        <pt x="261" y="610" on="0"/>
        <pt x="196" y="482" on="0"/>
        <pt x="196" y="367" on="1"/>
        <pt x="196" y="253" on="0"/>
        <pt x="261" y="122" on="0"/>
        <pt x="321" y="122" on="1"/>
        <pt x="381" y="122" on="0"/>
        <pt x="447" y="253" on="0"/>
      </contour>
    </TTGlyph>
    <TTGlyph name="OE" xMin="37" yMin="-4" xMax="779" yMax="737">
      <contour>
        <pt x="502" y="0" on="1"/>
        <pt x="475" y="-2" on="0"/>
        <pt x="418" y="-4" on="0"/>
        <pt x="392" y="-4" on="1"/>
        <pt x="308" y="-4" on="0"/>
        <pt x="176" y="46" on="0"/>
        <pt x="85" y="141" on="0"/>
        <pt x="37" y="276" on="0"/>
        <pt x="37" y="361" on="1"/>
        <pt x="37" y="448" on="0"/>
        <pt x="84" y="587" on="0"/>
        <pt x="174" y="684" on="0"/>
        <pt x="305" y="737" on="0"/>
        <pt x="389" y="737" on="1"/>
        <pt x="417" y="737" on="0"/>
        <pt x="474" y="735" on="0"/>
        <pt x="497" y="733" on="1"/>
        <pt x="779" y="733" on="1"/>
        <pt x="779" y="593" on="1"/>
        <pt x="551" y="593" on="1"/>
        <pt x="551" y="442" on="1"/>
        <pt x="753" y="442" on="1"/>
        <pt x="753" y="308" on="1"/>
        <pt x="551" y="308" on="1"/>
        <pt x="551" y="140" on="1"/>
        <pt x="779" y="140" on="1"/>
        <pt x="779" y="0" on="1"/>
      </contour>
      <contour>
        <pt x="399" y="599" on="1"/>
        <pt x="388" y="601" on="0"/>
        <pt x="371" y="602" on="0"/>
        <pt x="356" y="602" on="1"/>
        <pt x="320" y="602" on="0"/>
        <pt x="261" y="568" on="0"/>
        <pt x="219" y="505" on="0"/>
        <pt x="196" y="416" on="0"/>
        <pt x="196" y="361" on="1"/>
        <pt x="196" y="308" on="0"/>
        <pt x="221" y="223" on="0"/>
        <pt x="264" y="164" on="0"/>
        <pt x="325" y="132" on="0"/>
        <pt x="361" y="132" on="1"/>
        <pt x="372" y="132" on="0"/>
        <pt x="388" y="133" on="0"/>
        <pt x="399" y="135" on="1"/>
      </contour>
    </TTGlyph>
    <TTGlyph name="Oacute" xMin="37" yMin="-11" xMax="606" yMax="988">
      <component glyphName="acute" x="162" y="290" flags="0x4"/>
      <component glyphName="O" x="0" y="0" flags="0x4"/>
    </TTGlyph>
    <TTGlyph name="Obreve" xMin="37" yMin="-11" xMax="606" yMax="946">
      <component glyphName="O" x="0" y="0" flags="0x204"/>
      <component glyphName="breve" x="99" y="290" flags="0x4"/>
    </TTGlyph>
    <TTGlyph name="Ocircumflex" xMin="37" yMin="-11" xMax="606" yMax="965">
      <component glyphName="circumflex" x="98" y="290" flags="0x4"/>
      <component glyphName="O" x="0" y="0" flags="0x4"/>
    </TTGlyph>
    <TTGlyph name="Odieresis" xMin="37" yMin="-11" xMax="606" yMax="932">
      <component glyphName="dieresis" x="99" y="290" flags="0x4"/>
      <component glyphName="O" x="0" y="0" flags="0x4"/>
    </TTGlyph>
    <TTGlyph name="Ograve" xMin="37" yMin="-11" xMax="606" yMax="990">
      <component glyphName="O" x="0" y="0" flags="0x204"/>
      <component glyphName="grave" x="24" y="290" flags="0x4"/>
    </TTGlyph>
    <TTGlyph name="Ohungarumlaut" xMin="37" yMin="-11" xMax="606" yMax="1021">
      <component glyphName="hungarumlaut" x="146" y="290" flags="0x4"/>
      <component glyphName="O" x="0" y="0" flags="0x4"/>
    </TTGlyph>
    <TTGlyph name="Omacron" xMin="37" yMin="-11" xMax="606" yMax="895">
      <component glyphName="macron" x="100" y="290" flags="0x4"/>
      <component glyphName="O" x="0" y="0" flags="0x4"/>
    </TTGlyph>
    <TTGlyph name="Oslash" xMin="32" yMin="-11" xMax="606" yMax="744">
      <contour>
        <pt x="606" y="368" on="1"/>
        <pt x="606" y="283" on="0"/>
        <pt x="565" y="143" on="0"/>
        <pt x="490" y="44" on="0"/>
        <pt x="384" y="-11" on="0"/>
        <pt x="318" y="-11" on="1"/>
        <pt x="266" y="-11" on="0"/>
        <pt x="180" y="22" on="0"/>
        <pt x="146" y="54" on="1"/>
        <pt x="98" y="-9" on="1"/>
        <pt x="32" y="42" on="1"/>
        <pt x="90" y="123" on="1"/>
        <pt x="64" y="170" on="0"/>
        <pt x="37" y="292" on="0"/>
        <pt x="37" y="366" on="1"/>
        <pt x="37" y="451" on="0"/>
        <pt x="77" y="591" on="0"/>
        <pt x="152" y="690" on="0"/>
        <pt x="259" y="744" on="0"/>
        <pt x="325" y="744" on="1"/>
        <pt x="425" y="744" on="0"/>
        <pt x="494" y="683" on="1"/>
        <pt x="540" y="741" on="1"/>
        <pt x="605" y="691" on="1"/>
        <pt x="550" y="615" on="1"/>
        <pt x="577" y="568" on="0"/>
        <pt x="606" y="444" on="0"/>
      </contour>
      <contour>
        <pt x="447" y="367" on="1"/>
        <pt x="447" y="394" on="0"/>
        <pt x="443" y="442" on="0"/>
        <pt x="439" y="463" on="1"/>
        <pt x="241" y="176" on="1"/>
        <pt x="255" y="150" on="0"/>
        <pt x="296" y="122" on="0"/>
        <pt x="321" y="122" on="1"/>
        <pt x="381" y="122" on="0"/>
        <pt x="447" y="253" on="0"/>
      </contour>
      <contour>
        <pt x="400" y="563" on="1"/>
        <pt x="370" y="610" on="0"/>
        <pt x="321" y="610" on="1"/>
        <pt x="261" y="610" on="0"/>
        <pt x="196" y="482" on="0"/>
        <pt x="196" y="367" on="1"/>
        <pt x="196" y="320" on="0"/>
        <pt x="202" y="281" on="1"/>
      </contour>
    </TTGlyph>
    <TTGlyph name="Oslashacute" xMin="32" yMin="-11" xMax="606" yMax="988">
      <component glyphName="Oslash" x="0" y="0" flags="0x204"/>
      <component glyphName="acute" x="162" y="290" flags="0x4"/>
    </TTGlyph>
    <TTGlyph name="Otilde" xMin="37" yMin="-11" xMax="606" yMax="931">
      <component glyphName="O" x="0" y="0" flags="0x204"/>
      <component glyphName="tilde" x="99" y="290" flags="0x4"/>
    </TTGlyph>
    <TTGlyph name="P" xMin="59" yMin="0" xMax="501" yMax="739">
      <contour>
        <pt x="501" y="484" on="1"/>
        <pt x="501" y="433" on="0"/>
        <pt x="469" y="340" on="0"/>
        <pt x="405" y="270" on="0"/>
        <pt x="310" y="228" on="0"/>
        <pt x="247" y="228" on="1"/>
        <pt x="236" y="228" on="0"/>
        <pt x="220" y="228" on="0"/>
        <pt x="211" y="229" on="1"/>
        <pt x="211" y="0" on="1"/>
        <pt x="59" y="0" on="1"/>
        <pt x="59" y="728" on="1"/>
        <pt x="97" y="733" on="0"/>
        <pt x="175" y="739" on="0"/>
        <pt x="217" y="739" on="1"/>
        <pt x="289" y="739" on="0"/>
        <pt x="396" y="700" on="0"/>
        <pt x="466" y="631" on="0"/>
        <pt x="501" y="538" on="0"/>
      </contour>
      <contour>
        <pt x="348" y="481" on="1"/>
        <pt x="348" y="538" on="0"/>
        <pt x="294" y="598" on="0"/>
        <pt x="246" y="598" on="1"/>
        <pt x="237" y="598" on="0"/>
        <pt x="222" y="597" on="0"/>
        <pt x="211" y="596" on="1"/>
        <pt x="211" y="362" on="1"/>
        <pt x="220" y="361" on="0"/>
        <pt x="233" y="360" on="0"/>
        <pt x="241" y="360" on="1"/>
        <pt x="291" y="360" on="0"/>
        <pt x="348" y="421" on="0"/>
      </contour>
    </TTGlyph>
    <TTGlyph name="Q" xMin="37" yMin="-26" xMax="626" yMax="744">
      <contour>
        <pt x="540" y="-26" on="1"/>
        <pt x="474" y="41" on="1"/>
        <pt x="407" y="-11" on="0"/>
        <pt x="318" y="-11" on="1"/>
        <pt x="253" y="-11" on="0"/>
        <pt x="149" y="43" on="0"/>
        <pt x="76" y="142" on="0"/>
        <pt x="37" y="281" on="0"/>
        <pt x="37" y="366" on="1"/>
        <pt x="37" y="451" on="0"/>
        <pt x="77" y="591" on="0"/>
        <pt x="152" y="690" on="0"/>
        <pt x="259" y="744" on="0"/>
        <pt x="325" y="744" on="1"/>
        <pt x="390" y="744" on="0"/>
        <pt x="494" y="691" on="0"/>
        <pt x="567" y="592" on="0"/>
        <pt x="606" y="453" on="0"/>
        <pt x="606" y="368" on="1"/>
        <pt x="606" y="302" on="0"/>
        <pt x="580" y="188" on="0"/>
        <pt x="557" y="141" on="1"/>
        <pt x="591" y="109" on="1"/>
        <pt x="606" y="95" on="0"/>
        <pt x="626" y="77" on="1"/>
      </contour>
      <contour>
        <pt x="448" y="361" on="1"/>
        <pt x="448" y="479" on="0"/>
        <pt x="381" y="610" on="0"/>
        <pt x="322" y="610" on="1"/>
        <pt x="262" y="610" on="0"/>
        <pt x="196" y="482" on="0"/>
        <pt x="196" y="367" on="1"/>
        <pt x="196" y="251" on="0"/>
        <pt x="262" y="122" on="0"/>
        <pt x="325" y="122" on="1"/>
        <pt x="354" y="122" on="0"/>
        <pt x="377" y="137" on="1"/>
        <pt x="291" y="219" on="1"/>
        <pt x="369" y="324" on="1"/>
        <pt x="439" y="253" on="1"/>
        <pt x="443" y="276" on="0"/>
        <pt x="448" y="329" on="0"/>
      </contour>
    </TTGlyph>
    <TTGlyph name="R" xMin="59" yMin="0" xMax="530" yMax="739">
      <contour>
        <pt x="364" y="0" on="1"/>
        <pt x="272" y="252" on="1"/>
        <pt x="267" y="251" on="0"/>
        <pt x="255" y="251" on="0"/>
        <pt x="250" y="251" on="1"/>
        <pt x="239" y="251" on="0"/>
        <pt x="221" y="252" on="0"/>
        <pt x="211" y="253" on="1"/>
        <pt x="211" y="0" on="1"/>
        <pt x="59" y="0" on="1"/>
        <pt x="59" y="728" on="1"/>
        <pt x="93" y="733" on="0"/>
        <pt x="178" y="739" on="0"/>
        <pt x="227" y="739" on="1"/>
        <pt x="300" y="739" on="0"/>
        <pt x="406" y="701" on="0"/>
        <pt x="474" y="636" on="0"/>
        <pt x="507" y="549" on="0"/>
        <pt x="507" y="501" on="1"/>
        <pt x="507" y="432" on="0"/>
        <pt x="454" y="332" on="0"/>
        <pt x="402" y="297" on="1"/>
        <pt x="530" y="0" on="1"/>
      </contour>
      <contour>
        <pt x="352" y="492" on="1"/>
        <pt x="352" y="543" on="0"/>
        <pt x="300" y="601" on="0"/>
        <pt x="249" y="601" on="1"/>
        <pt x="238" y="601" on="0"/>
        <pt x="222" y="600" on="0"/>
        <pt x="211" y="598" on="1"/>
        <pt x="211" y="377" on="1"/>
        <pt x="221" y="375" on="0"/>
        <pt x="233" y="375" on="0"/>
        <pt x="243" y="375" on="1"/>
        <pt x="295" y="375" on="0"/>
        <pt x="352" y="433" on="0"/>
      </contour>
    </TTGlyph>
    <TTGlyph name="Racute" xMin="59" yMin="0" xMax="530" yMax="988">
      <component glyphName="acute" x="112" y="290" flags="0x4"/>
      <component glyphName="R" x="0" y="0" flags="0x4"/>
    </TTGlyph>
    <TTGlyph name="Rcaron" xMin="59" yMin="0" xMax="530" yMax="961">
      <component glyphName="caron" x="51" y="290" flags="0x4"/>
      <component glyphName="R" x="0" y="0" flags="0x4"/>
    </TTGlyph>
    <TTGlyph name="Rcommaaccent" xMin="59" yMin="-326" xMax="530" yMax="739">
      <component glyphName="commaaccent" x="175" y="4" flags="0x4"/>
      <component glyphName="R" x="0" y="0" flags="0x4"/>
    </TTGlyph>
    <TTGlyph name="S" xMin="18" yMin="-11" xMax="445" yMax="744">
      <contour>
        <pt x="445" y="203" on="1"/>
        <pt x="445" y="160" on="0"/>
        <pt x="418" y="83" on="0"/>
        <pt x="363" y="24" on="0"/>
        <pt x="281" y="-11" on="0"/>
        <pt x="227" y="-11" on="1"/>
        <pt x="176" y="-11" on="0"/>
        <pt x="63" y="25" on="0"/>
        <pt x="18" y="56" on="1"/>
        <pt x="63" y="194" on="1"/>
        <pt x="100" y="166" on="0"/>
        <pt x="182" y="131" on="0"/>
        <pt x="223" y="131" on="1"/>
        <pt x="259" y="131" on="0"/>
        <pt x="291" y="166" on="0"/>
        <pt x="291" y="193" on="1"/>
        <pt x="291" y="207" on="0"/>
        <pt x="282" y="233" on="0"/>
        <pt x="258" y="263" on="0"/>
        <pt x="215" y="300" on="0"/>
        <pt x="181" y="324" on="1"/>
        <pt x="104" y="377" on="0"/>
        <pt x="37" y="480" on="0"/>
        <pt x="37" y="541" on="1"/>
        <pt x="37" y="580" on="0"/>
        <pt x="66" y="653" on="0"/>
        <pt x="122" y="710" on="0"/>
        <pt x="203" y="744" on="0"/>
        <pt x="255" y="744" on="1"/>
        <pt x="308" y="744" on="0"/>
        <pt x="394" y="717" on="0"/>
        <pt x="430" y="694" on="1"/>
        <pt x="385" y="557" on="1"/>
        <pt x="354" y="579" on="0"/>
        <pt x="291" y="606" on="0"/>
        <pt x="260" y="606" on="1"/>
        <pt x="225" y="606" on="0"/>
        <pt x="190" y="573" on="0"/>
        <pt x="190" y="548" on="1"/>
        <pt x="190" y="533" on="0"/>
        <pt x="201" y="508" on="0"/>
        <pt x="226" y="483" on="0"/>
        <pt x="266" y="452" on="0"/>
        <pt x="296" y="430" on="1"/>
        <pt x="338" y="400" on="0"/>
        <pt x="395" y="346" on="0"/>
        <pt x="430" y="292" on="0"/>
        <pt x="445" y="235" on="0"/>
      </contour>
    </TTGlyph>
    <TTGlyph name="Sacute" xMin="18" yMin="-11" xMax="445" yMax="988">
      <component glyphName="acute" x="79" y="290" flags="0x4"/>
      <component glyphName="S" x="0" y="0" flags="0x4"/>
    </TTGlyph>
    <TTGlyph name="Scaron" xMin="18" yMin="-11" xMax="445" yMax="961">
      <component glyphName="caron" x="18" y="290" flags="0x4"/>
      <component glyphName="S" x="0" y="0" flags="0x4"/>
    </TTGlyph>
    <TTGlyph name="Scedilla" xMin="18" yMin="-226" xMax="445" yMax="744">
      <contour>
        <pt x="341" y="-128" on="1"/>
        <pt x="341" y="-167" on="0"/>
        <pt x="284" y="-226" on="0"/>
        <pt x="228" y="-226" on="1"/>
        <pt x="200" y="-226" on="0"/>
        <pt x="144" y="-207" on="0"/>
        <pt x="115" y="-190" on="1"/>
        <pt x="143" y="-122" on="1"/>
        <pt x="194" y="-156" on="0"/>
        <pt x="234" y="-156" on="1"/>
        <pt x="247" y="-156" on="0"/>
        <pt x="262" y="-144" on="0"/>
        <pt x="262" y="-129" on="1"/>
        <pt x="262" y="-118" on="0"/>
        <pt x="227" y="-98" on="0"/>
        <pt x="177" y="-98" on="1"/>
        <pt x="174" y="-89" on="1"/>
        <pt x="195" y="-9" on="1"/>
        <pt x="149" y="-4" on="0"/>
        <pt x="56" y="30" on="0"/>
        <pt x="18" y="56" on="1"/>
        <pt x="63" y="194" on="1"/>
        <pt x="100" y="166" on="0"/>
        <pt x="182" y="131" on="0"/>
        <pt x="223" y="131" on="1"/>
        <pt x="259" y="131" on="0"/>
        <pt x="291" y="166" on="0"/>
        <pt x="291" y="193" on="1"/>
        <pt x="291" y="207" on="0"/>
        <pt x="282" y="233" on="0"/>
        <pt x="258" y="263" on="0"/>
        <pt x="215" y="300" on="0"/>
        <pt x="181" y="324" on="1"/>
        <pt x="104" y="377" on="0"/>
        <pt x="37" y="480" on="0"/>
        <pt x="37" y="541" on="1"/>
        <pt x="37" y="580" on="0"/>
        <pt x="66" y="653" on="0"/>
        <pt x="122" y="710" on="0"/>
        <pt x="203" y="744" on="0"/>
        <pt x="255" y="744" on="1"/>
        <pt x="308" y="744" on="0"/>
        <pt x="394" y="717" on="0"/>
        <pt x="430" y="694" on="1"/>
        <pt x="385" y="557" on="1"/>
        <pt x="354" y="579" on="0"/>
        <pt x="291" y="606" on="0"/>
        <pt x="260" y="606" on="1"/>
        <pt x="225" y="606" on="0"/>
        <pt x="190" y="573" on="0"/>
        <pt x="190" y="548" on="1"/>
        <pt x="190" y="533" on="0"/>
        <pt x="201" y="508" on="0"/>
        <pt x="226" y="483" on="0"/>
        <pt x="266" y="452" on="0"/>
        <pt x="296" y="430" on="1"/>
        <pt x="338" y="400" on="0"/>
        <pt x="395" y="346" on="0"/>
        <pt x="430" y="292" on="0"/>
        <pt x="445" y="235" on="0"/>
        <pt x="445" y="203" on="1"/>
        <pt x="445" y="162" on="0"/>
        <pt x="420" y="88" on="0"/>
        <pt x="370" y="30" on="0"/>
        <pt x="295" y="-7" on="0"/>
        <pt x="246" y="-10" on="1"/>
        <pt x="240" y="-37" on="1"/>
        <pt x="295" y="-49" on="0"/>
        <pt x="341" y="-96" on="0"/>
      </contour>
    </TTGlyph>
    <TTGlyph name="Scommaaccent" xMin="18" yMin="-330" xMax="445" yMax="744">
      <component glyphName="commaaccent" x="141" y="0" flags="0x4"/>
      <component glyphName="S" x="0" y="0" flags="0x4"/>
    </TTGlyph>
    <TTGlyph name="T" xMin="19" yMin="0" xMax="488" yMax="733">
      <contour>
        <pt x="330" y="592" on="1"/>
        <pt x="330" y="0" on="1"/>
        <pt x="178" y="0" on="1"/>
        <pt x="178" y="592" on="1"/>
        <pt x="19" y="592" on="1"/>
        <pt x="19" y="733" on="1"/>
        <pt x="488" y="733" on="1"/>
        <pt x="488" y="592" on="1"/>
      </contour>
    </TTGlyph>
    <TTGlyph name="Tcaron" xMin="19" yMin="0" xMax="488" yMax="961">
      <component glyphName="caron" x="33" y="290" flags="0x4"/>
      <component glyphName="T" x="0" y="0" flags="0x4"/>
    </TTGlyph>
    <TTGlyph name="Tcommaaccent" xMin="19" yMin="-330" xMax="488" yMax="733">
      <component glyphName="commaaccent" x="157" y="0" flags="0x4"/>
      <component glyphName="T" x="0" y="0" flags="0x4"/>
    </TTGlyph>
    <TTGlyph name="Thorn" xMin="59" yMin="0" xMax="501" yMax="733">
      <contour>
        <pt x="501" y="371" on="1"/>
        <pt x="501" y="320" on="0"/>
        <pt x="469" y="227" on="0"/>
        <pt x="405" y="157" on="0"/>
        <pt x="310" y="115" on="0"/>
        <pt x="247" y="115" on="1"/>
        <pt x="236" y="115" on="0"/>
        <pt x="220" y="116" on="0"/>
        <pt x="211" y="117" on="1"/>
        <pt x="211" y="0" on="1"/>
        <pt x="59" y="0" on="1"/>
        <pt x="59" y="733" on="1"/>
        <pt x="211" y="733" on="1"/>
        <pt x="211" y="626" on="1"/>
        <pt x="226" y="626" on="1"/>
        <pt x="296" y="625" on="0"/>
        <pt x="399" y="585" on="0"/>
        <pt x="467" y="517" on="0"/>
        <pt x="501" y="425" on="0"/>
      </contour>
      <contour>
        <pt x="348" y="369" on="1"/>
        <pt x="348" y="425" on="0"/>
        <pt x="294" y="486" on="0"/>
        <pt x="246" y="486" on="1"/>
        <pt x="237" y="486" on="0"/>
        <pt x="222" y="485" on="0"/>
        <pt x="211" y="483" on="1"/>
        <pt x="211" y="250" on="1"/>
        <pt x="220" y="249" on="0"/>
        <pt x="233" y="248" on="0"/>
        <pt x="241" y="248" on="1"/>
        <pt x="291" y="248" on="0"/>
        <pt x="348" y="309" on="0"/>
      </contour>
    </TTGlyph>
    <TTGlyph name="U" xMin="54" yMin="-11" xMax="543" yMax="733">
      <contour>
        <pt x="543" y="240" on="1"/>
        <pt x="543" y="175" on="0"/>
        <pt x="507" y="81" on="0"/>
        <pt x="442" y="19" on="0"/>
        <pt x="351" y="-11" on="0"/>
        <pt x="295" y="-11" on="1"/>
        <pt x="240" y="-11" on="0"/>
        <pt x="151" y="20" on="0"/>
        <pt x="88" y="82" on="0"/>
        <pt x="54" y="176" on="0"/>
        <pt x="54" y="240" on="1"/>
        <pt x="54" y="733" on="1"/>
        <pt x="206" y="733" on="1"/>
        <pt x="206" y="239" on="1"/>
        <pt x="206" y="185" on="0"/>
        <pt x="252" y="126" on="0"/>
        <pt x="300" y="126" on="1"/>
        <pt x="347" y="126" on="0"/>
        <pt x="391" y="185" on="0"/>
        <pt x="391" y="239" on="1"/>
        <pt x="391" y="733" on="1"/>
        <pt x="543" y="733" on="1"/>
      </contour>
    </TTGlyph>
    <TTGlyph name="Uacute" xMin="54" yMin="-11" xMax="543" yMax="988">
      <component glyphName="acute" x="139" y="290" flags="0x4"/>
      <component glyphName="U" x="0" y="0" flags="0x4"/>
    </TTGlyph>
    <TTGlyph name="Ubreve" xMin="54" yMin="-11" xMax="543" yMax="946">
      <component glyphName="U" x="0" y="0" flags="0x204"/>
      <component glyphName="breve" x="76" y="290" flags="0x4"/>
    </TTGlyph>
    <TTGlyph name="Ucircumflex" xMin="54" yMin="-11" xMax="543" yMax="965">
      <component glyphName="circumflex" x="75" y="290" flags="0x4"/>
      <component glyphName="U" x="0" y="0" flags="0x4"/>
    </TTGlyph>
    <TTGlyph name="Udieresis" xMin="54" yMin="-11" xMax="543" yMax="932">
      <component glyphName="dieresis" x="76" y="290" flags="0x4"/>
      <component glyphName="U" x="0" y="0" flags="0x4"/>
    </TTGlyph>
    <TTGlyph name="Ugrave" xMin="54" yMin="-11" xMax="543" yMax="990">
      <component glyphName="U" x="0" y="0" flags="0x204"/>
      <component glyphName="grave" x="1" y="290" flags="0x4"/>
    </TTGlyph>
    <TTGlyph name="Uhungarumlaut" xMin="54" yMin="-11" xMax="543" yMax="1021">
      <component glyphName="U" x="0" y="0" flags="0x204"/>
      <component glyphName="hungarumlaut" x="123" y="290" flags="0x4"/>
    </TTGlyph>
    <TTGlyph name="Umacron" xMin="54" yMin="-11" xMax="543" yMax="895">
      <component glyphName="U" x="0" y="0" flags="0x204"/>
      <component glyphName="macron" x="77" y="290" flags="0x4"/>
    </TTGlyph>
    <TTGlyph name="Uogonek" xMin="54" yMin="-209" xMax="543" yMax="733">
      <contour>
        <pt x="543" y="240" on="1"/>
        <pt x="543" y="125" on="0"/>
        <pt x="435" y="4" on="0"/>
        <pt x="343" y="-8" on="1"/>
        <pt x="322" y="-38" on="0"/>
        <pt x="303" y="-79" on="0"/>
        <pt x="303" y="-98" on="1"/>
        <pt x="303" y="-132" on="0"/>
        <pt x="337" y="-132" on="1"/>
        <pt x="348" y="-132" on="0"/>
        <pt x="369" y="-123" on="0"/>
        <pt x="378" y="-117" on="1"/>
        <pt x="403" y="-166" on="1"/>
        <pt x="387" y="-183" on="0"/>
        <pt x="334" y="-209" on="0"/>
        <pt x="298" y="-209" on="1"/>
        <pt x="257" y="-209" on="0"/>
        <pt x="213" y="-162" on="0"/>
        <pt x="213" y="-125" on="1"/>
        <pt x="213" y="-96" on="0"/>
        <pt x="240" y="-41" on="0"/>
        <pt x="265" y="-9" on="1"/>
        <pt x="167" y="-1" on="0"/>
        <pt x="54" y="120" on="0"/>
        <pt x="54" y="240" on="1"/>
        <pt x="54" y="733" on="1"/>
        <pt x="206" y="733" on="1"/>
        <pt x="206" y="239" on="1"/>
        <pt x="206" y="185" on="0"/>
        <pt x="252" y="126" on="0"/>
        <pt x="300" y="126" on="1"/>
        <pt x="347" y="126" on="0"/>
        <pt x="391" y="185" on="0"/>
        <pt x="391" y="239" on="1"/>
        <pt x="391" y="733" on="1"/>
        <pt x="543" y="733" on="1"/>
      </contour>
    </TTGlyph>
    <TTGlyph name="Uring" xMin="54" yMin="-11" xMax="543" yMax="1018">
      <component glyphName="ring" x="77" y="290" flags="0x4"/>
      <component glyphName="U" x="0" y="0" flags="0x4"/>
    </TTGlyph>
    <TTGlyph name="V" xMin="-1" yMin="-6" xMax="557" yMax="734">
      <contour>
        <pt x="316" y="-6" on="1"/>
        <pt x="239" y="-6" on="1"/>
        <pt x="-1" y="734" on="1"/>
        <pt x="163" y="734" on="1"/>
        <pt x="279" y="304" on="1"/>
        <pt x="395" y="734" on="1"/>
        <pt x="557" y="734" on="1"/>
      </contour>
    </TTGlyph>
    <TTGlyph name="W" xMin="4" yMin="-6" xMax="785" yMax="736">
      <contour>
        <pt x="609" y="-5" on="1"/>
        <pt x="548" y="-6" on="1"/>
        <pt x="392" y="407" on="1"/>
        <pt x="243" y="-6" on="1"/>
        <pt x="183" y="-5" on="1"/>
        <pt x="4" y="733" on="1"/>
        <pt x="168" y="733" on="1"/>
        <pt x="242" y="339" on="1"/>
        <pt x="368" y="736" on="1"/>
        <pt x="421" y="736" on="1"/>
        <pt x="550" y="340" on="1"/>
        <pt x="624" y="733" on="1"/>
        <pt x="785" y="733" on="1"/>
      </contour>
    </TTGlyph>
    <TTGlyph name="Wacute" xMin="4" yMin="-6" xMax="785" yMax="988">
      <component glyphName="acute" x="235" y="290" flags="0x4"/>
      <component glyphName="W" x="0" y="0" flags="0x4"/>
    </TTGlyph>
    <TTGlyph name="Wcircumflex" xMin="4" yMin="-6" xMax="785" yMax="965">
      <component glyphName="circumflex" x="171" y="290" flags="0x4"/>
      <component glyphName="W" x="0" y="0" flags="0x4"/>
    </TTGlyph>
    <TTGlyph name="Wdieresis" xMin="4" yMin="-6" xMax="785" yMax="932">
      <component glyphName="dieresis" x="173" y="290" flags="0x4"/>
      <component glyphName="W" x="0" y="0" flags="0x4"/>
    </TTGlyph>
    <TTGlyph name="Wgrave" xMin="4" yMin="-6" xMax="785" yMax="990">
      <component glyphName="W" x="0" y="0" flags="0x204"/>
      <component glyphName="grave" x="97" y="290" flags="0x4"/>
    </TTGlyph>
    <TTGlyph name="X" xMin="7" yMin="0" xMax="555" yMax="733">
      <contour>
        <pt x="386" y="0" on="1"/>
        <pt x="281" y="240" on="1"/>
        <pt x="174" y="0" on="1"/>
        <pt x="7" y="0" on="1"/>
        <pt x="189" y="364" on="1"/>
        <pt x="11" y="733" on="1"/>
        <pt x="180" y="733" on="1"/>
        <pt x="283" y="498" on="1"/>
        <pt x="385" y="733" on="1"/>
        <pt x="551" y="733" on="1"/>
        <pt x="376" y="371" on="1"/>
        <pt x="555" y="0" on="1"/>
      </contour>
    </TTGlyph>
    <TTGlyph name="Y" xMin="0" yMin="0" xMax="547" yMax="733">
      <contour>
        <pt x="350" y="272" on="1"/>
        <pt x="350" y="0" on="1"/>
        <pt x="198" y="0" on="1"/>
        <pt x="198" y="273" on="1"/>
        <pt x="0" y="733" on="1"/>
        <pt x="165" y="733" on="1"/>
        <pt x="274" y="443" on="1"/>
        <pt x="384" y="733" on="1"/>
        <pt x="547" y="733" on="1"/>
      </contour>
    </TTGlyph>
    <TTGlyph name="Yacute" xMin="0" yMin="0" xMax="547" yMax="988">
      <component glyphName="Y" x="0" y="0" flags="0x204"/>
      <component glyphName="acute" x="114" y="290" flags="0x4"/>
    </TTGlyph>
    <TTGlyph name="Ycircumflex" xMin="0" yMin="0" xMax="547" yMax="965">
      <component glyphName="Y" x="0" y="0" flags="0x204"/>
      <component glyphName="circumflex" x="50" y="290" flags="0x4"/>
    </TTGlyph>
    <TTGlyph name="Ydieresis" xMin="0" yMin="0" xMax="547" yMax="932">
      <component glyphName="Y" x="0" y="0" flags="0x204"/>
      <component glyphName="dieresis" x="51" y="290" flags="0x4"/>
    </TTGlyph>
    <TTGlyph name="Ygrave" xMin="0" yMin="0" xMax="547" yMax="990">
      <component glyphName="Y" x="0" y="0" flags="0x204"/>
      <component glyphName="grave" x="-22" y="290" flags="0x4"/>
    </TTGlyph>
    <TTGlyph name="Z" xMin="15" yMin="0" xMax="505" yMax="733">
      <contour>
        <pt x="236" y="140" on="1"/>
        <pt x="494" y="140" on="1"/>
        <pt x="494" y="0" on="1"/>
        <pt x="19" y="0" on="1"/>
        <pt x="15" y="19" on="1"/>
        <pt x="288" y="593" on="1"/>
        <pt x="35" y="593" on="1"/>
        <pt x="35" y="733" on="1"/>
        <pt x="502" y="733" on="1"/>
        <pt x="505" y="713" on="1"/>
      </contour>
    </TTGlyph>
    <TTGlyph name="Zacute" xMin="15" yMin="0" xMax="505" yMax="988">
      <component glyphName="acute" x="101" y="290" flags="0x4"/>
      <component glyphName="Z" x="0" y="0" flags="0x4"/>
    </TTGlyph>
    <TTGlyph name="Zcaron" xMin="15" yMin="0" xMax="505" yMax="961">
      <component glyphName="caron" x="40" y="290" flags="0x4"/>
      <component glyphName="Z" x="0" y="0" flags="0x4"/>
    </TTGlyph>
    <TTGlyph name="Zdotaccent" xMin="15" yMin="0" xMax="505" yMax="932">
      <component glyphName="Z" x="0" y="0" flags="0x204"/>
      <component glyphName="dotaccent" x="51" y="290" flags="0x4"/>
    </TTGlyph>
    <TTGlyph name="a" xMin="18" yMin="-7" xMax="375" yMax="466">
      <contour>
        <pt x="247" y="0" on="1"/>
        <pt x="247" y="43" on="1"/>
        <pt x="229" y="21" on="0"/>
        <pt x="177" y="-7" on="0"/>
        <pt x="142" y="-7" on="1"/>
        <pt x="116" y="-7" on="0"/>
        <pt x="71" y="12" on="0"/>
        <pt x="38" y="49" on="0"/>
        <pt x="18" y="102" on="0"/>
        <pt x="18" y="136" on="1"/>
        <pt x="18" y="167" on="0"/>
        <pt x="37" y="221" on="0"/>
        <pt x="72" y="260" on="0"/>
        <pt x="122" y="283" on="0"/>
        <pt x="154" y="283" on="1"/>
        <pt x="183" y="283" on="0"/>
        <pt x="224" y="271" on="0"/>
        <pt x="242" y="260" on="1"/>
        <pt x="242" y="289" on="1"/>
        <pt x="242" y="326" on="0"/>
        <pt x="205" y="356" on="0"/>
        <pt x="167" y="356" on="1"/>
        <pt x="145" y="356" on="0"/>
        <pt x="99" y="348" on="0"/>
        <pt x="74" y="340" on="1"/>
        <pt x="62" y="444" on="1"/>
        <pt x="89" y="453" on="0"/>
        <pt x="158" y="466" on="0"/>
        <pt x="188" y="466" on="1"/>
        <pt x="284" y="466" on="0"/>
        <pt x="375" y="383" on="0"/>
        <pt x="375" y="298" on="1"/>
        <pt x="375" y="0" on="1"/>
      </contour>
      <contour>
        <pt x="242" y="190" on="1"/>
        <pt x="224" y="204" on="0"/>
        <pt x="197" y="204" on="1"/>
        <pt x="177" y="204" on="0"/>
        <pt x="146" y="176" on="0"/>
        <pt x="146" y="143" on="1"/>
        <pt x="146" y="111" on="0"/>
        <pt x="175" y="83" on="0"/>
        <pt x="195" y="83" on="1"/>
        <pt x="212" y="83" on="0"/>
        <pt x="234" y="92" on="0"/>
        <pt x="242" y="100" on="1"/>
      </contour>
    </TTGlyph>
    <TTGlyph name="aacute" xMin="18" yMin="-7" xMax="377" yMax="698">
      <component glyphName="a" x="0" y="0" flags="0x204"/>
      <component glyphName="acute" x="52" y="0" flags="0x4"/>
    </TTGlyph>
    <TTGlyph name="abreve" xMin="18" yMin="-7" xMax="375" yMax="656">
      <component glyphName="a" x="0" y="0" flags="0x204"/>
      <component glyphName="breve" x="-8" y="0" flags="0x4"/>
    </TTGlyph>
    <TTGlyph name="acircumflex" xMin="18" yMin="-7" xMax="375" yMax="675">
      <component glyphName="a" x="0" y="0" flags="0x204"/>
      <component glyphName="circumflex" x="-10" y="0" flags="0x4"/>
    </TTGlyph>
    <TTGlyph name="acute" xMin="104" yMin="500" xMax="325" yMax="698">
      <contour>
        <pt x="142" y="500" on="1"/>
        <pt x="104" y="557" on="1"/>
        <pt x="261" y="698" on="1"/>
        <pt x="325" y="597" on="1"/>
      </contour>
    </TTGlyph>
    <TTGlyph name="adieresis" xMin="18" yMin="-7" xMax="375" yMax="642">
      <component glyphName="a" x="0" y="0" flags="0x204"/>
      <component glyphName="dieresis" x="-8" y="0" flags="0x4"/>
    </TTGlyph>
    <TTGlyph name="ae" xMin="24" yMin="-9" xMax="612" yMax="466">
      <contour>
        <pt x="248" y="289" on="1"/>
        <pt x="248" y="326" on="0"/>
        <pt x="210" y="356" on="0"/>
        <pt x="173" y="356" on="1"/>
        <pt x="151" y="356" on="0"/>
        <pt x="106" y="348" on="0"/>
        <pt x="80" y="340" on="1"/>
        <pt x="68" y="444" on="1"/>
        <pt x="95" y="453" on="0"/>
        <pt x="161" y="466" on="0"/>
        <pt x="192" y="466" on="1"/>
        <pt x="246" y="466" on="0"/>
        <pt x="305" y="437" on="0"/>
        <pt x="322" y="410" on="1"/>
        <pt x="342" y="436" on="0"/>
        <pt x="404" y="466" on="0"/>
        <pt x="444" y="466" on="1"/>
        <pt x="486" y="466" on="0"/>
        <pt x="549" y="432" on="0"/>
        <pt x="591" y="373" on="0"/>
        <pt x="612" y="293" on="0"/>
        <pt x="612" y="248" on="1"/>
        <pt x="612" y="237" on="0"/>
        <pt x="611" y="197" on="0"/>
        <pt x="609" y="186" on="1"/>
        <pt x="370" y="186" on="1"/>
        <pt x="376" y="99" on="0"/>
        <pt x="467" y="99" on="1"/>
        <pt x="490" y="99" on="0"/>
        <pt x="546" y="113" on="0"/>
        <pt x="573" y="123" on="1"/>
        <pt x="583" y="18" on="1"/>
        <pt x="548" y="5" on="0"/>
        <pt x="484" y="-9" on="0"/>
        <pt x="452" y="-9" on="1"/>
        <pt x="396" y="-9" on="0"/>
        <pt x="321" y="35" on="0"/>
        <pt x="301" y="73" on="1"/>
        <pt x="277" y="38" on="0"/>
        <pt x="208" y="-7" on="0"/>
        <pt x="159" y="-7" on="1"/>
        <pt x="96" y="-7" on="0"/>
        <pt x="24" y="68" on="0"/>
        <pt x="24" y="136" on="1"/>
        <pt x="24" y="167" on="0"/>
        <pt x="43" y="221" on="0"/>
        <pt x="78" y="260" on="0"/>
        <pt x="128" y="283" on="0"/>
        <pt x="160" y="283" on="1"/>
        <pt x="189" y="283" on="0"/>
        <pt x="230" y="271" on="0"/>
        <pt x="248" y="260" on="1"/>
      </contour>
      <contour>
        <pt x="497" y="263" on="1"/>
        <pt x="495" y="308" on="0"/>
        <pt x="465" y="358" on="0"/>
        <pt x="437" y="358" on="1"/>
        <pt x="411" y="358" on="0"/>
        <pt x="377" y="313" on="0"/>
        <pt x="373" y="263" on="1"/>
      </contour>
      <contour>
        <pt x="258" y="180" on="1"/>
        <pt x="246" y="192" on="0"/>
        <pt x="221" y="207" on="0"/>
        <pt x="201" y="207" on="1"/>
        <pt x="182" y="207" on="0"/>
        <pt x="151" y="179" on="0"/>
        <pt x="151" y="145" on="1"/>
        <pt x="151" y="113" on="0"/>
        <pt x="175" y="85" on="0"/>
        <pt x="194" y="85" on="1"/>
        <pt x="215" y="85" on="0"/>
        <pt x="252" y="125" on="0"/>
      </contour>
    </TTGlyph>
    <TTGlyph name="aeacute" xMin="24" yMin="-9" xMax="612" yMax="698">
      <component glyphName="acute" x="165" y="0" flags="0x4"/>
      <component glyphName="ae" x="0" y="0" flags="0x4"/>
    </TTGlyph>
    <TTGlyph name="agrave" xMin="18" yMin="-7" xMax="375" yMax="700">
      <component glyphName="a" x="0" y="0" flags="0x204"/>
      <component glyphName="grave" x="-84" y="0" flags="0x4"/>
    </TTGlyph>
    <TTGlyph name="amacron" xMin="18" yMin="-7" xMax="375" yMax="605">
      <component glyphName="a" x="0" y="0" flags="0x204"/>
      <component glyphName="macron" x="-8" y="0" flags="0x4"/>
    </TTGlyph>
    <TTGlyph name="ampersand" xMin="27" yMin="-15" xMax="549" yMax="680">
      <contour>
        <pt x="549" y="275" on="1"/>
        <pt x="530" y="237" on="0"/>
        <pt x="491" y="167" on="0"/>
        <pt x="468" y="136" on="1"/>
        <pt x="486" y="116" on="0"/>
        <pt x="522" y="78" on="0"/>
        <pt x="540" y="60" on="1"/>
        <pt x="442" y="-15" on="1"/>
        <pt x="383" y="46" on="1"/>
        <pt x="348" y="19" on="0"/>
        <pt x="269" y="-11" on="0"/>
        <pt x="225" y="-11" on="1"/>
        <pt x="183" y="-11" on="0"/>
        <pt x="111" y="16" on="0"/>
        <pt x="58" y="65" on="0"/>
        <pt x="27" y="134" on="0"/>
        <pt x="27" y="177" on="1"/>
        <pt x="27" y="232" on="0"/>
        <pt x="90" y="329" on="0"/>
        <pt x="151" y="361" on="1"/>
        <pt x="133" y="398" on="0"/>
        <pt x="113" y="465" on="0"/>
        <pt x="113" y="495" on="1"/>
        <pt x="113" y="531" on="0"/>
        <pt x="136" y="597" on="0"/>
        <pt x="181" y="649" on="0"/>
        <pt x="247" y="680" on="0"/>
        <pt x="290" y="680" on="1"/>
        <pt x="329" y="680" on="0"/>
        <pt x="392" y="653" on="0"/>
        <pt x="435" y="608" on="0"/>
        <pt x="458" y="548" on="0"/>
        <pt x="458" y="516" on="1"/>
        <pt x="458" y="456" on="0"/>
        <pt x="384" y="357" on="0"/>
        <pt x="313" y="328" on="1"/>
        <pt x="329" y="305" on="0"/>
        <pt x="367" y="255" on="0"/>
        <pt x="387" y="230" on="1"/>
        <pt x="405" y="254" on="0"/>
        <pt x="437" y="309" on="0"/>
        <pt x="451" y="338" on="1"/>
      </contour>
      <contour>
        <pt x="308" y="133" on="1"/>
        <pt x="279" y="168" on="0"/>
        <pt x="228" y="235" on="0"/>
        <pt x="205" y="270" on="1"/>
        <pt x="187" y="256" on="0"/>
        <pt x="166" y="212" on="0"/>
        <pt x="166" y="186" on="1"/>
        <pt x="166" y="153" on="0"/>
        <pt x="202" y="107" on="0"/>
        <pt x="237" y="107" on="1"/>
        <pt x="272" y="107" on="0"/>
      </contour>
      <contour>
        <pt x="336" y="508" on="1"/>
        <pt x="336" y="537" on="0"/>
        <pt x="312" y="570" on="0"/>
        <pt x="290" y="570" on="1"/>
        <pt x="266" y="570" on="0"/>
        <pt x="242" y="526" on="0"/>
        <pt x="242" y="493" on="1"/>
        <pt x="242" y="473" on="0"/>
        <pt x="254" y="428" on="0"/>
        <pt x="266" y="407" on="1"/>
        <pt x="303" y="426" on="0"/>
        <pt x="336" y="482" on="0"/>
      </contour>
    </TTGlyph>
    <TTGlyph name="ampersand.cap" xMin="16" yMin="-17" xMax="594" yMax="738">
      <contour>
        <pt x="276" y="438" on="1"/>
        <pt x="321" y="461" on="0"/>
        <pt x="357" y="522" on="0"/>
        <pt x="357" y="550" on="1"/>
        <pt x="357" y="582" on="0"/>
        <pt x="331" y="617" on="0"/>
        <pt x="308" y="617" on="1"/>
        <pt x="280" y="617" on="0"/>
        <pt x="252" y="568" on="0"/>
        <pt x="252" y="530" on="1"/>
        <pt x="252" y="483" on="0"/>
      </contour>
      <contour>
        <pt x="324" y="143" on="1"/>
        <pt x="259" y="216" on="0"/>
        <pt x="208" y="292" on="1"/>
        <pt x="191" y="278" on="0"/>
        <pt x="169" y="232" on="0"/>
        <pt x="169" y="204" on="1"/>
        <pt x="169" y="166" on="0"/>
        <pt x="209" y="116" on="0"/>
        <pt x="248" y="116" on="1"/>
        <pt x="266" y="116" on="0"/>
        <pt x="304" y="129" on="0"/>
      </contour>
      <contour>
        <pt x="330" y="349" on="1"/>
        <pt x="348" y="324" on="0"/>
        <pt x="389" y="273" on="0"/>
        <pt x="412" y="247" on="1"/>
        <pt x="433" y="275" on="0"/>
        <pt x="472" y="337" on="0"/>
        <pt x="487" y="369" on="1"/>
        <pt x="594" y="298" on="1"/>
        <pt x="553" y="215" on="0"/>
        <pt x="503" y="148" on="1"/>
        <pt x="523" y="127" on="0"/>
        <pt x="563" y="87" on="0"/>
        <pt x="583" y="67" on="1"/>
        <pt x="477" y="-17" on="1"/>
        <pt x="460" y="0" on="0"/>
        <pt x="427" y="33" on="0"/>
        <pt x="410" y="50" on="1"/>
        <pt x="370" y="21" on="0"/>
        <pt x="283" y="-11" on="0"/>
        <pt x="235" y="-11" on="1"/>
        <pt x="186" y="-11" on="0"/>
        <pt x="105" y="19" on="0"/>
        <pt x="48" y="73" on="0"/>
        <pt x="16" y="148" on="0"/>
        <pt x="16" y="193" on="1"/>
        <pt x="16" y="253" on="0"/>
        <pt x="83" y="355" on="0"/>
        <pt x="149" y="390" on="1"/>
        <pt x="109" y="470" on="0"/>
        <pt x="109" y="536" on="1"/>
        <pt x="109" y="575" on="0"/>
        <pt x="135" y="648" on="0"/>
        <pt x="186" y="704" on="0"/>
        <pt x="260" y="738" on="0"/>
        <pt x="307" y="738" on="1"/>
        <pt x="350" y="738" on="0"/>
        <pt x="419" y="708" on="0"/>
        <pt x="467" y="659" on="0"/>
        <pt x="492" y="594" on="0"/>
        <pt x="492" y="559" on="1"/>
        <pt x="492" y="495" on="0"/>
        <pt x="411" y="383" on="0"/>
      </contour>
    </TTGlyph>
    <TTGlyph name="aogonek" xMin="18" yMin="-205" xMax="380" yMax="466">
      <contour>
        <pt x="380" y="-162" on="1"/>
        <pt x="364" y="-179" on="0"/>
        <pt x="311" y="-205" on="0"/>
        <pt x="275" y="-205" on="1"/>
        <pt x="234" y="-205" on="0"/>
        <pt x="190" y="-158" on="0"/>
        <pt x="190" y="-121" on="1"/>
        <pt x="190" y="-90" on="0"/>
        <pt x="219" y="-33" on="0"/>
        <pt x="247" y="0" on="1"/>
        <pt x="247" y="43" on="1"/>
        <pt x="229" y="21" on="0"/>
        <pt x="177" y="-7" on="0"/>
        <pt x="142" y="-7" on="1"/>
        <pt x="116" y="-7" on="0"/>
        <pt x="71" y="12" on="0"/>
        <pt x="38" y="49" on="0"/>
        <pt x="18" y="102" on="0"/>
        <pt x="18" y="136" on="1"/>
        <pt x="18" y="167" on="0"/>
        <pt x="37" y="221" on="0"/>
        <pt x="72" y="260" on="0"/>
        <pt x="122" y="283" on="0"/>
        <pt x="154" y="283" on="1"/>
        <pt x="183" y="283" on="0"/>
        <pt x="224" y="271" on="0"/>
        <pt x="242" y="260" on="1"/>
        <pt x="242" y="289" on="1"/>
        <pt x="242" y="326" on="0"/>
        <pt x="205" y="356" on="0"/>
        <pt x="167" y="356" on="1"/>
        <pt x="145" y="356" on="0"/>
        <pt x="99" y="348" on="0"/>
        <pt x="74" y="340" on="1"/>
        <pt x="62" y="444" on="1"/>
        <pt x="89" y="453" on="0"/>
        <pt x="158" y="466" on="0"/>
        <pt x="188" y="466" on="1"/>
        <pt x="284" y="466" on="0"/>
        <pt x="375" y="383" on="0"/>
        <pt x="375" y="298" on="1"/>
        <pt x="375" y="0" on="1"/>
        <pt x="323" y="0" on="1"/>
        <pt x="300" y="-32" on="0"/>
        <pt x="280" y="-74" on="0"/>
        <pt x="280" y="-94" on="1"/>
        <pt x="280" y="-128" on="0"/>
        <pt x="314" y="-128" on="1"/>
        <pt x="325" y="-128" on="0"/>
        <pt x="346" y="-119" on="0"/>
        <pt x="355" y="-113" on="1"/>
      </contour>
      <contour>
        <pt x="242" y="190" on="1"/>
        <pt x="224" y="204" on="0"/>
        <pt x="197" y="204" on="1"/>
        <pt x="177" y="204" on="0"/>
        <pt x="146" y="176" on="0"/>
        <pt x="146" y="143" on="1"/>
        <pt x="146" y="111" on="0"/>
        <pt x="175" y="83" on="0"/>
        <pt x="195" y="83" on="1"/>
        <pt x="212" y="83" on="0"/>
        <pt x="234" y="92" on="0"/>
        <pt x="242" y="100" on="1"/>
      </contour>
    </TTGlyph>
    <TTGlyph name="aring" xMin="18" yMin="-7" xMax="375" yMax="728">
      <component glyphName="a" x="0" y="0" flags="0x204"/>
      <component glyphName="ring" x="-8" y="0" flags="0x4"/>
    </TTGlyph>
    <TTGlyph name="aringacute" xMin="18" yMin="-7" xMax="375" yMax="959">
      <component glyphName="a" x="0" y="0" flags="0x204"/>
      <component glyphName="acute" x="44" y="261" flags="0x4"/>
      <component glyphName="ring" x="-14" y="0" flags="0x4"/>
    </TTGlyph>
    <TTGlyph name="arrowleft" xMin="23" yMin="25" xMax="502" yMax="493">
      <contour>
        <pt x="196" y="203" on="1"/>
        <pt x="283" y="96" on="1"/>
        <pt x="197" y="25" on="1"/>
        <pt x="23" y="251" on="1"/>
        <pt x="23" y="267" on="1"/>
        <pt x="197" y="493" on="1"/>
        <pt x="283" y="421" on="1"/>
        <pt x="196" y="314" on="1"/>
        <pt x="502" y="314" on="1"/>
        <pt x="502" y="203" on="1"/>
      </contour>
    </TTGlyph>
    <TTGlyph name="arrowleft.cap" xMin="23" yMin="137" xMax="502" yMax="605">
      <component glyphName="arrowleft" x="0" y="112" flags="0x204"/>
    </TTGlyph>
    <TTGlyph name="arrowright" xMin="40" yMin="25" xMax="519" yMax="493">
      <contour>
        <pt x="346" y="314" on="1"/>
        <pt x="259" y="421" on="1"/>
        <pt x="345" y="493" on="1"/>
        <pt x="519" y="267" on="1"/>
        <pt x="519" y="251" on="1"/>
        <pt x="345" y="25" on="1"/>
        <pt x="259" y="96" on="1"/>
        <pt x="346" y="203" on="1"/>
        <pt x="40" y="203" on="1"/>
        <pt x="40" y="314" on="1"/>
      </contour>
    </TTGlyph>
    <TTGlyph name="arrowright.cap" xMin="40" yMin="137" xMax="519" yMax="605">
      <component glyphName="arrowright" x="0" y="112" flags="0x204"/>
    </TTGlyph>
    <TTGlyph name="asciicircum" xMin="53" yMin="531" xMax="396" yMax="715">
      <contour>
        <pt x="278" y="531" on="1"/>
        <pt x="223" y="618" on="1"/>
        <pt x="166" y="531" on="1"/>
        <pt x="53" y="531" on="1"/>
        <pt x="191" y="715" on="1"/>
        <pt x="261" y="715" on="1"/>
        <pt x="396" y="531" on="1"/>
      </contour>
    </TTGlyph>
    <TTGlyph name="asciitilde" xMin="44" yMin="240" xMax="407" yMax="383">
      <contour>
        <pt x="407" y="302" on="1"/>
        <pt x="387" y="278" on="0"/>
        <pt x="323" y="241" on="0"/>
        <pt x="294" y="241" on="1"/>
        <pt x="271" y="241" on="0"/>
        <pt x="239" y="251" on="0"/>
        <pt x="223" y="259" on="1"/>
        <pt x="203" y="270" on="0"/>
        <pt x="177" y="277" on="0"/>
        <pt x="160" y="277" on="1"/>
        <pt x="119" y="277" on="0"/>
        <pt x="86" y="240" on="1"/>
        <pt x="44" y="318" on="1"/>
        <pt x="65" y="343" on="0"/>
        <pt x="128" y="380" on="0"/>
        <pt x="158" y="380" on="1"/>
        <pt x="181" y="380" on="0"/>
        <pt x="213" y="370" on="0"/>
        <pt x="229" y="360" on="1"/>
        <pt x="246" y="351" on="0"/>
        <pt x="271" y="344" on="0"/>
        <pt x="287" y="344" on="1"/>
        <pt x="327" y="344" on="0"/>
        <pt x="360" y="383" on="1"/>
      </contour>
    </TTGlyph>
    <TTGlyph name="asterisk" xMin="19" yMin="470" xMax="294" yMax="732">
      <contour>
        <pt x="205" y="584" on="1"/>
        <pt x="265" y="515" on="1"/>
        <pt x="203" y="470" on="1"/>
        <pt x="156" y="548" on="1"/>
        <pt x="110" y="470" on="1"/>
        <pt x="47" y="515" on="1"/>
        <pt x="108" y="584" on="1"/>
        <pt x="19" y="604" on="1"/>
        <pt x="43" y="677" on="1"/>
        <pt x="126" y="642" on="1"/>
        <pt x="117" y="732" on="1"/>
        <pt x="195" y="732" on="1"/>
        <pt x="187" y="642" on="1"/>
        <pt x="270" y="677" on="1"/>
        <pt x="294" y="604" on="1"/>
      </contour>
    </TTGlyph>
    <TTGlyph name="at" xMin="44" yMin="-11" xMax="554" yMax="638">
      <contour>
        <pt x="554" y="342" on="1"/>
        <pt x="554" y="285" on="0"/>
        <pt x="528" y="204" on="0"/>
        <pt x="496" y="175" on="1"/>
        <pt x="472" y="157" on="0"/>
        <pt x="443" y="157" on="1"/>
        <pt x="417" y="157" on="0"/>
        <pt x="380" y="184" on="0"/>
        <pt x="370" y="208" on="1"/>
        <pt x="353" y="185" on="0"/>
        <pt x="304" y="162" on="0"/>
        <pt x="277" y="162" on="1"/>
        <pt x="238" y="162" on="0"/>
        <pt x="189" y="208" on="0"/>
        <pt x="189" y="250" on="1"/>
        <pt x="189" y="288" on="0"/>
        <pt x="235" y="340" on="0"/>
        <pt x="277" y="340" on="1"/>
        <pt x="297" y="340" on="0"/>
        <pt x="322" y="333" on="0"/>
        <pt x="333" y="326" on="1"/>
        <pt x="333" y="340" on="1"/>
        <pt x="333" y="364" on="0"/>
        <pt x="310" y="383" on="0"/>
        <pt x="286" y="383" on="1"/>
        <pt x="258" y="383" on="0"/>
        <pt x="225" y="374" on="1"/>
        <pt x="217" y="441" on="1"/>
        <pt x="235" y="447" on="0"/>
        <pt x="279" y="455" on="0"/>
        <pt x="299" y="455" on="1"/>
        <pt x="360" y="455" on="0"/>
        <pt x="414" y="402" on="0"/>
        <pt x="414" y="347" on="1"/>
        <pt x="414" y="267" on="1"/>
        <pt x="414" y="233" on="0"/>
        <pt x="432" y="208" on="0"/>
        <pt x="448" y="208" on="1"/>
        <pt x="461" y="208" on="0"/>
        <pt x="472" y="217" on="1"/>
        <pt x="489" y="232" on="0"/>
        <pt x="505" y="293" on="0"/>
        <pt x="505" y="335" on="1"/>
        <pt x="505" y="374" on="0"/>
        <pt x="485" y="464" on="0"/>
        <pt x="439" y="540" on="0"/>
        <pt x="363" y="591" on="0"/>
        <pt x="307" y="591" on="1"/>
        <pt x="260" y="591" on="0"/>
        <pt x="182" y="545" on="0"/>
        <pt x="126" y="469" on="0"/>
        <pt x="95" y="367" on="0"/>
        <pt x="95" y="312" on="1"/>
        <pt x="95" y="257" on="0"/>
        <pt x="124" y="157" on="0"/>
        <pt x="181" y="81" on="0"/>
        <pt x="268" y="36" on="0"/>
        <pt x="326" y="36" on="1"/>
        <pt x="352" y="36" on="0"/>
        <pt x="405" y="51" on="0"/>
        <pt x="429" y="62" on="1"/>
        <pt x="441" y="15" on="1"/>
        <pt x="412" y="4" on="0"/>
        <pt x="351" y="-11" on="0"/>
        <pt x="325" y="-11" on="1"/>
        <pt x="257" y="-11" on="0"/>
        <pt x="152" y="40" on="0"/>
        <pt x="81" y="128" on="0"/>
        <pt x="44" y="245" on="0"/>
        <pt x="44" y="312" on="1"/>
        <pt x="44" y="379" on="0"/>
        <pt x="84" y="498" on="0"/>
        <pt x="154" y="586" on="0"/>
        <pt x="250" y="638" on="0"/>
        <pt x="307" y="638" on="1"/>
        <pt x="371" y="638" on="0"/>
        <pt x="464" y="584" on="0"/>
        <pt x="525" y="499" on="0"/>
        <pt x="554" y="393" on="0"/>
      </contour>
      <contour>
        <pt x="333" y="276" on="1"/>
        <pt x="322" y="288" on="0"/>
        <pt x="304" y="288" on="1"/>
        <pt x="291" y="288" on="0"/>
        <pt x="272" y="272" on="0"/>
        <pt x="272" y="255" on="1"/>
        <pt x="272" y="238" on="0"/>
        <pt x="289" y="221" on="0"/>
        <pt x="303" y="221" on="1"/>
        <pt x="323" y="221" on="0"/>
        <pt x="333" y="236" on="1"/>
      </contour>
    </TTGlyph>
    <TTGlyph name="at.cap" xMin="47" yMin="-12" xMax="620" yMax="745">
      <contour>
        <pt x="620" y="398" on="1"/>
        <pt x="620" y="336" on="0"/>
        <pt x="591" y="234" on="0"/>
        <pt x="555" y="203" on="1"/>
        <pt x="530" y="184" on="0"/>
        <pt x="496" y="184" on="1"/>
        <pt x="468" y="184" on="0"/>
        <pt x="421" y="211" on="0"/>
        <pt x="412" y="242" on="1"/>
        <pt x="393" y="214" on="0"/>
        <pt x="341" y="189" on="0"/>
        <pt x="314" y="189" on="1"/>
        <pt x="269" y="189" on="0"/>
        <pt x="214" y="243" on="0"/>
        <pt x="214" y="291" on="1"/>
        <pt x="214" y="336" on="0"/>
        <pt x="264" y="395" on="0"/>
        <pt x="312" y="395" on="1"/>
        <pt x="334" y="395" on="0"/>
        <pt x="363" y="387" on="0"/>
        <pt x="376" y="380" on="1"/>
        <pt x="376" y="405" on="1"/>
        <pt x="376" y="431" on="0"/>
        <pt x="351" y="455" on="0"/>
        <pt x="320" y="455" on="1"/>
        <pt x="292" y="455" on="0"/>
        <pt x="254" y="444" on="1"/>
        <pt x="245" y="519" on="1"/>
        <pt x="265" y="525" on="0"/>
        <pt x="314" y="533" on="0"/>
        <pt x="335" y="533" on="1"/>
        <pt x="404" y="533" on="0"/>
        <pt x="462" y="473" on="0"/>
        <pt x="462" y="413" on="1"/>
        <pt x="462" y="303" on="1"/>
        <pt x="462" y="267" on="0"/>
        <pt x="483" y="240" on="0"/>
        <pt x="502" y="240" on="1"/>
        <pt x="510" y="240" on="0"/>
        <pt x="525" y="245" on="0"/>
        <pt x="530" y="250" on="1"/>
        <pt x="549" y="267" on="0"/>
        <pt x="567" y="344" on="0"/>
        <pt x="567" y="389" on="1"/>
        <pt x="567" y="437" on="0"/>
        <pt x="545" y="544" on="0"/>
        <pt x="493" y="634" on="0"/>
        <pt x="407" y="693" on="0"/>
        <pt x="343" y="693" on="1"/>
        <pt x="290" y="693" on="0"/>
        <pt x="202" y="640" on="0"/>
        <pt x="138" y="550" on="0"/>
        <pt x="102" y="431" on="0"/>
        <pt x="102" y="365" on="1"/>
        <pt x="102" y="299" on="0"/>
        <pt x="135" y="181" on="0"/>
        <pt x="200" y="91" on="0"/>
        <pt x="298" y="39" on="0"/>
        <pt x="364" y="39" on="1"/>
        <pt x="393" y="39" on="0"/>
        <pt x="453" y="55" on="0"/>
        <pt x="479" y="68" on="1"/>
        <pt x="493" y="17" on="1"/>
        <pt x="461" y="4" on="0"/>
        <pt x="392" y="-12" on="0"/>
        <pt x="363" y="-12" on="1"/>
        <pt x="288" y="-12" on="0"/>
        <pt x="170" y="48" on="0"/>
        <pt x="89" y="150" on="0"/>
        <pt x="47" y="287" on="0"/>
        <pt x="47" y="365" on="1"/>
        <pt x="47" y="443" on="0"/>
        <pt x="92" y="581" on="0"/>
        <pt x="171" y="684" on="0"/>
        <pt x="280" y="745" on="0"/>
        <pt x="343" y="745" on="1"/>
        <pt x="414" y="745" on="0"/>
        <pt x="519" y="682" on="0"/>
        <pt x="587" y="583" on="0"/>
        <pt x="620" y="459" on="0"/>
      </contour>
      <contour>
        <pt x="376" y="324" on="1"/>
        <pt x="362" y="339" on="0"/>
        <pt x="344" y="339" on="1"/>
        <pt x="329" y="339" on="0"/>
        <pt x="306" y="319" on="0"/>
        <pt x="306" y="296" on="1"/>
        <pt x="306" y="274" on="0"/>
        <pt x="326" y="255" on="0"/>
        <pt x="342" y="255" on="1"/>
        <pt x="353" y="255" on="0"/>
        <pt x="370" y="268" on="0"/>
        <pt x="376" y="276" on="1"/>
      </contour>
    </TTGlyph>
    <TTGlyph name="atilde" xMin="18" yMin="-7" xMax="389" yMax="641">
      <component glyphName="a" x="0" y="0" flags="0x204"/>
      <component glyphName="tilde" x="-8" y="0" flags="0x4"/>
    </TTGlyph>
    <TTGlyph name="b" xMin="44" yMin="-7" xMax="436" yMax="733">
      <contour>
        <pt x="436" y="236" on="1"/>
        <pt x="436" y="184" on="0"/>
        <pt x="409" y="95" on="0"/>
        <pt x="364" y="30" on="0"/>
        <pt x="305" y="-7" on="0"/>
        <pt x="273" y="-7" on="1"/>
        <pt x="217" y="-7" on="0"/>
        <pt x="172" y="35" on="1"/>
        <pt x="172" y="0" on="1"/>
        <pt x="44" y="0" on="1"/>
        <pt x="44" y="733" on="1"/>
        <pt x="178" y="733" on="1"/>
        <pt x="178" y="430" on="1"/>
        <pt x="199" y="447" on="0"/>
        <pt x="244" y="466" on="0"/>
        <pt x="275" y="466" on="1"/>
        <pt x="309" y="466" on="0"/>
        <pt x="368" y="434" on="0"/>
        <pt x="411" y="375" on="0"/>
        <pt x="436" y="290" on="0"/>
      </contour>
      <contour>
        <pt x="303" y="235" on="1"/>
        <pt x="303" y="304" on="0"/>
        <pt x="267" y="358" on="0"/>
        <pt x="233" y="358" on="1"/>
        <pt x="202" y="358" on="0"/>
        <pt x="178" y="337" on="1"/>
        <pt x="178" y="122" on="1"/>
        <pt x="201" y="100" on="0"/>
        <pt x="232" y="100" on="1"/>
        <pt x="264" y="100" on="0"/>
        <pt x="303" y="164" on="0"/>
      </contour>
    </TTGlyph>
    <TTGlyph name="backslash" xMin="0" yMin="-216" xMax="280" yMax="733">
      <contour>
        <pt x="182" y="-216" on="1"/>
        <pt x="0" y="733" on="1"/>
        <pt x="99" y="733" on="1"/>
        <pt x="280" y="-216" on="1"/>
      </contour>
    </TTGlyph>
    <TTGlyph name="backslash.cap" xMin="11" yMin="-110" xMax="291" yMax="839">
      <component glyphName="backslash" x="11" y="106" flags="0x204"/>
    </TTGlyph>
    <TTGlyph name="bar" xMin="71" yMin="-215" xMax="168" yMax="734">
      <contour>
        <pt x="71" y="-215" on="1"/>
        <pt x="71" y="734" on="1"/>
        <pt x="168" y="734" on="1"/>
        <pt x="168" y="-215" on="1"/>
      </contour>
    </TTGlyph>
    <TTGlyph name="bar.cap" xMin="71" yMin="-110" xMax="168" yMax="839">
      <component glyphName="bar" x="0" y="105" flags="0x204"/>
    </TTGlyph>
    <TTGlyph name="braceleft" xMin="19" yMin="-223" xMax="284" yMax="740">
      <contour>
        <pt x="284" y="-223" on="1"/>
        <pt x="198" y="-223" on="0"/>
        <pt x="96" y="-132" on="0"/>
        <pt x="96" y="-52" on="1"/>
        <pt x="96" y="148" on="1"/>
        <pt x="96" y="180" on="0"/>
        <pt x="65" y="207" on="0"/>
        <pt x="37" y="207" on="1"/>
        <pt x="19" y="207" on="1"/>
        <pt x="19" y="308" on="1"/>
        <pt x="37" y="308" on="1"/>
        <pt x="65" y="308" on="0"/>
        <pt x="96" y="335" on="0"/>
        <pt x="96" y="367" on="1"/>
        <pt x="96" y="568" on="1"/>
        <pt x="96" y="648" on="0"/>
        <pt x="198" y="740" on="0"/>
        <pt x="284" y="740" on="1"/>
        <pt x="284" y="630" on="1"/>
        <pt x="248" y="630" on="0"/>
        <pt x="210" y="593" on="0"/>
        <pt x="210" y="544" on="1"/>
        <pt x="210" y="365" on="1"/>
        <pt x="210" y="318" on="0"/>
        <pt x="173" y="273" on="0"/>
        <pt x="138" y="258" on="1"/>
        <pt x="173" y="243" on="0"/>
        <pt x="210" y="198" on="0"/>
        <pt x="210" y="151" on="1"/>
        <pt x="210" y="-29" on="1"/>
        <pt x="210" y="-77" on="0"/>
        <pt x="248" y="-112" on="0"/>
        <pt x="284" y="-112" on="1"/>
      </contour>
    </TTGlyph>
    <TTGlyph name="braceleft.cap" xMin="19" yMin="-117" xMax="284" yMax="846">
      <component glyphName="braceleft" x="0" y="106" flags="0x204"/>
    </TTGlyph>
    <TTGlyph name="braceright" xMin="5" yMin="-223" xMax="269" yMax="740">
      <contour>
        <pt x="252" y="207" on="1"/>
        <pt x="223" y="207" on="0"/>
        <pt x="192" y="180" on="0"/>
        <pt x="192" y="148" on="1"/>
        <pt x="192" y="-52" on="1"/>
        <pt x="192" y="-132" on="0"/>
        <pt x="91" y="-223" on="0"/>
        <pt x="5" y="-223" on="1"/>
        <pt x="5" y="-112" on="1"/>
        <pt x="40" y="-112" on="0"/>
        <pt x="79" y="-77" on="0"/>
        <pt x="79" y="-29" on="1"/>
        <pt x="79" y="151" on="1"/>
        <pt x="79" y="198" on="0"/>
        <pt x="115" y="243" on="0"/>
        <pt x="150" y="258" on="1"/>
        <pt x="115" y="273" on="0"/>
        <pt x="79" y="318" on="0"/>
        <pt x="79" y="365" on="1"/>
        <pt x="79" y="544" on="1"/>
        <pt x="79" y="593" on="0"/>
        <pt x="40" y="630" on="0"/>
        <pt x="5" y="630" on="1"/>
        <pt x="5" y="740" on="1"/>
        <pt x="91" y="740" on="0"/>
        <pt x="192" y="648" on="0"/>
        <pt x="192" y="568" on="1"/>
        <pt x="192" y="367" on="1"/>
        <pt x="192" y="335" on="0"/>
        <pt x="223" y="308" on="0"/>
        <pt x="252" y="308" on="1"/>
        <pt x="269" y="308" on="1"/>
        <pt x="269" y="207" on="1"/>
      </contour>
    </TTGlyph>
    <TTGlyph name="braceright.cap" xMin="5" yMin="-117" xMax="269" yMax="846">
      <component glyphName="braceright" x="0" y="106" flags="0x204"/>
    </TTGlyph>
    <TTGlyph name="bracketleft" xMin="52" yMin="-216" xMax="281" yMax="733">
      <contour>
        <pt x="52" y="-216" on="1"/>
        <pt x="52" y="733" on="1"/>
        <pt x="281" y="733" on="1"/>
        <pt x="281" y="628" on="1"/>
        <pt x="165" y="628" on="1"/>
        <pt x="165" y="-110" on="1"/>
        <pt x="281" y="-110" on="1"/>
        <pt x="281" y="-216" on="1"/>
      </contour>
    </TTGlyph>
    <TTGlyph name="bracketleft.cap" xMin="52" yMin="-110" xMax="281" yMax="839">
      <component glyphName="bracketleft" x="0" y="106" flags="0x204"/>
    </TTGlyph>
    <TTGlyph name="bracketright" xMin="11" yMin="-216" xMax="240" yMax="733">
      <contour>
        <pt x="11" y="-216" on="1"/>
        <pt x="11" y="-110" on="1"/>
        <pt x="127" y="-110" on="1"/>
        <pt x="127" y="628" on="1"/>
        <pt x="11" y="628" on="1"/>
        <pt x="11" y="733" on="1"/>
        <pt x="240" y="733" on="1"/>
        <pt x="240" y="-216" on="1"/>
      </contour>
    </TTGlyph>
    <TTGlyph name="bracketright.cap" xMin="11" yMin="-110" xMax="240" yMax="839">
      <component glyphName="bracketright" x="0" y="106" flags="0x204"/>
    </TTGlyph>
    <TTGlyph name="breve" xMin="73" yMin="505" xMax="370" yMax="656">
      <contour>
        <pt x="370" y="648" on="1"/>
        <pt x="370" y="619" on="0"/>
        <pt x="350" y="567" on="0"/>
        <pt x="311" y="528" on="0"/>
        <pt x="256" y="505" on="0"/>
        <pt x="222" y="505" on="1"/>
        <pt x="187" y="505" on="0"/>
        <pt x="131" y="528" on="0"/>
        <pt x="93" y="567" on="0"/>
        <pt x="73" y="619" on="0"/>
        <pt x="73" y="648" on="1"/>
        <pt x="168" y="656" on="1"/>
        <pt x="168" y="588" on="0"/>
        <pt x="222" y="588" on="1"/>
        <pt x="275" y="588" on="0"/>
        <pt x="275" y="656" on="1"/>
      </contour>
    </TTGlyph>
    <TTGlyph name="bullet" xMin="40" yMin="205" xMax="356" yMax="527">
      <contour>
        <pt x="356" y="366" on="1"/>
        <pt x="356" y="333" on="0"/>
        <pt x="331" y="274" on="0"/>
        <pt x="288" y="230" on="0"/>
        <pt x="231" y="205" on="0"/>
        <pt x="198" y="205" on="1"/>
        <pt x="165" y="205" on="0"/>
        <pt x="107" y="230" on="0"/>
        <pt x="65" y="274" on="0"/>
        <pt x="40" y="333" on="0"/>
        <pt x="40" y="366" on="1"/>
        <pt x="40" y="399" on="0"/>
        <pt x="65" y="458" on="0"/>
        <pt x="107" y="502" on="0"/>
        <pt x="165" y="527" on="0"/>
        <pt x="198" y="527" on="1"/>
        <pt x="231" y="527" on="0"/>
        <pt x="288" y="502" on="0"/>
        <pt x="331" y="458" on="0"/>
        <pt x="356" y="399" on="0"/>
      </contour>
    </TTGlyph>
    <TTGlyph name="c" xMin="25" yMin="-9" xMax="357" yMax="466">
      <contour>
        <pt x="357" y="29" on="1"/>
        <pt x="334" y="13" on="0"/>
        <pt x="273" y="-9" on="0"/>
        <pt x="237" y="-9" on="1"/>
        <pt x="185" y="-9" on="0"/>
        <pt x="106" y="28" on="0"/>
        <pt x="52" y="91" on="0"/>
        <pt x="25" y="177" on="0"/>
        <pt x="25" y="226" on="1"/>
        <pt x="25" y="275" on="0"/>
        <pt x="52" y="363" on="0"/>
        <pt x="106" y="428" on="0"/>
        <pt x="185" y="466" on="0"/>
        <pt x="237" y="466" on="1"/>
        <pt x="273" y="466" on="0"/>
        <pt x="334" y="444" on="0"/>
        <pt x="357" y="428" on="1"/>
        <pt x="315" y="332" on="1"/>
        <pt x="299" y="342" on="0"/>
        <pt x="264" y="353" on="0"/>
        <pt x="243" y="353" on="1"/>
        <pt x="209" y="353" on="0"/>
        <pt x="157" y="292" on="0"/>
        <pt x="157" y="227" on="1"/>
        <pt x="157" y="165" on="0"/>
        <pt x="210" y="104" on="0"/>
        <pt x="246" y="104" on="1"/>
        <pt x="285" y="104" on="0"/>
        <pt x="317" y="125" on="1"/>
      </contour>
    </TTGlyph>
    <TTGlyph name="cacute" xMin="25" yMin="-9" xMax="376" yMax="698">
      <component glyphName="acute" x="51" y="0" flags="0x4"/>
      <component glyphName="c" x="0" y="0" flags="0x4"/>
    </TTGlyph>
    <TTGlyph name="caron" xMin="58" yMin="503" xMax="382" yMax="671">
      <contour>
        <pt x="252" y="503" on="1"/>
        <pt x="187" y="503" on="1"/>
        <pt x="58" y="671" on="1"/>
        <pt x="168" y="671" on="1"/>
        <pt x="221" y="595" on="1"/>
        <pt x="273" y="671" on="1"/>
        <pt x="382" y="671" on="1"/>
      </contour>
    </TTGlyph>
    <TTGlyph name="caron.alt" xMin="43" yMin="509" xMax="183" yMax="739">
      <contour>
        <pt x="181" y="725" on="1"/>
        <pt x="183" y="658" on="0"/>
        <pt x="136" y="547" on="0"/>
        <pt x="97" y="509" on="1"/>
        <pt x="43" y="540" on="1"/>
        <pt x="68" y="582" on="0"/>
        <pt x="86" y="680" on="0"/>
        <pt x="85" y="739" on="1"/>
      </contour>
    </TTGlyph>
    <TTGlyph name="ccaron" xMin="25" yMin="-9" xMax="374" yMax="671">
      <component glyphName="caron" x="-8" y="0" flags="0x4"/>
      <component glyphName="c" x="0" y="0" flags="0x4"/>
    </TTGlyph>
    <TTGlyph name="ccedilla" xMin="25" yMin="-226" xMax="357" yMax="466">
      <contour>
        <pt x="326" y="-128" on="1"/>
        <pt x="326" y="-167" on="0"/>
        <pt x="269" y="-226" on="0"/>
        <pt x="213" y="-226" on="1"/>
        <pt x="185" y="-226" on="0"/>
        <pt x="129" y="-207" on="0"/>
        <pt x="100" y="-190" on="1"/>
        <pt x="128" y="-122" on="1"/>
        <pt x="179" y="-156" on="0"/>
        <pt x="219" y="-156" on="1"/>
        <pt x="232" y="-156" on="0"/>
        <pt x="247" y="-144" on="0"/>
        <pt x="247" y="-129" on="1"/>
        <pt x="247" y="-118" on="0"/>
        <pt x="212" y="-98" on="0"/>
        <pt x="162" y="-98" on="1"/>
        <pt x="159" y="-89" on="1"/>
        <pt x="182" y="-3" on="1"/>
        <pt x="143" y="6" on="0"/>
        <pt x="85" y="48" on="0"/>
        <pt x="45" y="108" on="0"/>
        <pt x="25" y="184" on="0"/>
        <pt x="25" y="226" on="1"/>
        <pt x="25" y="275" on="0"/>
        <pt x="52" y="363" on="0"/>
        <pt x="106" y="428" on="0"/>
        <pt x="185" y="466" on="0"/>
        <pt x="237" y="466" on="1"/>
        <pt x="273" y="466" on="0"/>
        <pt x="334" y="444" on="0"/>
        <pt x="357" y="428" on="1"/>
        <pt x="315" y="332" on="1"/>
        <pt x="299" y="342" on="0"/>
        <pt x="264" y="353" on="0"/>
        <pt x="243" y="353" on="1"/>
        <pt x="209" y="353" on="0"/>
        <pt x="157" y="292" on="0"/>
        <pt x="157" y="227" on="1"/>
        <pt x="157" y="165" on="0"/>
        <pt x="210" y="104" on="0"/>
        <pt x="246" y="104" on="1"/>
        <pt x="285" y="104" on="0"/>
        <pt x="317" y="125" on="1"/>
        <pt x="357" y="29" on="1"/>
        <pt x="334" y="13" on="0"/>
        <pt x="273" y="-9" on="0"/>
        <pt x="237" y="-9" on="1"/>
        <pt x="231" y="-9" on="1"/>
        <pt x="225" y="-37" on="1"/>
        <pt x="280" y="-49" on="0"/>
        <pt x="326" y="-96" on="0"/>
      </contour>
    </TTGlyph>
    <TTGlyph name="cdotaccent" xMin="25" yMin="-9" xMax="357" yMax="642">
      <component glyphName="c" x="0" y="0" flags="0x204"/>
      <component glyphName="dotaccent" x="1" y="0" flags="0x4"/>
    </TTGlyph>
    <TTGlyph name="cedilla" xMin="100" yMin="-230" xMax="326" yMax="20">
      <contour>
        <pt x="326" y="-132" on="1"/>
        <pt x="326" y="-171" on="0"/>
        <pt x="269" y="-230" on="0"/>
        <pt x="213" y="-230" on="1"/>
        <pt x="185" y="-230" on="0"/>
        <pt x="129" y="-211" on="0"/>
        <pt x="100" y="-194" on="1"/>
        <pt x="128" y="-126" on="1"/>
        <pt x="179" y="-160" on="0"/>
        <pt x="219" y="-160" on="1"/>
        <pt x="232" y="-160" on="0"/>
        <pt x="247" y="-148" on="0"/>
        <pt x="247" y="-133" on="1"/>
        <pt x="247" y="-122" on="0"/>
        <pt x="212" y="-102" on="0"/>
        <pt x="162" y="-102" on="1"/>
        <pt x="159" y="-93" on="1"/>
        <pt x="189" y="20" on="1"/>
        <pt x="236" y="8" on="1"/>
        <pt x="225" y="-41" on="1"/>
        <pt x="280" y="-53" on="0"/>
        <pt x="326" y="-100" on="0"/>
      </contour>
    </TTGlyph>
    <TTGlyph name="cent" xMin="25" yMin="-82" xMax="371" yMax="538">
      <contour>
        <pt x="180" y="-2" on="1"/>
        <pt x="109" y="15" on="0"/>
        <pt x="25" y="136" on="0"/>
        <pt x="25" y="226" on="1"/>
        <pt x="25" y="277" on="0"/>
        <pt x="54" y="364" on="0"/>
        <pt x="107" y="427" on="0"/>
        <pt x="183" y="464" on="0"/>
        <pt x="230" y="466" on="1"/>
        <pt x="238" y="538" on="1"/>
        <pt x="300" y="538" on="1"/>
        <pt x="292" y="460" on="1"/>
        <pt x="317" y="454" on="0"/>
        <pt x="356" y="435" on="0"/>
        <pt x="371" y="424" on="1"/>
        <pt x="329" y="327" on="1"/>
        <pt x="321" y="332" on="0"/>
        <pt x="296" y="347" on="0"/>
        <pt x="280" y="352" on="1"/>
        <pt x="253" y="97" on="1"/>
        <pt x="271" y="99" on="0"/>
        <pt x="305" y="115" on="0"/>
        <pt x="319" y="124" on="1"/>
        <pt x="357" y="29" on="1"/>
        <pt x="333" y="12" on="0"/>
        <pt x="277" y="-7" on="0"/>
        <pt x="242" y="-9" on="1"/>
        <pt x="234" y="-82" on="1"/>
        <pt x="172" y="-82" on="1"/>
      </contour>
      <contour>
        <pt x="150" y="220" on="1"/>
        <pt x="150" y="179" on="0"/>
        <pt x="172" y="126" on="0"/>
        <pt x="192" y="112" on="1"/>
        <pt x="218" y="355" on="1"/>
        <pt x="189" y="346" on="0"/>
        <pt x="150" y="280" on="0"/>
      </contour>
    </TTGlyph>
    <TTGlyph name="cent.lin" xMin="25" yMin="61" xMax="371" yMax="681">
      <component glyphName="cent" x="0" y="143" flags="0x4"/>
    </TTGlyph>
    <TTGlyph name="circumflex" xMin="61" yMin="507" xMax="385" yMax="675">
      <contour>
        <pt x="274" y="507" on="1"/>
        <pt x="221" y="583" on="1"/>
        <pt x="168" y="507" on="1"/>
        <pt x="61" y="507" on="1"/>
        <pt x="192" y="675" on="1"/>
        <pt x="258" y="675" on="1"/>
        <pt x="385" y="507" on="1"/>
      </contour>
    </TTGlyph>
    <TTGlyph name="colon" xMin="38" yMin="-10" xMax="189" yMax="416">
      <contour>
        <pt x="38" y="67" on="1"/>
        <pt x="38" y="99" on="0"/>
        <pt x="81" y="144" on="0"/>
        <pt x="113" y="144" on="1"/>
        <pt x="145" y="144" on="0"/>
        <pt x="189" y="99" on="0"/>
        <pt x="189" y="67" on="1"/>
        <pt x="189" y="35" on="0"/>
        <pt x="145" y="-10" on="0"/>
        <pt x="113" y="-10" on="1"/>
        <pt x="81" y="-10" on="0"/>
        <pt x="38" y="35" on="0"/>
      </contour>
      <contour>
        <pt x="38" y="340" on="1"/>
        <pt x="38" y="371" on="0"/>
        <pt x="81" y="416" on="0"/>
        <pt x="113" y="416" on="1"/>
        <pt x="145" y="416" on="0"/>
        <pt x="189" y="371" on="0"/>
        <pt x="189" y="340" on="1"/>
        <pt x="189" y="308" on="0"/>
        <pt x="145" y="263" on="0"/>
        <pt x="113" y="263" on="1"/>
        <pt x="81" y="263" on="0"/>
        <pt x="38" y="308" on="0"/>
      </contour>
    </TTGlyph>
    <TTGlyph name="comma" xMin="38" yMin="-122" xMax="186" yMax="141">
      <contour>
        <pt x="186" y="54" on="1"/>
        <pt x="186" y="29" on="0"/>
        <pt x="166" y="-24" on="0"/>
        <pt x="131" y="-72" on="0"/>
        <pt x="84" y="-111" on="0"/>
        <pt x="57" y="-122" on="1"/>
        <pt x="44" y="-101" on="1"/>
        <pt x="74" y="-75" on="0"/>
        <pt x="104" y="-30" on="0"/>
        <pt x="112" y="0" on="1"/>
        <pt x="78" y="2" on="0"/>
        <pt x="38" y="43" on="0"/>
        <pt x="38" y="72" on="1"/>
        <pt x="38" y="101" on="0"/>
        <pt x="79" y="141" on="0"/>
        <pt x="108" y="141" on="1"/>
        <pt x="146" y="141" on="0"/>
        <pt x="186" y="90" on="0"/>
      </contour>
    </TTGlyph>
    <TTGlyph name="commaaccent" xMin="23" yMin="-330" xMax="171" yMax="-67">
      <contour>
        <pt x="171" y="-154" on="1"/>
        <pt x="171" y="-179" on="0"/>
        <pt x="151" y="-232" on="0"/>
        <pt x="116" y="-280" on="0"/>
        <pt x="69" y="-319" on="0"/>
        <pt x="42" y="-330" on="1"/>
        <pt x="29" y="-309" on="1"/>
        <pt x="59" y="-283" on="0"/>
        <pt x="89" y="-238" on="0"/>
        <pt x="97" y="-208" on="1"/>
        <pt x="63" y="-206" on="0"/>
        <pt x="23" y="-165" on="0"/>
        <pt x="23" y="-136" on="1"/>
        <pt x="23" y="-107" on="0"/>
        <pt x="64" y="-67" on="0"/>
        <pt x="93" y="-67" on="1"/>
        <pt x="131" y="-67" on="0"/>
        <pt x="171" y="-118" on="0"/>
      </contour>
    </TTGlyph>
    <TTGlyph name="copyright" xMin="37" yMin="-12" xMax="613" yMax="745">
      <contour>
        <pt x="613" y="366" on="1"/>
        <pt x="613" y="288" on="0"/>
        <pt x="569" y="150" on="0"/>
        <pt x="492" y="47" on="0"/>
        <pt x="387" y="-12" on="0"/>
        <pt x="325" y="-12" on="1"/>
        <pt x="263" y="-12" on="0"/>
        <pt x="158" y="47" on="0"/>
        <pt x="81" y="150" on="0"/>
        <pt x="37" y="288" on="0"/>
        <pt x="37" y="366" on="1"/>
        <pt x="37" y="444" on="0"/>
        <pt x="81" y="582" on="0"/>
        <pt x="158" y="685" on="0"/>
        <pt x="263" y="745" on="0"/>
        <pt x="325" y="745" on="1"/>
        <pt x="387" y="745" on="0"/>
        <pt x="492" y="685" on="0"/>
        <pt x="569" y="582" on="0"/>
        <pt x="613" y="444" on="0"/>
      </contour>
      <contour>
        <pt x="560" y="366" on="1"/>
        <pt x="560" y="432" on="0"/>
        <pt x="525" y="552" on="0"/>
        <pt x="462" y="643" on="0"/>
        <pt x="376" y="697" on="0"/>
        <pt x="325" y="697" on="1"/>
        <pt x="274" y="697" on="0"/>
        <pt x="188" y="643" on="0"/>
        <pt x="125" y="552" on="0"/>
        <pt x="90" y="432" on="0"/>
        <pt x="90" y="366" on="1"/>
        <pt x="90" y="300" on="0"/>
        <pt x="125" y="180" on="0"/>
        <pt x="188" y="90" on="0"/>
        <pt x="274" y="36" on="0"/>
        <pt x="325" y="36" on="1"/>
        <pt x="376" y="36" on="0"/>
        <pt x="462" y="90" on="0"/>
        <pt x="525" y="180" on="0"/>
        <pt x="560" y="300" on="0"/>
      </contour>
      <contour>
        <pt x="432" y="205" on="1"/>
        <pt x="388" y="178" on="0"/>
        <pt x="341" y="178" on="1"/>
        <pt x="307" y="178" on="0"/>
        <pt x="249" y="206" on="0"/>
        <pt x="206" y="256" on="0"/>
        <pt x="182" y="326" on="0"/>
        <pt x="182" y="368" on="1"/>
        <pt x="182" y="410" on="0"/>
        <pt x="206" y="481" on="0"/>
        <pt x="249" y="532" on="0"/>
        <pt x="308" y="561" on="0"/>
        <pt x="343" y="561" on="1"/>
        <pt x="389" y="561" on="0"/>
        <pt x="429" y="535" on="1"/>
        <pt x="402" y="468" on="1"/>
        <pt x="388" y="477" on="0"/>
        <pt x="361" y="487" on="0"/>
        <pt x="345" y="487" on="1"/>
        <pt x="310" y="487" on="0"/>
        <pt x="266" y="427" on="0"/>
        <pt x="266" y="371" on="1"/>
        <pt x="266" y="315" on="0"/>
        <pt x="309" y="252" on="0"/>
        <pt x="347" y="252" on="1"/>
        <pt x="362" y="252" on="0"/>
        <pt x="391" y="263" on="0"/>
        <pt x="405" y="271" on="1"/>
      </contour>
    </TTGlyph>
    <TTGlyph name="d" xMin="27" yMin="-7" xMax="419" yMax="733">
      <contour>
        <pt x="291" y="0" on="1"/>
        <pt x="291" y="36" on="1"/>
        <pt x="270" y="17" on="0"/>
        <pt x="221" y="-7" on="0"/>
        <pt x="189" y="-7" on="1"/>
        <pt x="153" y="-7" on="0"/>
        <pt x="94" y="25" on="0"/>
        <pt x="51" y="86" on="0"/>
        <pt x="27" y="173" on="0"/>
        <pt x="27" y="228" on="1"/>
        <pt x="27" y="280" on="0"/>
        <pt x="55" y="367" on="0"/>
        <pt x="101" y="430" on="0"/>
        <pt x="161" y="466" on="0"/>
        <pt x="193" y="466" on="1"/>
        <pt x="224" y="466" on="0"/>
        <pt x="265" y="451" on="0"/>
        <pt x="285" y="437" on="1"/>
        <pt x="285" y="733" on="1"/>
        <pt x="419" y="733" on="1"/>
        <pt x="419" y="0" on="1"/>
      </contour>
      <contour>
        <pt x="285" y="335" on="1"/>
        <pt x="274" y="345" on="0"/>
        <pt x="248" y="358" on="0"/>
        <pt x="232" y="358" on="1"/>
        <pt x="203" y="358" on="0"/>
        <pt x="160" y="301" on="0"/>
        <pt x="160" y="229" on="1"/>
        <pt x="160" y="192" on="0"/>
        <pt x="170" y="143" on="0"/>
        <pt x="189" y="113" on="0"/>
        <pt x="215" y="100" on="0"/>
        <pt x="231" y="100" on="1"/>
        <pt x="263" y="100" on="0"/>
        <pt x="285" y="122" on="1"/>
      </contour>
    </TTGlyph>
    <TTGlyph name="dagger" xMin="32" yMin="184" xMax="362" yMax="733">
      <contour>
        <pt x="258" y="484" on="1"/>
        <pt x="258" y="184" on="1"/>
        <pt x="138" y="184" on="1"/>
        <pt x="138" y="484" on="1"/>
        <pt x="32" y="484" on="1"/>
        <pt x="32" y="597" on="1"/>
        <pt x="138" y="597" on="1"/>
        <pt x="138" y="733" on="1"/>
        <pt x="258" y="733" on="1"/>
        <pt x="258" y="597" on="1"/>
        <pt x="362" y="597" on="1"/>
        <pt x="362" y="484" on="1"/>
      </contour>
    </TTGlyph>
    <TTGlyph name="daggerdbl" xMin="32" yMin="167" xMax="364" yMax="733">
      <contour>
        <pt x="258" y="280" on="1"/>
        <pt x="258" y="167" on="1"/>
        <pt x="139" y="167" on="1"/>
        <pt x="139" y="280" on="1"/>
        <pt x="34" y="280" on="1"/>
        <pt x="34" y="394" on="1"/>
        <pt x="139" y="394" on="1"/>
        <pt x="139" y="503" on="1"/>
        <pt x="32" y="503" on="1"/>
        <pt x="32" y="617" on="1"/>
        <pt x="139" y="617" on="1"/>
        <pt x="139" y="733" on="1"/>
        <pt x="258" y="733" on="1"/>
        <pt x="258" y="617" on="1"/>
        <pt x="362" y="617" on="1"/>
        <pt x="362" y="503" on="1"/>
        <pt x="257" y="503" on="1"/>
        <pt x="257" y="394" on="1"/>
        <pt x="364" y="394" on="1"/>
        <pt x="364" y="280" on="1"/>
      </contour>
    </TTGlyph>
    <TTGlyph name="dcaron" xMin="27" yMin="-7" xMax="578" yMax="733">
      <component glyphName="caron.alt" x="395" y="-6" flags="0x4"/>
      <component glyphName="d" x="0" y="0" flags="0x4"/>
    </TTGlyph>
    <TTGlyph name="dcroat" xMin="27" yMin="-7" xMax="460" yMax="733">
      <contour>
        <pt x="291" y="0" on="1"/>
        <pt x="291" y="36" on="1"/>
        <pt x="270" y="17" on="0"/>
        <pt x="221" y="-7" on="0"/>
        <pt x="189" y="-7" on="1"/>
        <pt x="153" y="-7" on="0"/>
        <pt x="94" y="25" on="0"/>
        <pt x="51" y="86" on="0"/>
        <pt x="27" y="173" on="0"/>
        <pt x="27" y="228" on="1"/>
        <pt x="27" y="280" on="0"/>
        <pt x="55" y="367" on="0"/>
        <pt x="101" y="430" on="0"/>
        <pt x="161" y="466" on="0"/>
        <pt x="193" y="466" on="1"/>
        <pt x="224" y="466" on="0"/>
        <pt x="265" y="451" on="0"/>
        <pt x="285" y="437" on="1"/>
        <pt x="285" y="539" on="1"/>
        <pt x="172" y="539" on="1"/>
        <pt x="172" y="644" on="1"/>
        <pt x="285" y="644" on="1"/>
        <pt x="285" y="733" on="1"/>
        <pt x="419" y="733" on="1"/>
        <pt x="419" y="644" on="1"/>
        <pt x="460" y="644" on="1"/>
        <pt x="460" y="539" on="1"/>
        <pt x="419" y="539" on="1"/>
        <pt x="419" y="0" on="1"/>
      </contour>
      <contour>
        <pt x="285" y="335" on="1"/>
        <pt x="274" y="345" on="0"/>
        <pt x="248" y="358" on="0"/>
        <pt x="232" y="358" on="1"/>
        <pt x="203" y="358" on="0"/>
        <pt x="160" y="301" on="0"/>
        <pt x="160" y="229" on="1"/>
        <pt x="160" y="192" on="0"/>
        <pt x="170" y="143" on="0"/>
        <pt x="189" y="113" on="0"/>
        <pt x="215" y="100" on="0"/>
        <pt x="231" y="100" on="1"/>
        <pt x="263" y="100" on="0"/>
        <pt x="285" y="122" on="1"/>
      </contour>
    </TTGlyph>
    <TTGlyph name="degree" xMin="55" yMin="459" xMax="318" yMax="715">
      <contour>
        <pt x="318" y="587" on="1"/>
        <pt x="318" y="561" on="0"/>
        <pt x="300" y="515" on="0"/>
        <pt x="265" y="480" on="0"/>
        <pt x="216" y="459" on="0"/>
        <pt x="186" y="459" on="1"/>
        <pt x="156" y="459" on="0"/>
        <pt x="108" y="480" on="0"/>
        <pt x="73" y="515" on="0"/>
        <pt x="55" y="561" on="0"/>
        <pt x="55" y="587" on="1"/>
        <pt x="55" y="613" on="0"/>
        <pt x="73" y="659" on="0"/>
        <pt x="108" y="694" on="0"/>
        <pt x="156" y="715" on="0"/>
        <pt x="186" y="715" on="1"/>
        <pt x="216" y="715" on="0"/>
        <pt x="265" y="694" on="0"/>
        <pt x="300" y="659" on="0"/>
        <pt x="318" y="613" on="0"/>
      </contour>
      <contour>
        <pt x="237" y="587" on="1"/>
        <pt x="237" y="615" on="0"/>
        <pt x="209" y="649" on="0"/>
        <pt x="186" y="649" on="1"/>
        <pt x="163" y="649" on="0"/>
        <pt x="135" y="616" on="0"/>
        <pt x="135" y="587" on="1"/>
        <pt x="135" y="558" on="0"/>
        <pt x="163" y="524" on="0"/>
        <pt x="186" y="524" on="1"/>
        <pt x="209" y="524" on="0"/>
        <pt x="237" y="558" on="0"/>
      </contour>
    </TTGlyph>
    <TTGlyph name="degree.lin" xMin="49" yMin="456" xMax="339" yMax="738">
      <contour>
        <pt x="339" y="597" on="1"/>
        <pt x="339" y="569" on="0"/>
        <pt x="318" y="518" on="0"/>
        <pt x="281" y="479" on="0"/>
        <pt x="227" y="456" on="0"/>
        <pt x="194" y="456" on="1"/>
        <pt x="161" y="456" on="0"/>
        <pt x="107" y="479" on="0"/>
        <pt x="70" y="518" on="0"/>
        <pt x="49" y="569" on="0"/>
        <pt x="49" y="597" on="1"/>
        <pt x="49" y="625" on="0"/>
        <pt x="70" y="677" on="0"/>
        <pt x="107" y="715" on="0"/>
        <pt x="161" y="738" on="0"/>
        <pt x="194" y="738" on="1"/>
        <pt x="227" y="738" on="0"/>
        <pt x="281" y="715" on="0"/>
        <pt x="318" y="677" on="0"/>
        <pt x="339" y="625" on="0"/>
      </contour>
      <contour>
        <pt x="253" y="597" on="1"/>
        <pt x="253" y="629" on="0"/>
        <pt x="220" y="669" on="0"/>
        <pt x="194" y="669" on="1"/>
        <pt x="168" y="669" on="0"/>
        <pt x="135" y="630" on="0"/>
        <pt x="135" y="597" on="1"/>
        <pt x="135" y="564" on="0"/>
        <pt x="168" y="525" on="0"/>
        <pt x="194" y="525" on="1"/>
        <pt x="220" y="525" on="0"/>
        <pt x="253" y="564" on="0"/>
      </contour>
    </TTGlyph>
    <TTGlyph name="dieresis" xMin="66" yMin="505" xMax="377" yMax="642">
      <contour>
        <pt x="377" y="572" on="1"/>
        <pt x="377" y="545" on="0"/>
        <pt x="337" y="505" on="0"/>
        <pt x="308" y="505" on="1"/>
        <pt x="280" y="505" on="0"/>
        <pt x="240" y="545" on="0"/>
        <pt x="240" y="572" on="1"/>
        <pt x="240" y="601" on="0"/>
        <pt x="280" y="642" on="0"/>
        <pt x="308" y="642" on="1"/>
        <pt x="337" y="642" on="0"/>
        <pt x="377" y="601" on="0"/>
      </contour>
      <contour>
        <pt x="204" y="572" on="1"/>
        <pt x="204" y="545" on="0"/>
        <pt x="163" y="505" on="0"/>
        <pt x="135" y="505" on="1"/>
        <pt x="106" y="505" on="0"/>
        <pt x="66" y="545" on="0"/>
        <pt x="66" y="572" on="1"/>
        <pt x="66" y="601" on="0"/>
        <pt x="106" y="642" on="0"/>
        <pt x="135" y="642" on="1"/>
        <pt x="163" y="642" on="0"/>
        <pt x="204" y="601" on="0"/>
      </contour>
    </TTGlyph>
    <TTGlyph name="divide" xMin="41" yMin="153" xMax="357" yMax="518">
      <contour>
        <pt x="41" y="378" on="1"/>
        <pt x="357" y="378" on="1"/>
        <pt x="357" y="293" on="1"/>
        <pt x="41" y="293" on="1"/>
      </contour>
      <contour>
        <pt x="144" y="463" on="1"/>
        <pt x="144" y="486" on="0"/>
        <pt x="175" y="518" on="0"/>
        <pt x="199" y="518" on="1"/>
        <pt x="222" y="518" on="0"/>
        <pt x="254" y="486" on="0"/>
        <pt x="254" y="463" on="1"/>
        <pt x="254" y="440" on="0"/>
        <pt x="222" y="408" on="0"/>
        <pt x="199" y="408" on="1"/>
        <pt x="175" y="408" on="0"/>
        <pt x="144" y="440" on="0"/>
      </contour>
      <contour>
        <pt x="144" y="208" on="1"/>
        <pt x="144" y="231" on="0"/>
        <pt x="175" y="263" on="0"/>
        <pt x="199" y="263" on="1"/>
        <pt x="222" y="263" on="0"/>
        <pt x="254" y="231" on="0"/>
        <pt x="254" y="208" on="1"/>
        <pt x="254" y="185" on="0"/>
        <pt x="222" y="153" on="0"/>
        <pt x="199" y="153" on="1"/>
        <pt x="175" y="153" on="0"/>
        <pt x="144" y="185" on="0"/>
      </contour>
    </TTGlyph>
    <TTGlyph name="divide.lin" xMin="41" yMin="188" xMax="357" yMax="553">
      <component glyphName="divide" x="0" y="35" flags="0x204"/>
    </TTGlyph>
    <TTGlyph name="dollar" xMin="13" yMin="-99" xMax="432" yMax="757">
      <contour>
        <pt x="317" y="757" on="1"/>
        <pt x="307" y="670" on="1"/>
        <pt x="341" y="664" on="0"/>
        <pt x="403" y="637" on="0"/>
        <pt x="431" y="617" on="1"/>
        <pt x="382" y="499" on="1"/>
        <pt x="360" y="516" on="0"/>
        <pt x="316" y="540" on="0"/>
        <pt x="293" y="547" on="1"/>
        <pt x="275" y="388" on="1"/>
        <pt x="276" y="388" on="1"/>
        <pt x="319" y="361" on="0"/>
        <pt x="379" y="313" on="0"/>
        <pt x="416" y="264" on="0"/>
        <pt x="432" y="212" on="0"/>
        <pt x="432" y="180" on="1"/>
        <pt x="432" y="139" on="0"/>
        <pt x="404" y="69" on="0"/>
        <pt x="351" y="19" on="0"/>
        <pt x="275" y="-10" on="0"/>
        <pt x="227" y="-11" on="1"/>
        <pt x="217" y="-99" on="1"/>
        <pt x="153" y="-99" on="1"/>
        <pt x="163" y="-5" on="1"/>
        <pt x="120" y="3" on="0"/>
        <pt x="42" y="38" on="0"/>
        <pt x="13" y="61" on="1"/>
        <pt x="66" y="179" on="1"/>
        <pt x="89" y="161" on="0"/>
        <pt x="146" y="128" on="0"/>
        <pt x="178" y="119" on="1"/>
        <pt x="197" y="288" on="1"/>
        <pt x="195" y="290" on="1"/>
        <pt x="154" y="315" on="0"/>
        <pt x="96" y="360" on="0"/>
        <pt x="59" y="407" on="0"/>
        <pt x="42" y="459" on="0"/>
        <pt x="42" y="491" on="1"/>
        <pt x="42" y="527" on="0"/>
        <pt x="69" y="592" on="0"/>
        <pt x="120" y="643" on="0"/>
        <pt x="195" y="675" on="0"/>
        <pt x="244" y="676" on="1"/>
        <pt x="253" y="757" on="1"/>
      </contour>
      <contour>
        <pt x="301" y="173" on="1"/>
        <pt x="301" y="193" on="0"/>
        <pt x="281" y="227" on="0"/>
        <pt x="255" y="248" on="1"/>
        <pt x="240" y="112" on="1"/>
        <pt x="272" y="114" on="0"/>
        <pt x="301" y="150" on="0"/>
      </contour>
      <contour>
        <pt x="173" y="500" on="1"/>
        <pt x="173" y="480" on="0"/>
        <pt x="192" y="450" on="0"/>
        <pt x="216" y="431" on="1"/>
        <pt x="230" y="555" on="1"/>
        <pt x="201" y="553" on="0"/>
        <pt x="173" y="522" on="0"/>
      </contour>
    </TTGlyph>
    <TTGlyph name="dollar.lin" xMin="7" yMin="-110" xMax="466" yMax="829">
      <contour>
        <pt x="336" y="829" on="1"/>
        <pt x="325" y="732" on="1"/>
        <pt x="363" y="725" on="0"/>
        <pt x="434" y="694" on="0"/>
        <pt x="466" y="671" on="1"/>
        <pt x="406" y="548" on="1"/>
        <pt x="360" y="583" on="0"/>
        <pt x="310" y="597" on="1"/>
        <pt x="291" y="433" on="1"/>
        <pt x="306" y="423" on="1"/>
        <pt x="350" y="393" on="0"/>
        <pt x="410" y="341" on="0"/>
        <pt x="446" y="289" on="0"/>
        <pt x="462" y="234" on="0"/>
        <pt x="462" y="200" on="1"/>
        <pt x="462" y="157" on="0"/>
        <pt x="433" y="81" on="0"/>
        <pt x="377" y="24" on="0"/>
        <pt x="293" y="-10" on="0"/>
        <pt x="239" y="-11" on="1"/>
        <pt x="228" y="-110" on="1"/>
        <pt x="164" y="-110" on="1"/>
        <pt x="175" y="-5" on="1"/>
        <pt x="130" y="3" on="0"/>
        <pt x="42" y="42" on="0"/>
        <pt x="7" y="68" on="1"/>
        <pt x="69" y="191" on="1"/>
        <pt x="93" y="173" on="0"/>
        <pt x="156" y="140" on="0"/>
        <pt x="191" y="132" on="1"/>
        <pt x="211" y="310" on="1"/>
        <pt x="206" y="312" on="0"/>
        <pt x="199" y="318" on="0"/>
        <pt x="194" y="321" on="1"/>
        <pt x="153" y="347" on="0"/>
        <pt x="94" y="395" on="0"/>
        <pt x="57" y="445" on="0"/>
        <pt x="40" y="502" on="0"/>
        <pt x="40" y="538" on="1"/>
        <pt x="40" y="575" on="0"/>
        <pt x="68" y="646" on="0"/>
        <pt x="124" y="702" on="0"/>
        <pt x="207" y="737" on="0"/>
        <pt x="262" y="738" on="1"/>
        <pt x="272" y="829" on="1"/>
      </contour>
      <contour>
        <pt x="313" y="193" on="1"/>
        <pt x="313" y="213" on="0"/>
        <pt x="295" y="247" on="0"/>
        <pt x="269" y="268" on="1"/>
        <pt x="254" y="127" on="1"/>
        <pt x="286" y="131" on="0"/>
        <pt x="313" y="170" on="0"/>
      </contour>
      <contour>
        <pt x="188" y="543" on="1"/>
        <pt x="188" y="523" on="0"/>
        <pt x="209" y="493" on="0"/>
        <pt x="232" y="475" on="1"/>
        <pt x="247" y="603" on="1"/>
        <pt x="218" y="599" on="0"/>
        <pt x="188" y="565" on="0"/>
      </contour>
    </TTGlyph>
    <TTGlyph name="dotaccent" xMin="140" yMin="505" xMax="277" yMax="642">
      <contour>
        <pt x="140" y="573" on="1"/>
        <pt x="140" y="602" on="0"/>
        <pt x="180" y="642" on="0"/>
        <pt x="209" y="642" on="1"/>
        <pt x="238" y="642" on="0"/>
        <pt x="277" y="602" on="0"/>
        <pt x="277" y="573" on="1"/>
        <pt x="277" y="544" on="0"/>
        <pt x="238" y="505" on="0"/>
        <pt x="209" y="505" on="1"/>
        <pt x="180" y="505" on="0"/>
        <pt x="140" y="544" on="0"/>
      </contour>
    </TTGlyph>
    <TTGlyph name="dotlessi" xMin="46" yMin="0" xMax="181" yMax="456">
      <contour>
        <pt x="46" y="0" on="1"/>
        <pt x="46" y="456" on="1"/>
        <pt x="181" y="456" on="1"/>
        <pt x="181" y="0" on="1"/>
      </contour>
    </TTGlyph>
    <TTGlyph name="e" xMin="25" yMin="-9" xMax="398" yMax="466">
      <contour>
        <pt x="398" y="248" on="1"/>
        <pt x="398" y="237" on="0"/>
        <pt x="397" y="197" on="0"/>
        <pt x="395" y="186" on="1"/>
        <pt x="156" y="186" on="1"/>
        <pt x="162" y="99" on="0"/>
        <pt x="252" y="99" on="1"/>
        <pt x="275" y="99" on="0"/>
        <pt x="331" y="113" on="0"/>
        <pt x="359" y="123" on="1"/>
        <pt x="368" y="18" on="1"/>
        <pt x="333" y="5" on="0"/>
        <pt x="268" y="-9" on="0"/>
        <pt x="236" y="-9" on="1"/>
        <pt x="182" y="-9" on="0"/>
        <pt x="103" y="26" on="0"/>
        <pt x="50" y="89" on="0"/>
        <pt x="25" y="176" on="0"/>
        <pt x="25" y="228" on="1"/>
        <pt x="25" y="274" on="0"/>
        <pt x="51" y="360" on="0"/>
        <pt x="100" y="426" on="0"/>
        <pt x="174" y="466" on="0"/>
        <pt x="222" y="466" on="1"/>
        <pt x="267" y="466" on="0"/>
        <pt x="333" y="432" on="0"/>
        <pt x="377" y="373" on="0"/>
        <pt x="398" y="293" on="0"/>
      </contour>
      <contour>
        <pt x="282" y="263" on="1"/>
        <pt x="280" y="308" on="0"/>
        <pt x="250" y="358" on="0"/>
        <pt x="222" y="358" on="1"/>
        <pt x="196" y="358" on="0"/>
        <pt x="163" y="313" on="0"/>
        <pt x="158" y="263" on="1"/>
      </contour>
    </TTGlyph>
    <TTGlyph name="eacute" xMin="25" yMin="-9" xMax="398" yMax="698">
      <component glyphName="acute" x="59" y="0" flags="0x4"/>
      <component glyphName="e" x="0" y="0" flags="0x4"/>
    </TTGlyph>
    <TTGlyph name="ebreve" xMin="25" yMin="-9" xMax="398" yMax="656">
      <component glyphName="e" x="0" y="0" flags="0x204"/>
      <component glyphName="breve" x="-2" y="0" flags="0x4"/>
    </TTGlyph>
    <TTGlyph name="ecaron" xMin="25" yMin="-9" xMax="398" yMax="671">
      <component glyphName="caron" x="0" y="0" flags="0x4"/>
      <component glyphName="e" x="0" y="0" flags="0x4"/>
    </TTGlyph>
    <TTGlyph name="ecircumflex" xMin="25" yMin="-9" xMax="398" yMax="675">
      <component glyphName="circumflex" x="-3" y="0" flags="0x4"/>
      <component glyphName="e" x="0" y="0" flags="0x4"/>
    </TTGlyph>
    <TTGlyph name="edieresis" xMin="25" yMin="-9" xMax="398" yMax="642">
      <component glyphName="dieresis" x="-2" y="0" flags="0x4"/>
      <component glyphName="e" x="0" y="0" flags="0x4"/>
    </TTGlyph>
    <TTGlyph name="edotaccent" xMin="25" yMin="-9" xMax="398" yMax="642">
      <component glyphName="e" x="0" y="0" flags="0x204"/>
      <component glyphName="dotaccent" x="9" y="0" flags="0x4"/>
    </TTGlyph>
    <TTGlyph name="egrave" xMin="25" yMin="-9" xMax="398" yMax="700">
      <component glyphName="e" x="0" y="0" flags="0x204"/>
      <component glyphName="grave" x="-77" y="0" flags="0x4"/>
    </TTGlyph>
    <TTGlyph name="eight" xMin="34" yMin="-11" xMax="442" yMax="676">
      <contour>
        <pt x="442" y="176" on="1"/>
        <pt x="442" y="137" on="0"/>
        <pt x="414" y="69" on="0"/>
        <pt x="361" y="18" on="0"/>
        <pt x="286" y="-11" on="0"/>
        <pt x="238" y="-11" on="1"/>
        <pt x="190" y="-11" on="0"/>
        <pt x="115" y="18" on="0"/>
        <pt x="62" y="69" on="0"/>
        <pt x="34" y="137" on="0"/>
        <pt x="34" y="176" on="1"/>
        <pt x="34" y="227" on="0"/>
        <pt x="78" y="313" on="0"/>
        <pt x="130" y="338" on="1"/>
        <pt x="89" y="363" on="0"/>
        <pt x="44" y="438" on="0"/>
        <pt x="44" y="491" on="1"/>
        <pt x="44" y="529" on="0"/>
        <pt x="71" y="596" on="0"/>
        <pt x="122" y="647" on="0"/>
        <pt x="193" y="676" on="0"/>
        <pt x="238" y="676" on="1"/>
        <pt x="283" y="676" on="0"/>
        <pt x="355" y="647" on="0"/>
        <pt x="405" y="596" on="0"/>
        <pt x="432" y="529" on="0"/>
        <pt x="432" y="491" on="1"/>
        <pt x="432" y="438" on="0"/>
        <pt x="387" y="363" on="0"/>
        <pt x="346" y="337" on="1"/>
        <pt x="397" y="313" on="0"/>
        <pt x="442" y="227" on="0"/>
      </contour>
      <contour>
        <pt x="297" y="471" on="1"/>
        <pt x="297" y="513" on="0"/>
        <pt x="268" y="561" on="0"/>
        <pt x="239" y="561" on="1"/>
        <pt x="210" y="561" on="0"/>
        <pt x="178" y="513" on="0"/>
        <pt x="178" y="471" on="1"/>
        <pt x="178" y="429" on="0"/>
        <pt x="211" y="384" on="0"/>
        <pt x="239" y="384" on="1"/>
        <pt x="266" y="384" on="0"/>
        <pt x="297" y="429" on="0"/>
      </contour>
      <contour>
        <pt x="299" y="195" on="1"/>
        <pt x="299" y="235" on="0"/>
        <pt x="267" y="283" on="0"/>
        <pt x="238" y="283" on="1"/>
        <pt x="210" y="283" on="0"/>
        <pt x="177" y="235" on="0"/>
        <pt x="177" y="195" on="1"/>
        <pt x="177" y="154" on="0"/>
        <pt x="209" y="105" on="0"/>
        <pt x="238" y="105" on="1"/>
        <pt x="267" y="105" on="0"/>
        <pt x="299" y="154" on="0"/>
      </contour>
    </TTGlyph>
    <TTGlyph name="eight.lin" xMin="31" yMin="-11" xMax="483" yMax="739">
      <contour>
        <pt x="483" y="191" on="1"/>
        <pt x="483" y="149" on="0"/>
        <pt x="452" y="75" on="0"/>
        <pt x="393" y="21" on="0"/>
        <pt x="309" y="-11" on="0"/>
        <pt x="257" y="-11" on="1"/>
        <pt x="204" y="-11" on="0"/>
        <pt x="120" y="21" on="0"/>
        <pt x="62" y="75" on="0"/>
        <pt x="31" y="149" on="0"/>
        <pt x="31" y="191" on="1"/>
        <pt x="31" y="247" on="0"/>
        <pt x="81" y="344" on="0"/>
        <pt x="136" y="367" on="1"/>
        <pt x="94" y="393" on="0"/>
        <pt x="44" y="479" on="0"/>
        <pt x="44" y="536" on="1"/>
        <pt x="44" y="578" on="0"/>
        <pt x="73" y="651" on="0"/>
        <pt x="129" y="707" on="0"/>
        <pt x="207" y="739" on="0"/>
        <pt x="257" y="739" on="1"/>
        <pt x="306" y="739" on="0"/>
        <pt x="385" y="707" on="0"/>
        <pt x="440" y="651" on="0"/>
        <pt x="469" y="578" on="0"/>
        <pt x="469" y="536" on="1"/>
        <pt x="469" y="479" on="0"/>
        <pt x="416" y="391" on="0"/>
        <pt x="376" y="367" on="1"/>
        <pt x="432" y="343" on="0"/>
        <pt x="483" y="247" on="0"/>
      </contour>
      <contour>
        <pt x="322" y="513" on="1"/>
        <pt x="322" y="559" on="0"/>
        <pt x="291" y="612" on="0"/>
        <pt x="257" y="612" on="1"/>
        <pt x="225" y="612" on="0"/>
        <pt x="190" y="559" on="0"/>
        <pt x="190" y="513" on="1"/>
        <pt x="190" y="468" on="0"/>
        <pt x="228" y="421" on="0"/>
        <pt x="257" y="421" on="1"/>
        <pt x="286" y="421" on="0"/>
        <pt x="322" y="468" on="0"/>
      </contour>
      <contour>
        <pt x="328" y="213" on="1"/>
        <pt x="328" y="256" on="0"/>
        <pt x="289" y="308" on="0"/>
        <pt x="257" y="308" on="1"/>
        <pt x="225" y="308" on="0"/>
        <pt x="187" y="257" on="0"/>
        <pt x="187" y="213" on="1"/>
        <pt x="187" y="170" on="0"/>
        <pt x="224" y="115" on="0"/>
        <pt x="256" y="115" on="1"/>
        <pt x="291" y="115" on="0"/>
        <pt x="328" y="170" on="0"/>
      </contour>
    </TTGlyph>
    <TTGlyph name="ellipsis" xMin="48" yMin="-10" xMax="663" yMax="144">
      <contour>
        <pt x="48" y="67" on="1"/>
        <pt x="48" y="99" on="0"/>
        <pt x="91" y="144" on="0"/>
        <pt x="123" y="144" on="1"/>
        <pt x="155" y="144" on="0"/>
        <pt x="199" y="99" on="0"/>
        <pt x="199" y="67" on="1"/>
        <pt x="199" y="35" on="0"/>
        <pt x="155" y="-10" on="0"/>
        <pt x="123" y="-10" on="1"/>
        <pt x="91" y="-10" on="0"/>
        <pt x="48" y="35" on="0"/>
      </contour>
      <contour>
        <pt x="280" y="67" on="1"/>
        <pt x="280" y="99" on="0"/>
        <pt x="323" y="144" on="0"/>
        <pt x="355" y="144" on="1"/>
        <pt x="388" y="144" on="0"/>
        <pt x="431" y="99" on="0"/>
        <pt x="431" y="67" on="1"/>
        <pt x="431" y="35" on="0"/>
        <pt x="388" y="-10" on="0"/>
        <pt x="355" y="-10" on="1"/>
        <pt x="323" y="-10" on="0"/>
        <pt x="280" y="35" on="0"/>
      </contour>
      <contour>
        <pt x="513" y="67" on="1"/>
        <pt x="513" y="99" on="0"/>
        <pt x="556" y="144" on="0"/>
        <pt x="588" y="144" on="1"/>
        <pt x="620" y="144" on="0"/>
        <pt x="663" y="99" on="0"/>
        <pt x="663" y="67" on="1"/>
        <pt x="663" y="35" on="0"/>
        <pt x="620" y="-10" on="0"/>
        <pt x="588" y="-10" on="1"/>
        <pt x="556" y="-10" on="0"/>
        <pt x="513" y="35" on="0"/>
      </contour>
    </TTGlyph>
    <TTGlyph name="emacron" xMin="25" yMin="-9" xMax="398" yMax="605">
      <component glyphName="e" x="0" y="0" flags="0x204"/>
      <component glyphName="macron" x="-1" y="0" flags="0x4"/>
    </TTGlyph>
    <TTGlyph name="emdash" xMin="39" yMin="218" xMax="540" yMax="303">
      <contour>
        <pt x="39" y="218" on="1"/>
        <pt x="39" y="303" on="1"/>
        <pt x="540" y="303" on="1"/>
        <pt x="540" y="218" on="1"/>
      </contour>
    </TTGlyph>
    <TTGlyph name="emdash.cap" xMin="39" yMin="328" xMax="540" yMax="413">
      <component glyphName="emdash" x="0" y="110" flags="0x204"/>
    </TTGlyph>
    <TTGlyph name="endash" xMin="39" yMin="218" xMax="347" yMax="303">
      <contour>
        <pt x="39" y="218" on="1"/>
        <pt x="39" y="303" on="1"/>
        <pt x="347" y="303" on="1"/>
        <pt x="347" y="218" on="1"/>
      </contour>
    </TTGlyph>
    <TTGlyph name="endash.cap" xMin="39" yMin="328" xMax="347" yMax="413">
      <component glyphName="endash" x="0" y="110" flags="0x204"/>
    </TTGlyph>
    <TTGlyph name="eogonek" xMin="25" yMin="-209" xMax="398" yMax="466">
      <contour>
        <pt x="398" y="248" on="1"/>
        <pt x="398" y="237" on="0"/>
        <pt x="397" y="197" on="0"/>
        <pt x="395" y="186" on="1"/>
        <pt x="156" y="186" on="1"/>
        <pt x="162" y="99" on="0"/>
        <pt x="252" y="99" on="1"/>
        <pt x="275" y="99" on="0"/>
        <pt x="331" y="113" on="0"/>
        <pt x="359" y="123" on="1"/>
        <pt x="368" y="18" on="1"/>
        <pt x="332" y="-15" on="0"/>
        <pt x="296" y="-76" on="0"/>
        <pt x="296" y="-98" on="1"/>
        <pt x="296" y="-132" on="0"/>
        <pt x="330" y="-132" on="1"/>
        <pt x="341" y="-132" on="0"/>
        <pt x="362" y="-123" on="0"/>
        <pt x="370" y="-117" on="1"/>
        <pt x="396" y="-166" on="1"/>
        <pt x="379" y="-183" on="0"/>
        <pt x="327" y="-209" on="0"/>
        <pt x="291" y="-209" on="1"/>
        <pt x="250" y="-209" on="0"/>
        <pt x="206" y="-162" on="0"/>
        <pt x="206" y="-125" on="1"/>
        <pt x="206" y="-95" on="0"/>
        <pt x="236" y="-39" on="0"/>
        <pt x="263" y="-8" on="1"/>
        <pt x="256" y="-9" on="0"/>
        <pt x="243" y="-9" on="0"/>
        <pt x="236" y="-9" on="1"/>
        <pt x="182" y="-9" on="0"/>
        <pt x="103" y="26" on="0"/>
        <pt x="50" y="89" on="0"/>
        <pt x="25" y="176" on="0"/>
        <pt x="25" y="228" on="1"/>
        <pt x="25" y="274" on="0"/>
        <pt x="51" y="360" on="0"/>
        <pt x="100" y="426" on="0"/>
        <pt x="174" y="466" on="0"/>
        <pt x="222" y="466" on="1"/>
        <pt x="267" y="466" on="0"/>
        <pt x="333" y="432" on="0"/>
        <pt x="377" y="373" on="0"/>
        <pt x="398" y="293" on="0"/>
      </contour>
      <contour>
        <pt x="282" y="263" on="1"/>
        <pt x="280" y="308" on="0"/>
        <pt x="250" y="358" on="0"/>
        <pt x="222" y="358" on="1"/>
        <pt x="196" y="358" on="0"/>
        <pt x="163" y="313" on="0"/>
        <pt x="158" y="263" on="1"/>
      </contour>
    </TTGlyph>
    <TTGlyph name="equal" xMin="46" yMin="199" xMax="321" yMax="472">
      <contour>
        <pt x="46" y="377" on="1"/>
        <pt x="46" y="472" on="1"/>
        <pt x="321" y="472" on="1"/>
        <pt x="321" y="377" on="1"/>
      </contour>
      <contour>
        <pt x="46" y="199" on="1"/>
        <pt x="46" y="293" on="1"/>
        <pt x="321" y="293" on="1"/>
        <pt x="321" y="199" on="1"/>
      </contour>
    </TTGlyph>
    <TTGlyph name="equal.lin" xMin="46" yMin="234" xMax="321" yMax="507">
      <component glyphName="equal" x="0" y="35" flags="0x204"/>
    </TTGlyph>
    <TTGlyph name="eth" xMin="28" yMin="-11" xMax="424" yMax="749">
      <contour>
        <pt x="61" y="546" on="1"/>
        <pt x="124" y="599" on="1"/>
        <pt x="104" y="616" on="0"/>
        <pt x="66" y="643" on="0"/>
        <pt x="52" y="652" on="1"/>
        <pt x="131" y="749" on="1"/>
        <pt x="153" y="734" on="0"/>
        <pt x="198" y="700" on="0"/>
        <pt x="221" y="680" on="1"/>
        <pt x="286" y="734" on="1"/>
        <pt x="345" y="662" on="1"/>
        <pt x="337" y="656" on="0"/>
        <pt x="328" y="648" on="1"/>
        <pt x="320" y="641" on="0"/>
        <pt x="299" y="624" on="0"/>
        <pt x="286" y="614" on="1"/>
        <pt x="315" y="581" on="0"/>
        <pt x="365" y="503" on="0"/>
        <pt x="403" y="413" on="0"/>
        <pt x="424" y="310" on="0"/>
        <pt x="424" y="252" on="1"/>
        <pt x="424" y="193" on="0"/>
        <pt x="398" y="97" on="0"/>
        <pt x="349" y="27" on="0"/>
        <pt x="275" y="-11" on="0"/>
        <pt x="227" y="-11" on="1"/>
        <pt x="178" y="-11" on="0"/>
        <pt x="103" y="26" on="0"/>
        <pt x="53" y="90" on="0"/>
        <pt x="28" y="179" on="0"/>
        <pt x="28" y="230" on="1"/>
        <pt x="28" y="279" on="0"/>
        <pt x="51" y="359" on="0"/>
        <pt x="93" y="416" on="0"/>
        <pt x="153" y="447" on="0"/>
        <pt x="190" y="447" on="1"/>
        <pt x="210" y="447" on="0"/>
        <pt x="250" y="435" on="0"/>
        <pt x="265" y="424" on="1"/>
        <pt x="254" y="452" on="0"/>
        <pt x="214" y="509" on="0"/>
        <pt x="190" y="536" on="1"/>
        <pt x="174" y="523" on="0"/>
        <pt x="148" y="502" on="0"/>
        <pt x="138" y="494" on="1"/>
        <pt x="127" y="484" on="0"/>
        <pt x="117" y="476" on="1"/>
      </contour>
      <contour>
        <pt x="295" y="225" on="1"/>
        <pt x="295" y="290" on="0"/>
        <pt x="259" y="351" on="0"/>
        <pt x="227" y="351" on="1"/>
        <pt x="160" y="351" on="0"/>
        <pt x="160" y="228" on="1"/>
        <pt x="160" y="164" on="0"/>
        <pt x="194" y="97" on="0"/>
        <pt x="229" y="97" on="1"/>
        <pt x="264" y="97" on="0"/>
        <pt x="295" y="165" on="0"/>
      </contour>
    </TTGlyph>
    <TTGlyph name="exclam" xMin="50" yMin="-10" xMax="202" yMax="733">
      <contour>
        <pt x="168" y="222" on="1"/>
        <pt x="82" y="222" on="1"/>
        <pt x="51" y="733" on="1"/>
        <pt x="199" y="733" on="1"/>
      </contour>
      <contour>
        <pt x="202" y="66" on="1"/>
        <pt x="202" y="34" on="0"/>
        <pt x="158" y="-10" on="0"/>
        <pt x="126" y="-10" on="1"/>
        <pt x="94" y="-10" on="0"/>
        <pt x="50" y="34" on="0"/>
        <pt x="50" y="66" on="1"/>
        <pt x="50" y="98" on="0"/>
        <pt x="94" y="143" on="0"/>
        <pt x="126" y="143" on="1"/>
        <pt x="158" y="143" on="0"/>
        <pt x="202" y="98" on="0"/>
      </contour>
    </TTGlyph>
    <TTGlyph name="exclamdown" xMin="50" yMin="0" xMax="201" yMax="743">
      <contour>
        <pt x="50" y="667" on="1"/>
        <pt x="50" y="699" on="0"/>
        <pt x="94" y="743" on="0"/>
        <pt x="126" y="743" on="1"/>
        <pt x="158" y="743" on="0"/>
        <pt x="201" y="699" on="0"/>
        <pt x="201" y="667" on="1"/>
        <pt x="201" y="635" on="0"/>
        <pt x="158" y="590" on="0"/>
        <pt x="126" y="590" on="1"/>
        <pt x="94" y="590" on="0"/>
        <pt x="50" y="635" on="0"/>
      </contour>
      <contour>
        <pt x="83" y="511" on="1"/>
        <pt x="169" y="511" on="1"/>
        <pt x="201" y="0" on="1"/>
        <pt x="52" y="0" on="1"/>
      </contour>
    </TTGlyph>
    <TTGlyph name="f" xMin="14" yMin="0" xMax="319" yMax="740">
      <contour>
        <pt x="310" y="615" on="1"/>
        <pt x="302" y="617" on="0"/>
        <pt x="283" y="619" on="0"/>
        <pt x="273" y="619" on="1"/>
        <pt x="249" y="619" on="0"/>
        <pt x="220" y="588" on="0"/>
        <pt x="220" y="543" on="1"/>
        <pt x="220" y="456" on="1"/>
        <pt x="310" y="456" on="1"/>
        <pt x="310" y="345" on="1"/>
        <pt x="220" y="345" on="1"/>
        <pt x="220" y="0" on="1"/>
        <pt x="86" y="0" on="1"/>
        <pt x="86" y="345" on="1"/>
        <pt x="14" y="345" on="1"/>
        <pt x="14" y="401" on="1"/>
        <pt x="86" y="457" on="1"/>
        <pt x="86" y="561" on="1"/>
        <pt x="86" y="646" on="0"/>
        <pt x="166" y="740" on="0"/>
        <pt x="245" y="740" on="1"/>
        <pt x="268" y="740" on="0"/>
        <pt x="306" y="734" on="0"/>
        <pt x="319" y="730" on="1"/>
      </contour>
    </TTGlyph>
    <TTGlyph name="f_f" xMin="14" yMin="0" xMax="620" yMax="740">
      <contour>
        <pt x="310" y="615" on="1"/>
        <pt x="302" y="617" on="0"/>
        <pt x="283" y="619" on="0"/>
        <pt x="273" y="619" on="1"/>
        <pt x="249" y="619" on="0"/>
        <pt x="220" y="588" on="0"/>
        <pt x="220" y="543" on="1"/>
        <pt x="220" y="456" on="1"/>
        <pt x="310" y="456" on="1"/>
        <pt x="310" y="345" on="1"/>
        <pt x="220" y="345" on="1"/>
        <pt x="220" y="0" on="1"/>
        <pt x="86" y="0" on="1"/>
        <pt x="86" y="345" on="1"/>
        <pt x="14" y="345" on="1"/>
        <pt x="14" y="401" on="1"/>
        <pt x="86" y="457" on="1"/>
        <pt x="86" y="561" on="1"/>
        <pt x="86" y="646" on="0"/>
        <pt x="166" y="740" on="0"/>
        <pt x="245" y="740" on="1"/>
        <pt x="268" y="740" on="0"/>
        <pt x="306" y="734" on="0"/>
        <pt x="319" y="730" on="1"/>
      </contour>
      <contour>
        <pt x="611" y="615" on="1"/>
        <pt x="603" y="617" on="0"/>
        <pt x="585" y="619" on="0"/>
        <pt x="575" y="619" on="1"/>
        <pt x="550" y="619" on="0"/>
        <pt x="521" y="588" on="0"/>
        <pt x="521" y="543" on="1"/>
        <pt x="521" y="456" on="1"/>
        <pt x="611" y="456" on="1"/>
        <pt x="611" y="345" on="1"/>
        <pt x="521" y="345" on="1"/>
        <pt x="521" y="0" on="1"/>
        <pt x="387" y="0" on="1"/>
        <pt x="387" y="345" on="1"/>
        <pt x="316" y="345" on="1"/>
        <pt x="316" y="401" on="1"/>
        <pt x="387" y="457" on="1"/>
        <pt x="387" y="561" on="1"/>
        <pt x="387" y="646" on="0"/>
        <pt x="467" y="740" on="0"/>
        <pt x="547" y="740" on="1"/>
        <pt x="570" y="740" on="0"/>
        <pt x="608" y="734" on="0"/>
        <pt x="620" y="730" on="1"/>
      </contour>
    </TTGlyph>
    <TTGlyph name="f_f_i" xMin="14" yMin="0" xMax="806" yMax="740">
      <contour>
        <pt x="310" y="615" on="1"/>
        <pt x="302" y="617" on="0"/>
        <pt x="283" y="619" on="0"/>
        <pt x="273" y="619" on="1"/>
        <pt x="249" y="619" on="0"/>
        <pt x="220" y="588" on="0"/>
        <pt x="220" y="543" on="1"/>
        <pt x="220" y="456" on="1"/>
        <pt x="310" y="456" on="1"/>
        <pt x="310" y="345" on="1"/>
        <pt x="220" y="345" on="1"/>
        <pt x="220" y="0" on="1"/>
        <pt x="86" y="0" on="1"/>
        <pt x="86" y="345" on="1"/>
        <pt x="14" y="345" on="1"/>
        <pt x="14" y="401" on="1"/>
        <pt x="86" y="457" on="1"/>
        <pt x="86" y="561" on="1"/>
        <pt x="86" y="646" on="0"/>
        <pt x="166" y="740" on="0"/>
        <pt x="245" y="740" on="1"/>
        <pt x="268" y="740" on="0"/>
        <pt x="306" y="734" on="0"/>
        <pt x="319" y="730" on="1"/>
      </contour>
      <contour>
        <pt x="611" y="615" on="1"/>
        <pt x="603" y="617" on="0"/>
        <pt x="585" y="619" on="0"/>
        <pt x="575" y="619" on="1"/>
        <pt x="550" y="619" on="0"/>
        <pt x="521" y="588" on="0"/>
        <pt x="521" y="543" on="1"/>
        <pt x="521" y="456" on="1"/>
        <pt x="611" y="456" on="1"/>
        <pt x="611" y="345" on="1"/>
        <pt x="521" y="345" on="1"/>
        <pt x="521" y="0" on="1"/>
        <pt x="387" y="0" on="1"/>
        <pt x="387" y="345" on="1"/>
        <pt x="316" y="345" on="1"/>
        <pt x="316" y="401" on="1"/>
        <pt x="387" y="457" on="1"/>
        <pt x="387" y="561" on="1"/>
        <pt x="387" y="646" on="0"/>
        <pt x="467" y="740" on="0"/>
        <pt x="547" y="740" on="1"/>
        <pt x="570" y="740" on="0"/>
        <pt x="608" y="734" on="0"/>
        <pt x="620" y="730" on="1"/>
      </contour>
      <contour>
        <pt x="806" y="598" on="1"/>
        <pt x="806" y="566" on="0"/>
        <pt x="762" y="518" on="0"/>
        <pt x="729" y="518" on="1"/>
        <pt x="696" y="518" on="0"/>
        <pt x="652" y="566" on="0"/>
        <pt x="652" y="598" on="1"/>
        <pt x="652" y="631" on="0"/>
        <pt x="696" y="679" on="0"/>
        <pt x="729" y="679" on="1"/>
        <pt x="762" y="679" on="0"/>
        <pt x="806" y="631" on="0"/>
      </contour>
      <contour>
        <pt x="661" y="0" on="1"/>
        <pt x="661" y="456" on="1"/>
        <pt x="796" y="456" on="1"/>
        <pt x="796" y="0" on="1"/>
      </contour>
    </TTGlyph>
    <TTGlyph name="f_f_l" xMin="14" yMin="0" xMax="794" yMax="740">
      <contour>
        <pt x="310" y="615" on="1"/>
        <pt x="302" y="617" on="0"/>
        <pt x="283" y="619" on="0"/>
        <pt x="273" y="619" on="1"/>
        <pt x="249" y="619" on="0"/>
        <pt x="220" y="588" on="0"/>
        <pt x="220" y="543" on="1"/>
        <pt x="220" y="456" on="1"/>
        <pt x="310" y="456" on="1"/>
        <pt x="310" y="345" on="1"/>
        <pt x="220" y="345" on="1"/>
        <pt x="220" y="0" on="1"/>
        <pt x="86" y="0" on="1"/>
        <pt x="86" y="345" on="1"/>
        <pt x="14" y="345" on="1"/>
        <pt x="14" y="401" on="1"/>
        <pt x="86" y="457" on="1"/>
        <pt x="86" y="561" on="1"/>
        <pt x="86" y="646" on="0"/>
        <pt x="166" y="740" on="0"/>
        <pt x="245" y="740" on="1"/>
        <pt x="268" y="740" on="0"/>
        <pt x="306" y="734" on="0"/>
        <pt x="319" y="730" on="1"/>
      </contour>
      <contour>
        <pt x="611" y="615" on="1"/>
        <pt x="603" y="617" on="0"/>
        <pt x="585" y="619" on="0"/>
        <pt x="575" y="619" on="1"/>
        <pt x="550" y="619" on="0"/>
        <pt x="521" y="588" on="0"/>
        <pt x="521" y="543" on="1"/>
        <pt x="521" y="456" on="1"/>
        <pt x="611" y="456" on="1"/>
        <pt x="611" y="345" on="1"/>
        <pt x="521" y="345" on="1"/>
        <pt x="521" y="0" on="1"/>
        <pt x="387" y="0" on="1"/>
        <pt x="387" y="345" on="1"/>
        <pt x="316" y="345" on="1"/>
        <pt x="316" y="401" on="1"/>
        <pt x="387" y="457" on="1"/>
        <pt x="387" y="561" on="1"/>
        <pt x="387" y="646" on="0"/>
        <pt x="467" y="740" on="0"/>
        <pt x="547" y="740" on="1"/>
        <pt x="570" y="740" on="0"/>
        <pt x="608" y="734" on="0"/>
        <pt x="620" y="730" on="1"/>
      </contour>
      <contour>
        <pt x="659" y="0" on="1"/>
        <pt x="659" y="733" on="1"/>
        <pt x="794" y="733" on="1"/>
        <pt x="794" y="0" on="1"/>
      </contour>
    </TTGlyph>
    <TTGlyph name="fi" xMin="14" yMin="0" xMax="505" yMax="740">
      <contour>
        <pt x="505" y="598" on="1"/>
        <pt x="505" y="566" on="0"/>
        <pt x="461" y="518" on="0"/>
        <pt x="428" y="518" on="1"/>
        <pt x="395" y="518" on="0"/>
        <pt x="351" y="566" on="0"/>
        <pt x="351" y="598" on="1"/>
        <pt x="351" y="631" on="0"/>
        <pt x="395" y="679" on="0"/>
        <pt x="428" y="679" on="1"/>
        <pt x="461" y="679" on="0"/>
        <pt x="505" y="631" on="0"/>
      </contour>
      <contour>
        <pt x="310" y="615" on="1"/>
        <pt x="302" y="617" on="0"/>
        <pt x="283" y="619" on="0"/>
        <pt x="273" y="619" on="1"/>
        <pt x="249" y="619" on="0"/>
        <pt x="220" y="588" on="0"/>
        <pt x="220" y="543" on="1"/>
        <pt x="220" y="456" on="1"/>
        <pt x="310" y="456" on="1"/>
        <pt x="310" y="345" on="1"/>
        <pt x="220" y="345" on="1"/>
        <pt x="220" y="0" on="1"/>
        <pt x="86" y="0" on="1"/>
        <pt x="86" y="345" on="1"/>
        <pt x="14" y="345" on="1"/>
        <pt x="14" y="401" on="1"/>
        <pt x="86" y="457" on="1"/>
        <pt x="86" y="561" on="1"/>
        <pt x="86" y="646" on="0"/>
        <pt x="166" y="740" on="0"/>
        <pt x="245" y="740" on="1"/>
        <pt x="268" y="740" on="0"/>
        <pt x="306" y="734" on="0"/>
        <pt x="319" y="730" on="1"/>
      </contour>
      <contour>
        <pt x="360" y="0" on="1"/>
        <pt x="360" y="456" on="1"/>
        <pt x="495" y="456" on="1"/>
        <pt x="495" y="0" on="1"/>
      </contour>
    </TTGlyph>
    <TTGlyph name="five" xMin="35" yMin="-10" xMax="419" yMax="666">
      <contour>
        <pt x="419" y="223" on="1"/>
        <pt x="419" y="169" on="0"/>
        <pt x="386" y="83" on="0"/>
        <pt x="325" y="22" on="0"/>
        <pt x="239" y="-10" on="0"/>
        <pt x="187" y="-10" on="1"/>
        <pt x="151" y="-10" on="0"/>
        <pt x="73" y="4" on="0"/>
        <pt x="35" y="20" on="1"/>
        <pt x="64" y="141" on="1"/>
        <pt x="90" y="130" on="0"/>
        <pt x="145" y="116" on="0"/>
        <pt x="173" y="116" on="1"/>
        <pt x="221" y="116" on="0"/>
        <pt x="275" y="165" on="0"/>
        <pt x="275" y="216" on="1"/>
        <pt x="275" y="264" on="0"/>
        <pt x="215" y="311" on="0"/>
        <pt x="161" y="311" on="1"/>
        <pt x="138" y="311" on="0"/>
        <pt x="94" y="306" on="0"/>
        <pt x="74" y="301" on="1"/>
        <pt x="64" y="311" on="1"/>
        <pt x="64" y="666" on="1"/>
        <pt x="388" y="666" on="1"/>
        <pt x="388" y="539" on="1"/>
        <pt x="196" y="539" on="1"/>
        <pt x="196" y="424" on="1"/>
        <pt x="204" y="425" on="0"/>
        <pt x="221" y="426" on="0"/>
        <pt x="229" y="426" on="1"/>
        <pt x="318" y="426" on="0"/>
        <pt x="419" y="318" on="0"/>
      </contour>
    </TTGlyph>
    <TTGlyph name="five.lin" xMin="31" yMin="-11" xMax="457" yMax="727">
      <contour>
        <pt x="457" y="242" on="1"/>
        <pt x="457" y="184" on="0"/>
        <pt x="421" y="90" on="0"/>
        <pt x="354" y="24" on="0"/>
        <pt x="258" y="-11" on="0"/>
        <pt x="199" y="-11" on="1"/>
        <pt x="159" y="-11" on="0"/>
        <pt x="74" y="5" on="0"/>
        <pt x="31" y="22" on="1"/>
        <pt x="63" y="149" on="1"/>
        <pt x="92" y="137" on="0"/>
        <pt x="154" y="122" on="0"/>
        <pt x="185" y="122" on="1"/>
        <pt x="239" y="122" on="0"/>
        <pt x="301" y="175" on="0"/>
        <pt x="301" y="232" on="1"/>
        <pt x="301" y="283" on="0"/>
        <pt x="233" y="341" on="0"/>
        <pt x="173" y="341" on="1"/>
        <pt x="150" y="341" on="0"/>
        <pt x="94" y="334" on="0"/>
        <pt x="73" y="328" on="1"/>
        <pt x="62" y="339" on="1"/>
        <pt x="62" y="727" on="1"/>
        <pt x="430" y="727" on="1"/>
        <pt x="430" y="589" on="1"/>
        <pt x="207" y="589" on="1"/>
        <pt x="207" y="462" on="1"/>
        <pt x="231" y="465" on="0"/>
        <pt x="247" y="465" on="1"/>
        <pt x="296" y="465" on="0"/>
        <pt x="374" y="434" on="0"/>
        <pt x="428" y="375" on="0"/>
        <pt x="457" y="293" on="0"/>
      </contour>
    </TTGlyph>
    <TTGlyph name="fl" xMin="14" yMin="0" xMax="492" yMax="740">
      <contour>
        <pt x="310" y="615" on="1"/>
        <pt x="302" y="617" on="0"/>
        <pt x="283" y="619" on="0"/>
        <pt x="273" y="619" on="1"/>
        <pt x="249" y="619" on="0"/>
        <pt x="220" y="588" on="0"/>
        <pt x="220" y="543" on="1"/>
        <pt x="220" y="456" on="1"/>
        <pt x="310" y="456" on="1"/>
        <pt x="310" y="345" on="1"/>
        <pt x="220" y="345" on="1"/>
        <pt x="220" y="0" on="1"/>
        <pt x="86" y="0" on="1"/>
        <pt x="86" y="345" on="1"/>
        <pt x="14" y="345" on="1"/>
        <pt x="14" y="401" on="1"/>
        <pt x="86" y="457" on="1"/>
        <pt x="86" y="561" on="1"/>
        <pt x="86" y="646" on="0"/>
        <pt x="166" y="740" on="0"/>
        <pt x="245" y="740" on="1"/>
        <pt x="268" y="740" on="0"/>
        <pt x="306" y="734" on="0"/>
        <pt x="319" y="730" on="1"/>
      </contour>
      <contour>
        <pt x="358" y="0" on="1"/>
        <pt x="358" y="733" on="1"/>
        <pt x="492" y="733" on="1"/>
        <pt x="492" y="0" on="1"/>
      </contour>
    </TTGlyph>
    <TTGlyph name="florin" xMin="18" yMin="0" xMax="355" yMax="672">
      <contour>
        <pt x="337" y="540" on="1"/>
        <pt x="320" y="545" on="0"/>
        <pt x="302" y="545" on="1"/>
        <pt x="278" y="545" on="0"/>
        <pt x="250" y="513" on="0"/>
        <pt x="246" y="476" on="1"/>
        <pt x="238" y="416" on="1"/>
        <pt x="314" y="416" on="1"/>
        <pt x="307" y="305" on="1"/>
        <pt x="225" y="305" on="1"/>
        <pt x="188" y="0" on="1"/>
        <pt x="54" y="0" on="1"/>
        <pt x="91" y="305" on="1"/>
        <pt x="18" y="305" on="1"/>
        <pt x="23" y="355" on="1"/>
        <pt x="105" y="419" on="1"/>
        <pt x="114" y="494" on="1"/>
        <pt x="124" y="579" on="0"/>
        <pt x="207" y="672" on="0"/>
        <pt x="282" y="672" on="1"/>
        <pt x="305" y="672" on="0"/>
        <pt x="344" y="663" on="0"/>
        <pt x="355" y="659" on="1"/>
      </contour>
    </TTGlyph>
    <TTGlyph name="florin.lin" xMin="26" yMin="0" xMax="397" yMax="736">
      <contour>
        <pt x="376" y="597" on="1"/>
        <pt x="366" y="600" on="0"/>
        <pt x="347" y="604" on="0"/>
        <pt x="336" y="604" on="1"/>
        <pt x="308" y="604" on="0"/>
        <pt x="272" y="561" on="0"/>
        <pt x="267" y="517" on="1"/>
        <pt x="258" y="448" on="1"/>
        <pt x="352" y="448" on="1"/>
        <pt x="345" y="331" on="1"/>
        <pt x="244" y="331" on="1"/>
        <pt x="204" y="0" on="1"/>
        <pt x="64" y="0" on="1"/>
        <pt x="104" y="331" on="1"/>
        <pt x="26" y="331" on="1"/>
        <pt x="31" y="382" on="1"/>
        <pt x="118" y="447" on="1"/>
        <pt x="129" y="539" on="1"/>
        <pt x="140" y="634" on="0"/>
        <pt x="232" y="736" on="0"/>
        <pt x="317" y="736" on="1"/>
        <pt x="343" y="736" on="0"/>
        <pt x="385" y="726" on="0"/>
        <pt x="397" y="721" on="1"/>
      </contour>
    </TTGlyph>
    <TTGlyph name="four" xMin="19" yMin="-1" xMax="448" yMax="672">
      <contour>
        <pt x="384" y="129" on="1"/>
        <pt x="384" y="-1" on="1"/>
        <pt x="254" y="-1" on="1"/>
        <pt x="254" y="129" on="1"/>
        <pt x="19" y="129" on="1"/>
        <pt x="19" y="238" on="1"/>
        <pt x="277" y="672" on="1"/>
        <pt x="384" y="672" on="1"/>
        <pt x="384" y="251" on="1"/>
        <pt x="448" y="251" on="1"/>
        <pt x="448" y="129" on="1"/>
      </contour>
      <contour>
        <pt x="254" y="443" on="1"/>
        <pt x="149" y="248" on="1"/>
        <pt x="254" y="248" on="1"/>
      </contour>
    </TTGlyph>
    <TTGlyph name="four.lin" xMin="21" yMin="0" xMax="499" yMax="734">
      <contour>
        <pt x="432" y="138" on="1"/>
        <pt x="432" y="0" on="1"/>
        <pt x="289" y="0" on="1"/>
        <pt x="289" y="138" on="1"/>
        <pt x="21" y="138" on="1"/>
        <pt x="21" y="260" on="1"/>
        <pt x="310" y="734" on="1"/>
        <pt x="432" y="734" on="1"/>
        <pt x="432" y="271" on="1"/>
        <pt x="499" y="271" on="1"/>
        <pt x="499" y="138" on="1"/>
      </contour>
      <contour>
        <pt x="289" y="493" on="1"/>
        <pt x="161" y="269" on="1"/>
        <pt x="289" y="269" on="1"/>
      </contour>
    </TTGlyph>
    <TTGlyph name="fraction" xMin="20" yMin="-17" xMax="475" yMax="692">
      <contour>
        <pt x="76" y="-17" on="1"/>
        <pt x="20" y="24" on="1"/>
        <pt x="421" y="692" on="1"/>
        <pt x="475" y="651" on="1"/>
      </contour>
    </TTGlyph>
    <TTGlyph name="fraction.lin" xMin="24" yMin="-18" xMax="529" yMax="755">
      <contour>
        <pt x="81" y="-18" on="1"/>
        <pt x="24" y="23" on="1"/>
        <pt x="474" y="755" on="1"/>
        <pt x="529" y="714" on="1"/>
      </contour>
    </TTGlyph>
    <TTGlyph name="g" xMin="27" yMin="-209" xMax="419" yMax="464">
      <contour>
        <pt x="419" y="-19" on="1"/>
        <pt x="419" y="-71" on="0"/>
        <pt x="395" y="-143" on="0"/>
        <pt x="350" y="-188" on="0"/>
        <pt x="283" y="-209" on="0"/>
        <pt x="241" y="-209" on="1"/>
        <pt x="203" y="-209" on="0"/>
        <pt x="139" y="-199" on="0"/>
        <pt x="110" y="-191" on="1"/>
        <pt x="121" y="-80" on="1"/>
        <pt x="142" y="-87" on="0"/>
        <pt x="190" y="-94" on="0"/>
        <pt x="213" y="-94" on="1"/>
        <pt x="251" y="-94" on="0"/>
        <pt x="285" y="-59" on="0"/>
        <pt x="285" y="-17" on="1"/>
        <pt x="285" y="21" on="1"/>
        <pt x="267" y="8" on="0"/>
        <pt x="226" y="-7" on="0"/>
        <pt x="198" y="-7" on="1"/>
        <pt x="163" y="-7" on="0"/>
        <pt x="101" y="22" on="0"/>
        <pt x="54" y="80" on="0"/>
        <pt x="27" y="166" on="0"/>
        <pt x="27" y="223" on="1"/>
        <pt x="27" y="274" on="0"/>
        <pt x="55" y="363" on="0"/>
        <pt x="101" y="427" on="0"/>
        <pt x="163" y="464" on="0"/>
        <pt x="197" y="464" on="1"/>
        <pt x="229" y="464" on="0"/>
        <pt x="274" y="443" on="0"/>
        <pt x="291" y="426" on="1"/>
        <pt x="291" y="456" on="1"/>
        <pt x="419" y="456" on="1"/>
      </contour>
      <contour>
        <pt x="285" y="339" on="1"/>
        <pt x="274" y="347" on="0"/>
        <pt x="250" y="356" on="0"/>
        <pt x="233" y="356" on="1"/>
        <pt x="203" y="356" on="0"/>
        <pt x="160" y="290" on="0"/>
        <pt x="160" y="223" on="1"/>
        <pt x="160" y="155" on="0"/>
        <pt x="201" y="100" on="0"/>
        <pt x="235" y="100" on="1"/>
        <pt x="264" y="100" on="0"/>
        <pt x="285" y="118" on="1"/>
      </contour>
    </TTGlyph>
    <TTGlyph name="gbreve" xMin="27" yMin="-209" xMax="419" yMax="656">
      <component glyphName="g" x="0" y="0" flags="0x204"/>
      <component glyphName="breve" x="15" y="0" flags="0x4"/>
    </TTGlyph>
    <TTGlyph name="gcommaaccent" xMin="27" yMin="-209" xMax="419" yMax="759">
      <contour>
        <pt x="162" y="583" on="1"/>
        <pt x="162" y="608" on="0"/>
        <pt x="182" y="661" on="0"/>
        <pt x="217" y="709" on="0"/>
        <pt x="264" y="748" on="0"/>
        <pt x="291" y="759" on="1"/>
        <pt x="304" y="738" on="1"/>
        <pt x="274" y="712" on="0"/>
        <pt x="244" y="667" on="0"/>
        <pt x="236" y="637" on="1"/>
        <pt x="270" y="635" on="0"/>
        <pt x="310" y="594" on="0"/>
        <pt x="310" y="565" on="1"/>
        <pt x="310" y="536" on="0"/>
        <pt x="269" y="496" on="0"/>
        <pt x="240" y="496" on="1"/>
        <pt x="202" y="496" on="0"/>
        <pt x="162" y="547" on="0"/>
      </contour>
      <contour>
        <pt x="419" y="-19" on="1"/>
        <pt x="419" y="-71" on="0"/>
        <pt x="395" y="-143" on="0"/>
        <pt x="350" y="-188" on="0"/>
        <pt x="283" y="-209" on="0"/>
        <pt x="241" y="-209" on="1"/>
        <pt x="203" y="-209" on="0"/>
        <pt x="139" y="-199" on="0"/>
        <pt x="110" y="-191" on="1"/>
        <pt x="121" y="-80" on="1"/>
        <pt x="142" y="-87" on="0"/>
        <pt x="190" y="-94" on="0"/>
        <pt x="213" y="-94" on="1"/>
        <pt x="251" y="-94" on="0"/>
        <pt x="285" y="-59" on="0"/>
        <pt x="285" y="-17" on="1"/>
        <pt x="285" y="21" on="1"/>
        <pt x="267" y="8" on="0"/>
        <pt x="226" y="-7" on="0"/>
        <pt x="198" y="-7" on="1"/>
        <pt x="163" y="-7" on="0"/>
        <pt x="101" y="22" on="0"/>
        <pt x="54" y="80" on="0"/>
        <pt x="27" y="166" on="0"/>
        <pt x="27" y="223" on="1"/>
        <pt x="27" y="274" on="0"/>
        <pt x="55" y="363" on="0"/>
        <pt x="101" y="427" on="0"/>
        <pt x="163" y="464" on="0"/>
        <pt x="197" y="464" on="1"/>
        <pt x="229" y="464" on="0"/>
        <pt x="274" y="443" on="0"/>
        <pt x="291" y="426" on="1"/>
        <pt x="291" y="456" on="1"/>
        <pt x="419" y="456" on="1"/>
      </contour>
      <contour>
        <pt x="285" y="339" on="1"/>
        <pt x="274" y="347" on="0"/>
        <pt x="250" y="356" on="0"/>
        <pt x="233" y="356" on="1"/>
        <pt x="203" y="356" on="0"/>
        <pt x="160" y="290" on="0"/>
        <pt x="160" y="223" on="1"/>
        <pt x="160" y="155" on="0"/>
        <pt x="201" y="100" on="0"/>
        <pt x="235" y="100" on="1"/>
        <pt x="264" y="100" on="0"/>
        <pt x="285" y="118" on="1"/>
      </contour>
    </TTGlyph>
    <TTGlyph name="gdotaccent" xMin="27" yMin="-209" xMax="419" yMax="642">
      <component glyphName="g" x="0" y="0" flags="0x204"/>
      <component glyphName="dotaccent" x="28" y="0" flags="0x4"/>
    </TTGlyph>
    <TTGlyph name="germandbls" xMin="48" yMin="-94" xMax="485" yMax="740">
      <contour>
        <pt x="371" y="222" on="1"/>
        <pt x="420" y="198" on="0"/>
        <pt x="462" y="129" on="0"/>
        <pt x="462" y="80" on="1"/>
        <pt x="462" y="38" on="0"/>
        <pt x="431" y="-26" on="0"/>
        <pt x="380" y="-71" on="0"/>
        <pt x="312" y="-94" on="0"/>
        <pt x="275" y="-94" on="1"/>
        <pt x="263" y="-94" on="0"/>
        <pt x="237" y="-92" on="0"/>
        <pt x="226" y="-90" on="1"/>
        <pt x="237" y="18" on="1"/>
        <pt x="245" y="16" on="0"/>
        <pt x="257" y="16" on="0"/>
        <pt x="264" y="16" on="1"/>
        <pt x="296" y="16" on="0"/>
        <pt x="330" y="51" on="0"/>
        <pt x="330" y="82" on="1"/>
        <pt x="330" y="111" on="0"/>
        <pt x="298" y="148" on="0"/>
        <pt x="258" y="148" on="1"/>
        <pt x="253" y="148" on="0"/>
        <pt x="242" y="148" on="0"/>
        <pt x="237" y="147" on="1"/>
        <pt x="232" y="161" on="1"/>
        <pt x="317" y="344" on="1"/>
        <pt x="182" y="344" on="1"/>
        <pt x="182" y="0" on="1"/>
        <pt x="48" y="0" on="1"/>
        <pt x="48" y="561" on="1"/>
        <pt x="48" y="646" on="0"/>
        <pt x="128" y="740" on="0"/>
        <pt x="207" y="740" on="1"/>
        <pt x="230" y="740" on="0"/>
        <pt x="268" y="734" on="0"/>
        <pt x="281" y="730" on="1"/>
        <pt x="272" y="615" on="1"/>
        <pt x="264" y="617" on="0"/>
        <pt x="245" y="619" on="0"/>
        <pt x="235" y="619" on="1"/>
        <pt x="211" y="619" on="0"/>
        <pt x="182" y="588" on="0"/>
        <pt x="182" y="543" on="1"/>
        <pt x="182" y="456" on="1"/>
        <pt x="482" y="456" on="1"/>
        <pt x="485" y="444" on="1"/>
      </contour>
    </TTGlyph>
    <TTGlyph name="grave" xMin="121" yMin="500" xMax="347" yMax="700">
      <contour>
        <pt x="306" y="500" on="1"/>
        <pt x="121" y="601" on="1"/>
        <pt x="188" y="700" on="1"/>
        <pt x="347" y="553" on="1"/>
      </contour>
    </TTGlyph>
    <TTGlyph name="greater" xMin="31" yMin="92" xMax="304" yMax="579">
      <contour>
        <pt x="107" y="92" on="1"/>
        <pt x="31" y="173" on="1"/>
        <pt x="165" y="335" on="1"/>
        <pt x="31" y="498" on="1"/>
        <pt x="107" y="579" on="1"/>
        <pt x="304" y="335" on="1"/>
      </contour>
    </TTGlyph>
    <TTGlyph name="greater.lin" xMin="31" yMin="127" xMax="304" yMax="614">
      <component glyphName="greater" x="0" y="35" flags="0x204"/>
    </TTGlyph>
    <TTGlyph name="guillemotleft" xMin="35" yMin="38" xMax="421" yMax="365">
      <contour>
        <pt x="297" y="38" on="1"/>
        <pt x="216" y="202" on="1"/>
        <pt x="297" y="365" on="1"/>
        <pt x="421" y="365" on="1"/>
        <pt x="337" y="202" on="1"/>
        <pt x="421" y="38" on="1"/>
      </contour>
      <contour>
        <pt x="116" y="38" on="1"/>
        <pt x="35" y="202" on="1"/>
        <pt x="116" y="365" on="1"/>
        <pt x="239" y="365" on="1"/>
        <pt x="156" y="202" on="1"/>
        <pt x="239" y="38" on="1"/>
      </contour>
    </TTGlyph>
    <TTGlyph name="guillemotleft.cap" xMin="35" yMin="206" xMax="421" yMax="533">
      <component glyphName="guillemotleft" x="0" y="168" flags="0x204"/>
    </TTGlyph>
    <TTGlyph name="guillemotright" xMin="24" yMin="38" xMax="409" yMax="365">
      <contour>
        <pt x="328" y="38" on="1"/>
        <pt x="205" y="38" on="1"/>
        <pt x="289" y="202" on="1"/>
        <pt x="205" y="365" on="1"/>
        <pt x="328" y="365" on="1"/>
        <pt x="409" y="202" on="1"/>
      </contour>
      <contour>
        <pt x="147" y="38" on="1"/>
        <pt x="24" y="38" on="1"/>
        <pt x="107" y="202" on="1"/>
        <pt x="24" y="365" on="1"/>
        <pt x="147" y="365" on="1"/>
        <pt x="228" y="202" on="1"/>
      </contour>
    </TTGlyph>
    <TTGlyph name="guillemotright.cap" xMin="24" yMin="207" xMax="409" yMax="534">
      <component glyphName="guillemotright" x="0" y="169" flags="0x204"/>
    </TTGlyph>
    <TTGlyph name="guilsinglleft" xMin="35" yMin="38" xMax="239" yMax="365">
      <contour>
        <pt x="116" y="38" on="1"/>
        <pt x="35" y="202" on="1"/>
        <pt x="116" y="365" on="1"/>
        <pt x="239" y="365" on="1"/>
        <pt x="156" y="202" on="1"/>
        <pt x="239" y="38" on="1"/>
      </contour>
    </TTGlyph>
    <TTGlyph name="guilsinglleft.cap" xMin="35" yMin="206" xMax="239" yMax="533">
      <component glyphName="guilsinglleft" x="0" y="168" flags="0x204"/>
    </TTGlyph>
    <TTGlyph name="guilsinglright" xMin="31" yMin="38" xMax="237" yMax="365">
      <contour>
        <pt x="155" y="38" on="1"/>
        <pt x="31" y="38" on="1"/>
        <pt x="116" y="202" on="1"/>
        <pt x="31" y="365" on="1"/>
        <pt x="155" y="365" on="1"/>
        <pt x="237" y="202" on="1"/>
      </contour>
    </TTGlyph>
    <TTGlyph name="guilsinglright.cap" xMin="31" yMin="206" xMax="237" yMax="533">
      <component glyphName="guilsinglright" x="0" y="168" flags="0x204"/>
    </TTGlyph>
    <TTGlyph name="h" xMin="44" yMin="0" xMax="424" yMax="733">
      <contour>
        <pt x="289" y="0" on="1"/>
        <pt x="289" y="304" on="1"/>
        <pt x="289" y="350" on="0"/>
        <pt x="250" y="350" on="1"/>
        <pt x="214" y="350" on="0"/>
        <pt x="179" y="315" on="1"/>
        <pt x="179" y="0" on="1"/>
        <pt x="44" y="0" on="1"/>
        <pt x="44" y="733" on="1"/>
        <pt x="178" y="733" on="1"/>
        <pt x="178" y="388" on="1"/>
        <pt x="209" y="427" on="0"/>
        <pt x="274" y="466" on="0"/>
        <pt x="312" y="466" on="1"/>
        <pt x="369" y="466" on="0"/>
        <pt x="424" y="396" on="0"/>
        <pt x="424" y="337" on="1"/>
        <pt x="424" y="0" on="1"/>
      </contour>
    </TTGlyph>
    <TTGlyph name="hbar" xMin="3" yMin="0" xMax="424" yMax="733">
      <contour>
        <pt x="289" y="0" on="1"/>
        <pt x="289" y="304" on="1"/>
        <pt x="289" y="350" on="0"/>
        <pt x="250" y="350" on="1"/>
        <pt x="214" y="350" on="0"/>
        <pt x="179" y="315" on="1"/>
        <pt x="179" y="0" on="1"/>
        <pt x="44" y="0" on="1"/>
        <pt x="44" y="539" on="1"/>
        <pt x="3" y="539" on="1"/>
        <pt x="3" y="644" on="1"/>
        <pt x="44" y="644" on="1"/>
        <pt x="44" y="733" on="1"/>
        <pt x="178" y="733" on="1"/>
        <pt x="178" y="644" on="1"/>
        <pt x="291" y="644" on="1"/>
        <pt x="291" y="539" on="1"/>
        <pt x="178" y="539" on="1"/>
        <pt x="178" y="388" on="1"/>
        <pt x="209" y="427" on="0"/>
        <pt x="274" y="466" on="0"/>
        <pt x="312" y="466" on="1"/>
        <pt x="369" y="466" on="0"/>
        <pt x="424" y="396" on="0"/>
        <pt x="424" y="337" on="1"/>
        <pt x="424" y="0" on="1"/>
      </contour>
    </TTGlyph>
    <TTGlyph name="hcoslug" xMin="50" yMin="-100" xMax="644" yMax="700">
      <contour>
        <pt x="273" y="18" on="1"/>
        <pt x="275" y="40" on="0"/>
        <pt x="254" y="40" on="1"/>
        <pt x="245" y="40" on="0"/>
        <pt x="234" y="29" on="0"/>
        <pt x="234" y="19" on="1"/>
        <pt x="235" y="-1" on="0"/>
        <pt x="255" y="-1" on="1"/>
        <pt x="270" y="-1" on="0"/>
        <pt x="273" y="13" on="1"/>
        <pt x="266" y="13" on="1"/>
        <pt x="264" y="6" on="0"/>
        <pt x="257" y="6" on="1"/>
        <pt x="247" y="6" on="0"/>
        <pt x="247" y="18" on="1"/>
      </contour>
      <contour>
        <pt x="254" y="35" on="1"/>
        <pt x="261" y="35" on="0"/>
        <pt x="261" y="23" on="1"/>
        <pt x="247" y="23" on="1"/>
        <pt x="247" y="35" on="0"/>
      </contour>
      <contour>
        <pt x="195" y="78" on="1"/>
        <pt x="187" y="78" on="0"/>
        <pt x="187" y="94" on="1"/>
        <pt x="187" y="109" on="0"/>
        <pt x="195" y="109" on="1"/>
        <pt x="203" y="109" on="0"/>
        <pt x="203" y="94" on="1"/>
        <pt x="203" y="78" on="0"/>
      </contour>
      <contour>
        <pt x="210" y="4" on="1"/>
        <pt x="202" y="4" on="0"/>
        <pt x="202" y="20" on="1"/>
        <pt x="202" y="35" on="0"/>
        <pt x="210" y="35" on="1"/>
        <pt x="218" y="35" on="0"/>
        <pt x="218" y="20" on="1"/>
        <pt x="218" y="4" on="0"/>
      </contour>
      <contour>
        <pt x="210" y="-1" on="1"/>
        <pt x="219" y="-1" on="0"/>
        <pt x="231" y="11" on="0"/>
        <pt x="231" y="20" on="1"/>
        <pt x="231" y="29" on="0"/>
        <pt x="219" y="40" on="0"/>
        <pt x="210" y="40" on="1"/>
        <pt x="201" y="40" on="0"/>
        <pt x="189" y="29" on="0"/>
        <pt x="189" y="20" on="1"/>
        <pt x="189" y="10" on="0"/>
        <pt x="201" y="-1" on="0"/>
      </contour>
      <contour>
        <pt x="546" y="4" on="1"/>
        <pt x="538" y="4" on="0"/>
        <pt x="538" y="20" on="1"/>
        <pt x="538" y="35" on="0"/>
        <pt x="546" y="35" on="1"/>
        <pt x="554" y="35" on="0"/>
        <pt x="554" y="20" on="1"/>
        <pt x="554" y="4" on="0"/>
      </contour>
      <contour>
        <pt x="546" y="-1" on="1"/>
        <pt x="555" y="-1" on="0"/>
        <pt x="567" y="11" on="0"/>
        <pt x="567" y="20" on="1"/>
        <pt x="567" y="29" on="0"/>
        <pt x="555" y="40" on="0"/>
        <pt x="546" y="40" on="1"/>
        <pt x="537" y="40" on="0"/>
        <pt x="525" y="29" on="0"/>
        <pt x="525" y="20" on="1"/>
        <pt x="525" y="10" on="0"/>
        <pt x="537" y="-1" on="0"/>
      </contour>
      <contour>
        <pt x="125" y="74" on="1"/>
        <pt x="155" y="74" on="1"/>
        <pt x="155" y="81" on="1"/>
        <pt x="145" y="81" on="1"/>
        <pt x="145" y="97" on="1"/>
        <pt x="149" y="97" on="1"/>
        <pt x="154" y="97" on="0"/>
        <pt x="155" y="89" on="1"/>
        <pt x="162" y="89" on="1"/>
        <pt x="162" y="112" on="1"/>
        <pt x="155" y="112" on="1"/>
        <pt x="154" y="104" on="0"/>
        <pt x="149" y="104" on="1"/>
        <pt x="145" y="104" on="1"/>
        <pt x="145" y="122" on="1"/>
        <pt x="157" y="122" on="1"/>
        <pt x="162" y="122" on="0"/>
        <pt x="166" y="117" on="0"/>
        <pt x="168" y="109" on="1"/>
        <pt x="176" y="109" on="1"/>
        <pt x="176" y="129" on="1"/>
        <pt x="125" y="129" on="1"/>
        <pt x="125" y="122" on="1"/>
        <pt x="132" y="122" on="1"/>
        <pt x="132" y="81" on="1"/>
        <pt x="125" y="81" on="1"/>
      </contour>
      <contour>
        <pt x="195" y="73" on="1"/>
        <pt x="204" y="73" on="0"/>
        <pt x="216" y="85" on="0"/>
        <pt x="216" y="94" on="1"/>
        <pt x="216" y="103" on="0"/>
        <pt x="204" y="114" on="0"/>
        <pt x="195" y="114" on="1"/>
        <pt x="186" y="114" on="0"/>
        <pt x="174" y="103" on="0"/>
        <pt x="174" y="94" on="1"/>
        <pt x="174" y="84" on="0"/>
        <pt x="186" y="73" on="0"/>
      </contour>
      <contour>
        <pt x="644" y="-100" on="1"/>
        <pt x="50" y="-100" on="1"/>
        <pt x="50" y="700" on="1"/>
        <pt x="644" y="700" on="1"/>
      </contour>
      <contour>
        <pt x="498" y="-1" on="1"/>
        <pt x="520" y="-1" on="0"/>
        <pt x="522" y="22" on="1"/>
        <pt x="514" y="22" on="1"/>
        <pt x="512" y="6" on="0"/>
        <pt x="500" y="6" on="1"/>
        <pt x="484" y="6" on="0"/>
        <pt x="484" y="28" on="1"/>
        <pt x="484" y="50" on="0"/>
        <pt x="498" y="50" on="1"/>
        <pt x="508" y="50" on="0"/>
        <pt x="513" y="34" on="1"/>
        <pt x="521" y="34" on="1"/>
        <pt x="521" y="56" on="1"/>
        <pt x="513" y="56" on="1"/>
        <pt x="512" y="50" on="1"/>
        <pt x="505" y="57" on="0"/>
        <pt x="496" y="57" on="1"/>
        <pt x="485" y="57" on="0"/>
        <pt x="469" y="41" on="0"/>
        <pt x="469" y="27" on="1"/>
        <pt x="469" y="-1" on="0"/>
      </contour>
      <contour>
        <pt x="372" y="80" on="1"/>
        <pt x="364" y="80" on="0"/>
        <pt x="364" y="93" on="1"/>
        <pt x="364" y="106" on="0"/>
        <pt x="372" y="106" on="1"/>
        <pt x="379" y="106" on="0"/>
        <pt x="379" y="93" on="1"/>
        <pt x="379" y="80" on="0"/>
      </contour>
      <contour>
        <pt x="276" y="0" on="1"/>
        <pt x="299" y="0" on="1"/>
        <pt x="299" y="7" on="1"/>
        <pt x="294" y="7" on="1"/>
        <pt x="294" y="32" on="1"/>
        <pt x="308" y="32" on="1"/>
        <pt x="308" y="7" on="1"/>
        <pt x="303" y="7" on="1"/>
        <pt x="303" y="0" on="1"/>
        <pt x="326" y="0" on="1"/>
        <pt x="326" y="7" on="1"/>
        <pt x="320" y="7" on="1"/>
        <pt x="320" y="59" on="1"/>
        <pt x="310" y="57" on="1"/>
        <pt x="306" y="59" on="0"/>
        <pt x="301" y="59" on="1"/>
        <pt x="293" y="59" on="0"/>
        <pt x="282" y="50" on="0"/>
        <pt x="282" y="40" on="1"/>
        <pt x="282" y="39" on="1"/>
        <pt x="275" y="39" on="1"/>
        <pt x="275" y="32" on="1"/>
        <pt x="282" y="32" on="1"/>
        <pt x="282" y="7" on="1"/>
        <pt x="276" y="7" on="1"/>
      </contour>
      <contour>
        <pt x="368" y="0" on="1"/>
        <pt x="394" y="0" on="1"/>
        <pt x="394" y="7" on="1"/>
        <pt x="386" y="7" on="1"/>
        <pt x="386" y="23" on="1"/>
        <pt x="390" y="32" on="0"/>
        <pt x="393" y="32" on="1"/>
        <pt x="393" y="31" on="1"/>
        <pt x="393" y="25" on="0"/>
        <pt x="399" y="25" on="1"/>
        <pt x="406" y="25" on="0"/>
        <pt x="406" y="32" on="1"/>
        <pt x="406" y="40" on="0"/>
        <pt x="398" y="40" on="1"/>
        <pt x="390" y="40" on="0"/>
        <pt x="386" y="29" on="1"/>
        <pt x="386" y="39" on="1"/>
        <pt x="368" y="39" on="1"/>
        <pt x="368" y="32" on="1"/>
        <pt x="374" y="32" on="1"/>
        <pt x="374" y="7" on="1"/>
        <pt x="368" y="7" on="1"/>
      </contour>
      <contour>
        <pt x="352" y="73" on="1"/>
        <pt x="358" y="73" on="1"/>
        <pt x="362" y="81" on="1"/>
        <pt x="367" y="73" on="0"/>
        <pt x="376" y="73" on="1"/>
        <pt x="385" y="73" on="0"/>
        <pt x="392" y="87" on="0"/>
        <pt x="392" y="94" on="1"/>
        <pt x="392" y="114" on="0"/>
        <pt x="377" y="114" on="1"/>
        <pt x="367" y="114" on="0"/>
        <pt x="364" y="105" on="1"/>
        <pt x="364" y="132" on="1"/>
        <pt x="346" y="132" on="1"/>
        <pt x="346" y="125" on="1"/>
        <pt x="352" y="125" on="1"/>
      </contour>
      <contour>
        <pt x="400" y="75" on="1"/>
        <pt x="393" y="75" on="0"/>
        <pt x="393" y="68" on="1"/>
        <pt x="393" y="59" on="0"/>
        <pt x="404" y="59" on="1"/>
        <pt x="416" y="59" on="0"/>
        <pt x="422" y="75" on="1"/>
        <pt x="435" y="106" on="1"/>
        <pt x="440" y="106" on="1"/>
        <pt x="440" y="113" on="1"/>
        <pt x="423" y="113" on="1"/>
        <pt x="423" y="106" on="1"/>
        <pt x="428" y="106" on="1"/>
        <pt x="420" y="86" on="1"/>
        <pt x="411" y="106" on="1"/>
        <pt x="417" y="106" on="1"/>
        <pt x="417" y="113" on="1"/>
        <pt x="392" y="113" on="1"/>
        <pt x="392" y="106" on="1"/>
        <pt x="397" y="106" on="1"/>
        <pt x="399" y="101" on="0"/>
        <pt x="403" y="93" on="1"/>
        <pt x="406" y="87" on="0"/>
        <pt x="411" y="77" on="0"/>
        <pt x="413" y="73" on="1"/>
        <pt x="411" y="65" on="0"/>
        <pt x="405" y="65" on="1"/>
        <pt x="407" y="67" on="0"/>
        <pt x="405" y="75" on="0"/>
      </contour>
      <contour>
        <pt x="247" y="428" on="1"/>
        <pt x="247" y="441" on="0"/>
        <pt x="262" y="457" on="0"/>
        <pt x="274" y="457" on="1"/>
        <pt x="287" y="457" on="0"/>
        <pt x="303" y="436" on="0"/>
        <pt x="303" y="419" on="1"/>
        <pt x="303" y="406" on="0"/>
        <pt x="293" y="382" on="0"/>
        <pt x="285" y="369" on="1"/>
        <pt x="268" y="386" on="0"/>
        <pt x="247" y="411" on="0"/>
      </contour>
      <contour>
        <pt x="302" y="74" on="1"/>
        <pt x="309" y="74" on="1"/>
        <pt x="310" y="78" on="1"/>
        <pt x="312" y="76" on="0"/>
        <pt x="318" y="73" on="0"/>
        <pt x="323" y="73" on="1"/>
        <pt x="337" y="73" on="0"/>
        <pt x="337" y="86" on="1"/>
        <pt x="337" y="92" on="0"/>
        <pt x="329" y="97" on="0"/>
        <pt x="320" y="99" on="0"/>
        <pt x="313" y="101" on="0"/>
        <pt x="313" y="104" on="1"/>
        <pt x="313" y="108" on="0"/>
        <pt x="318" y="108" on="1"/>
        <pt x="323" y="108" on="0"/>
        <pt x="328" y="101" on="1"/>
        <pt x="335" y="101" on="1"/>
        <pt x="335" y="114" on="1"/>
        <pt x="329" y="114" on="1"/>
        <pt x="327" y="109" on="1"/>
        <pt x="324" y="114" on="0"/>
        <pt x="316" y="114" on="1"/>
        <pt x="309" y="114" on="0"/>
        <pt x="302" y="107" on="0"/>
        <pt x="302" y="102" on="1"/>
        <pt x="302" y="96" on="0"/>
        <pt x="309" y="91" on="0"/>
        <pt x="318" y="88" on="0"/>
        <pt x="326" y="86" on="0"/>
        <pt x="326" y="83" on="1"/>
        <pt x="326" y="79" on="0"/>
        <pt x="321" y="79" on="1"/>
        <pt x="315" y="79" on="0"/>
        <pt x="309" y="88" on="1"/>
        <pt x="302" y="88" on="1"/>
      </contour>
      <contour>
        <pt x="261" y="219" on="1"/>
        <pt x="238" y="219" on="0"/>
        <pt x="209" y="250" on="0"/>
        <pt x="209" y="273" on="1"/>
        <pt x="209" y="297" on="0"/>
        <pt x="225" y="313" on="1"/>
        <pt x="239" y="300" on="0"/>
        <pt x="278" y="257" on="0"/>
        <pt x="299" y="231" on="1"/>
        <pt x="284" y="219" on="0"/>
      </contour>
      <contour>
        <pt x="274" y="122" on="1"/>
        <pt x="274" y="113" on="1"/>
        <pt x="267" y="113" on="1"/>
        <pt x="267" y="106" on="1"/>
        <pt x="274" y="106" on="1"/>
        <pt x="274" y="86" on="1"/>
        <pt x="274" y="73" on="0"/>
        <pt x="286" y="73" on="1"/>
        <pt x="297" y="73" on="0"/>
        <pt x="300" y="86" on="1"/>
        <pt x="295" y="88" on="1"/>
        <pt x="294" y="81" on="0"/>
        <pt x="290" y="81" on="1"/>
        <pt x="286" y="81" on="0"/>
        <pt x="286" y="86" on="1"/>
        <pt x="286" y="106" on="1"/>
        <pt x="299" y="106" on="1"/>
        <pt x="299" y="113" on="1"/>
        <pt x="286" y="113" on="1"/>
        <pt x="286" y="124" on="1"/>
      </contour>
      <contour>
        <pt x="428" y="306" on="1"/>
        <pt x="435" y="295" on="0"/>
        <pt x="457" y="281" on="0"/>
        <pt x="471" y="281" on="1"/>
        <pt x="492" y="281" on="0"/>
        <pt x="521" y="312" on="0"/>
        <pt x="521" y="335" on="1"/>
        <pt x="521" y="358" on="0"/>
        <pt x="492" y="387" on="0"/>
        <pt x="471" y="387" on="1"/>
        <pt x="436" y="387" on="0"/>
        <pt x="411" y="349" on="1"/>
        <pt x="409" y="369" on="0"/>
        <pt x="382" y="387" on="0"/>
        <pt x="362" y="386" on="1"/>
        <pt x="371" y="401" on="0"/>
        <pt x="371" y="420" on="1"/>
        <pt x="371" y="433" on="0"/>
        <pt x="359" y="460" on="0"/>
        <pt x="335" y="481" on="0"/>
        <pt x="299" y="494" on="0"/>
        <pt x="276" y="494" on="1"/>
        <pt x="251" y="494" on="0"/>
        <pt x="211" y="480" on="0"/>
        <pt x="182" y="456" on="0"/>
        <pt x="167" y="425" on="0"/>
        <pt x="167" y="409" on="1"/>
        <pt x="167" y="387" on="0"/>
        <pt x="182" y="357" on="0"/>
        <pt x="198" y="340" on="1"/>
        <pt x="116" y="312" on="0"/>
        <pt x="116" y="249" on="1"/>
        <pt x="116" y="229" on="0"/>
        <pt x="133" y="195" on="0"/>
        <pt x="163" y="170" on="0"/>
        <pt x="202" y="156" on="0"/>
        <pt x="225" y="156" on="1"/>
        <pt x="288" y="156" on="0"/>
        <pt x="329" y="201" on="1"/>
        <pt x="354" y="175" on="0"/>
        <pt x="391" y="156" on="0"/>
        <pt x="414" y="156" on="1"/>
        <pt x="446" y="156" on="0"/>
        <pt x="492" y="206" on="0"/>
        <pt x="494" y="250" on="1"/>
        <pt x="487" y="252" on="1"/>
        <pt x="479" y="239" on="0"/>
        <pt x="460" y="223" on="0"/>
        <pt x="444" y="223" on="1"/>
        <pt x="429" y="223" on="0"/>
        <pt x="401" y="242" on="0"/>
        <pt x="382" y="264" on="1"/>
        <pt x="393" y="279" on="0"/>
        <pt x="417" y="299" on="0"/>
      </contour>
      <contour>
        <pt x="219" y="74" on="1"/>
        <pt x="241" y="74" on="1"/>
        <pt x="241" y="81" on="1"/>
        <pt x="237" y="81" on="1"/>
        <pt x="237" y="96" on="1"/>
        <pt x="237" y="106" on="0"/>
        <pt x="244" y="106" on="1"/>
        <pt x="250" y="106" on="0"/>
        <pt x="250" y="99" on="1"/>
        <pt x="250" y="81" on="1"/>
        <pt x="246" y="81" on="1"/>
        <pt x="246" y="74" on="1"/>
        <pt x="268" y="74" on="1"/>
        <pt x="268" y="81" on="1"/>
        <pt x="262" y="81" on="1"/>
        <pt x="262" y="100" on="1"/>
        <pt x="262" y="114" on="0"/>
        <pt x="250" y="114" on="1"/>
        <pt x="241" y="114" on="0"/>
        <pt x="236" y="103" on="1"/>
        <pt x="236" y="113" on="1"/>
        <pt x="219" y="113" on="1"/>
        <pt x="219" y="106" on="1"/>
        <pt x="225" y="106" on="1"/>
        <pt x="225" y="81" on="1"/>
        <pt x="219" y="81" on="1"/>
      </contour>
      <contour>
        <pt x="446" y="33" on="1"/>
        <pt x="446" y="26" on="1"/>
        <pt x="452" y="26" on="1"/>
        <pt x="450" y="21" on="0"/>
        <pt x="446" y="17" on="1"/>
        <pt x="443" y="20" on="0"/>
        <pt x="438" y="26" on="0"/>
        <pt x="434" y="30" on="1"/>
        <pt x="445" y="35" on="0"/>
        <pt x="445" y="42" on="1"/>
        <pt x="445" y="47" on="0"/>
        <pt x="438" y="54" on="0"/>
        <pt x="431" y="54" on="1"/>
        <pt x="423" y="54" on="0"/>
        <pt x="414" y="46" on="0"/>
        <pt x="414" y="40" on="1"/>
        <pt x="414" y="34" on="0"/>
        <pt x="420" y="28" on="1"/>
        <pt x="407" y="24" on="0"/>
        <pt x="407" y="13" on="1"/>
        <pt x="407" y="-1" on="0"/>
        <pt x="425" y="-1" on="1"/>
        <pt x="434" y="-1" on="0"/>
        <pt x="440" y="5" on="1"/>
        <pt x="445" y="-1" on="0"/>
        <pt x="452" y="-1" on="1"/>
        <pt x="462" y="-1" on="0"/>
        <pt x="465" y="11" on="1"/>
        <pt x="460" y="12" on="1"/>
        <pt x="459" y="7" on="0"/>
        <pt x="456" y="7" on="1"/>
        <pt x="453" y="7" on="0"/>
        <pt x="450" y="12" on="1"/>
        <pt x="453" y="15" on="0"/>
        <pt x="457" y="21" on="0"/>
        <pt x="459" y="26" on="1"/>
        <pt x="464" y="26" on="1"/>
        <pt x="464" y="33" on="1"/>
      </contour>
      <contour>
        <pt x="429" y="6" on="1"/>
        <pt x="419" y="6" on="0"/>
        <pt x="419" y="16" on="1"/>
        <pt x="419" y="21" on="0"/>
        <pt x="423" y="25" on="1"/>
        <pt x="427" y="21" on="0"/>
        <pt x="433" y="14" on="0"/>
        <pt x="437" y="9" on="1"/>
        <pt x="433" y="6" on="0"/>
      </contour>
      <contour>
        <pt x="294" y="42" on="1"/>
        <pt x="294" y="49" on="0"/>
        <pt x="297" y="54" on="0"/>
        <pt x="300" y="54" on="1"/>
        <pt x="302" y="54" on="0"/>
        <pt x="303" y="53" on="1"/>
        <pt x="302" y="51" on="0"/>
        <pt x="302" y="49" on="1"/>
        <pt x="302" y="44" on="0"/>
        <pt x="308" y="44" on="1"/>
        <pt x="308" y="39" on="1"/>
        <pt x="294" y="39" on="1"/>
      </contour>
      <contour>
        <pt x="425" y="43" on="1"/>
        <pt x="425" y="48" on="0"/>
        <pt x="430" y="48" on="1"/>
        <pt x="436" y="48" on="0"/>
        <pt x="436" y="42" on="1"/>
        <pt x="436" y="36" on="0"/>
        <pt x="431" y="33" on="1"/>
        <pt x="425" y="39" on="0"/>
      </contour>
      <contour>
        <pt x="312" y="342" on="1"/>
        <pt x="342" y="362" on="0"/>
        <pt x="354" y="376" on="1"/>
        <pt x="371" y="359" on="0"/>
        <pt x="367" y="321" on="0"/>
        <pt x="353" y="296" on="1"/>
        <pt x="343" y="307" on="0"/>
        <pt x="324" y="330" on="0"/>
      </contour>
      <contour>
        <pt x="366" y="18" on="1"/>
        <pt x="368" y="40" on="0"/>
        <pt x="347" y="40" on="1"/>
        <pt x="339" y="40" on="0"/>
        <pt x="327" y="28" on="0"/>
        <pt x="327" y="19" on="1"/>
        <pt x="327" y="-1" on="0"/>
        <pt x="348" y="-1" on="1"/>
        <pt x="362" y="-1" on="0"/>
        <pt x="366" y="13" on="1"/>
        <pt x="359" y="13" on="1"/>
        <pt x="358" y="6" on="0"/>
        <pt x="350" y="6" on="1"/>
        <pt x="340" y="6" on="0"/>
        <pt x="340" y="18" on="1"/>
      </contour>
      <contour>
        <pt x="347" y="35" on="1"/>
        <pt x="354" y="35" on="0"/>
        <pt x="354" y="23" on="1"/>
        <pt x="340" y="23" on="1"/>
        <pt x="340" y="35" on="0"/>
      </contour>
      <contour>
        <pt x="124" y="0" on="1"/>
        <pt x="153" y="0" on="1"/>
        <pt x="153" y="7" on="1"/>
        <pt x="145" y="7" on="1"/>
        <pt x="145" y="25" on="1"/>
        <pt x="167" y="25" on="1"/>
        <pt x="167" y="7" on="1"/>
        <pt x="159" y="7" on="1"/>
        <pt x="159" y="0" on="1"/>
        <pt x="188" y="0" on="1"/>
        <pt x="188" y="7" on="1"/>
        <pt x="180" y="7" on="1"/>
        <pt x="180" y="48" on="1"/>
        <pt x="188" y="48" on="1"/>
        <pt x="188" y="55" on="1"/>
        <pt x="159" y="55" on="1"/>
        <pt x="159" y="48" on="1"/>
        <pt x="167" y="48" on="1"/>
        <pt x="167" y="32" on="1"/>
        <pt x="145" y="32" on="1"/>
        <pt x="145" y="48" on="1"/>
        <pt x="153" y="48" on="1"/>
        <pt x="153" y="55" on="1"/>
        <pt x="124" y="55" on="1"/>
        <pt x="124" y="48" on="1"/>
        <pt x="132" y="48" on="1"/>
        <pt x="132" y="7" on="1"/>
        <pt x="124" y="7" on="1"/>
      </contour>
      <contour>
        <pt x="576" y="13" on="1"/>
        <pt x="569" y="13" on="0"/>
        <pt x="569" y="6" on="1"/>
        <pt x="569" y="-1" on="0"/>
        <pt x="576" y="-1" on="1"/>
        <pt x="583" y="-1" on="0"/>
        <pt x="583" y="6" on="1"/>
        <pt x="583" y="13" on="0"/>
      </contour>
    </TTGlyph>
    <TTGlyph name="hungarumlaut" xMin="54" yMin="501" xMax="412" yMax="731">
      <contour>
        <pt x="100" y="507" on="1"/>
        <pt x="54" y="547" on="1"/>
        <pt x="166" y="731" on="1"/>
        <pt x="248" y="660" on="1"/>
      </contour>
      <contour>
        <pt x="260" y="501" on="1"/>
        <pt x="216" y="543" on="1"/>
        <pt x="331" y="723" on="1"/>
        <pt x="412" y="652" on="1"/>
      </contour>
    </TTGlyph>
    <TTGlyph name="hyphen" xMin="37" yMin="207" xMax="232" yMax="311">
      <contour>
        <pt x="37" y="207" on="1"/>
        <pt x="37" y="311" on="1"/>
        <pt x="232" y="311" on="1"/>
        <pt x="232" y="207" on="1"/>
      </contour>
    </TTGlyph>
    <TTGlyph name="hyphen.cap" xMin="37" yMin="319" xMax="232" yMax="423">
      <component glyphName="hyphen" x="0" y="112" flags="0x204"/>
    </TTGlyph>
    <TTGlyph name="i" xMin="36" yMin="0" xMax="191" yMax="679">
      <contour>
        <pt x="191" y="598" on="1"/>
        <pt x="191" y="566" on="0"/>
        <pt x="146" y="518" on="0"/>
        <pt x="114" y="518" on="1"/>
        <pt x="81" y="518" on="0"/>
        <pt x="36" y="566" on="0"/>
        <pt x="36" y="598" on="1"/>
        <pt x="36" y="631" on="0"/>
        <pt x="81" y="679" on="0"/>
        <pt x="114" y="679" on="1"/>
        <pt x="146" y="679" on="0"/>
        <pt x="191" y="631" on="0"/>
      </contour>
      <contour>
        <pt x="46" y="0" on="1"/>
        <pt x="46" y="456" on="1"/>
        <pt x="181" y="456" on="1"/>
        <pt x="181" y="0" on="1"/>
      </contour>
    </TTGlyph>
    <TTGlyph name="i.dot" xMin="36" yMin="0" xMax="191" yMax="679">
      <contour>
        <pt x="191" y="598" on="1"/>
        <pt x="191" y="566" on="0"/>
        <pt x="146" y="518" on="0"/>
        <pt x="114" y="518" on="1"/>
        <pt x="81" y="518" on="0"/>
        <pt x="36" y="566" on="0"/>
        <pt x="36" y="598" on="1"/>
        <pt x="36" y="631" on="0"/>
        <pt x="81" y="679" on="0"/>
        <pt x="114" y="679" on="1"/>
        <pt x="146" y="679" on="0"/>
        <pt x="191" y="631" on="0"/>
      </contour>
      <contour>
        <pt x="46" y="0" on="1"/>
        <pt x="46" y="456" on="1"/>
        <pt x="181" y="456" on="1"/>
        <pt x="181" y="0" on="1"/>
      </contour>
    </TTGlyph>
    <TTGlyph name="iacute" xMin="46" yMin="0" xMax="281" yMax="698">
      <component glyphName="acute" x="-44" y="0" flags="0x4"/>
      <component glyphName="dotlessi" x="0" y="0" flags="0x4"/>
    </TTGlyph>
    <TTGlyph name="ibreve" xMin="-34" yMin="0" xMax="263" yMax="656">
      <component glyphName="dotlessi" x="0" y="0" flags="0x4"/>
      <component glyphName="breve" x="-107" y="0" flags="0x4"/>
    </TTGlyph>
    <TTGlyph name="icircumflex" xMin="-47" yMin="0" xMax="277" yMax="675">
      <component glyphName="circumflex" x="-108" y="0" flags="0x4"/>
      <component glyphName="dotlessi" x="0" y="0" flags="0x4"/>
    </TTGlyph>
    <TTGlyph name="idieresis" xMin="-41" yMin="0" xMax="270" yMax="642">
      <component glyphName="dieresis" x="-107" y="0" flags="0x4"/>
      <component glyphName="dotlessi" x="0" y="0" flags="0x4"/>
    </TTGlyph>
    <TTGlyph name="igrave" xMin="-61" yMin="0" xMax="181" yMax="700">
      <component glyphName="dotlessi" x="0" y="0" flags="0x4"/>
      <component glyphName="grave" x="-182" y="0" flags="0x4"/>
    </TTGlyph>
    <TTGlyph name="imacron" xMin="-14" yMin="0" xMax="244" yMax="605">
      <component glyphName="dotlessi" x="0" y="0" flags="0x4"/>
      <component glyphName="macron" x="-106" y="0" flags="0x4"/>
    </TTGlyph>
    <TTGlyph name="iogonek" xMin="19" yMin="-205" xMax="209" yMax="679">
      <contour>
        <pt x="209" y="-161" on="1"/>
        <pt x="192" y="-178" on="0"/>
        <pt x="140" y="-205" on="0"/>
        <pt x="104" y="-205" on="1"/>
        <pt x="62" y="-205" on="0"/>
        <pt x="19" y="-158" on="0"/>
        <pt x="19" y="-121" on="1"/>
        <pt x="19" y="-89" on="0"/>
        <pt x="48" y="-33" on="0"/>
        <pt x="75" y="0" on="1"/>
        <pt x="46" y="0" on="1"/>
        <pt x="46" y="456" on="1"/>
        <pt x="181" y="456" on="1"/>
        <pt x="181" y="0" on="1"/>
        <pt x="152" y="0" on="1"/>
        <pt x="129" y="-32" on="0"/>
        <pt x="108" y="-74" on="0"/>
        <pt x="108" y="-94" on="1"/>
        <pt x="108" y="-110" on="0"/>
        <pt x="127" y="-128" on="0"/>
        <pt x="142" y="-128" on="1"/>
        <pt x="154" y="-128" on="0"/>
        <pt x="175" y="-119" on="0"/>
        <pt x="183" y="-113" on="1"/>
      </contour>
      <contour>
        <pt x="191" y="598" on="1"/>
        <pt x="191" y="566" on="0"/>
        <pt x="146" y="518" on="0"/>
        <pt x="114" y="518" on="1"/>
        <pt x="81" y="518" on="0"/>
        <pt x="36" y="566" on="0"/>
        <pt x="36" y="598" on="1"/>
        <pt x="36" y="631" on="0"/>
        <pt x="81" y="679" on="0"/>
        <pt x="114" y="679" on="1"/>
        <pt x="146" y="679" on="0"/>
        <pt x="191" y="631" on="0"/>
      </contour>
    </TTGlyph>
    <TTGlyph name="j" xMin="-50" yMin="-209" xMax="192" yMax="679">
      <contour>
        <pt x="192" y="598" on="1"/>
        <pt x="192" y="566" on="0"/>
        <pt x="147" y="518" on="0"/>
        <pt x="115" y="518" on="1"/>
        <pt x="82" y="518" on="0"/>
        <pt x="37" y="566" on="0"/>
        <pt x="37" y="598" on="1"/>
        <pt x="37" y="631" on="0"/>
        <pt x="82" y="679" on="0"/>
        <pt x="115" y="679" on="1"/>
        <pt x="147" y="679" on="0"/>
        <pt x="192" y="631" on="0"/>
      </contour>
      <contour>
        <pt x="182" y="-30" on="1"/>
        <pt x="182" y="-118" on="0"/>
        <pt x="108" y="-209" on="0"/>
        <pt x="29" y="-209" on="1"/>
        <pt x="0" y="-209" on="0"/>
        <pt x="-35" y="-203" on="0"/>
        <pt x="-50" y="-199" on="1"/>
        <pt x="-40" y="-90" on="1"/>
        <pt x="-32" y="-92" on="0"/>
        <pt x="-13" y="-95" on="0"/>
        <pt x="-1" y="-95" on="1"/>
        <pt x="23" y="-95" on="0"/>
        <pt x="47" y="-71" on="0"/>
        <pt x="47" y="-37" on="1"/>
        <pt x="47" y="456" on="1"/>
        <pt x="182" y="456" on="1"/>
      </contour>
    </TTGlyph>
    <TTGlyph name="k" xMin="44" yMin="0" xMax="436" yMax="733">
      <contour>
        <pt x="285" y="0" on="1"/>
        <pt x="177" y="211" on="1"/>
        <pt x="177" y="0" on="1"/>
        <pt x="44" y="0" on="1"/>
        <pt x="44" y="733" on="1"/>
        <pt x="177" y="733" on="1"/>
        <pt x="177" y="263" on="1"/>
        <pt x="280" y="456" on="1"/>
        <pt x="432" y="456" on="1"/>
        <pt x="297" y="240" on="1"/>
        <pt x="436" y="0" on="1"/>
      </contour>
    </TTGlyph>
    <TTGlyph name="kcommaaccent" xMin="44" yMin="-330" xMax="436" yMax="733">
      <component glyphName="commaaccent" x="133" y="0" flags="0x4"/>
      <component glyphName="k" x="0" y="0" flags="0x4"/>
    </TTGlyph>
    <TTGlyph name="l" xMin="44" yMin="0" xMax="178" yMax="733">
      <contour>
        <pt x="44" y="0" on="1"/>
        <pt x="44" y="733" on="1"/>
        <pt x="178" y="733" on="1"/>
        <pt x="178" y="0" on="1"/>
      </contour>
    </TTGlyph>
    <TTGlyph name="lacute" xMin="44" yMin="0" xMax="279" yMax="983">
      <component glyphName="acute" x="-46" y="285" flags="0x4"/>
      <component glyphName="l" x="0" y="0" flags="0x4"/>
    </TTGlyph>
</ttFont>
